<?xml version="1.0" standalone="no"?>
<svg version="1.1" id="Layer_1" xmlns="http://www.w3.org/2000/svg" xmlns:xlink="http://www.w3.org/1999/xlink" x="0px" y="0px" width="595.28px" height="595.28px" viewBox="0 0 595.28 595.28" enable-background="new 0 0 595.28 595.28" xml:space="preserve">
<path id="color_x5F_2" fill="#000000" d="M190.085,368.172c0.013,0.171,0.021,0.342,0.032,0.513
	c-0.164,0.269-0.416,0.689-0.736,1.236C189.616,369.336,189.851,368.752,190.085,368.172z M339.272,348.701
	c-2.995-8.904-6.174-17.743-9.446-26.549c-2.935-7.9-5.549-16.063-9.352-23.603c-6.551-12.992-16.157-21.581-29.466-27.313
	c-3.187-1.373-6.503-2.761-9.902-4.07c-4.724-1.635-9.064-3.072-12.194-4.091c-1.769-0.49-3.545-0.933-5.327-1.311
	c-0.845,0.553-2.426,0.558-2.405-0.468c-4.847-0.868-9.71-1.243-14.49-0.864c-1.919,0.152,0.428-1.189,1.231-1.253
	c4.349-0.345,8.758-0.092,13.156,0.566c-1.419-8.111-17.474-8.538-23.34-8.383c-5.841,0.155-23.656,0.797-23.637,9.642
	c0,0.036-0.011,0.069-0.016,0.104c2.659-0.72,5.374-1.344,8.153-1.851c2.033-0.371,0.63,0.886-0.531,1.098
	c-6.496,1.185-12.943,2.953-18.973,5.61c-1.998,0.983-4.301,2.154-6.662,3.428c-2.509,1.501-4.91,3.198-7.166,5.127
	c-2.7,2.309-5.179,4.825-7.467,7.502c-0.419,0.49-0.817,0.999-1.223,1.5c-3.306,4.074-6.213,8.476-8.788,13.081
	c-11.166,19.975-19.627,41.804-26.887,63.456c-4.001,11.933-8.01,24.173-10.495,36.526c-2.004,9.963-2.011,20.554,2.079,29.887
	c1.157,2.23,2.436,4.489,3.825,6.708c1.826,2.692,3.716,5.349,5.653,7.979c0.889,1.102,1.798,2.168,2.728,3.175
	c5.03,5.45,14.539,17.75,20.907,26.132c0.638,0.754,1.274,1.506,1.911,2.258c1.011-10.748,3.16-21.362,6.046-31.817
	c2.103-7.618,4.604-15.184,6.84-22.803c-10.793-16.807-2.226-35.997,4.499-52.729c0.129-0.322,0.672-0.563,1.251-0.695
	c-0.433-4.362-1.075-8.716-1.918-13.052c-3.237-16.646-7.85-33.026-8.011-50.102c-0.004-0.383,0.589-0.681,1.24-0.846
	c0.786-0.201,1.655-0.208,1.658,0.07c0.167,17.701,5.244,34.525,8.332,51.815c0.636,3.564,1.146,7.15,1.527,10.748
	c1.094,10.318,1.084,20.733-0.383,31.02c-0.426,5.654-1.383,11.333-3.23,16.164c-0.256,0.669-0.52,1.4-0.788,2.175
	c-0.425,1.539-0.86,3.075-1.31,4.607c0.03,0.047,0.059,0.093,0.089,0.14c0.143,0.222,0.276,0.444,0.426,0.665
	c0.137,0.201-0.357,0.544-0.979,0.783c-0.882,2.971-1.789,5.936-2.691,8.9c-1.147,3.767-2.283,7.535-3.328,11.319
	c-2.295,8.316-4.177,16.702-5.415,25.178c-0.587,4.02-1.026,8.061-1.293,12.124c-0.215,3.265-0.318,6.545-0.296,9.841
	c5.384,3.19,11.592,5.162,17.558,6.868c9.5,2.717,19.213,4.718,28.999,6.081c20.553,2.863,42.236,3.902,62.535-1.22
	c0-0.007-0.002-0.012-0.001-0.019c0.913-20.162,9.048-39.074,10.648-59.142c-0.498-0.159-0.816-0.543-0.577-1.179
	c3.417-9.076,9.511-17.083,12.213-26.432c0.23-0.798,0.418-1.583,0.58-2.358c-0.647,0.1-1.313-0.065-1.517-0.635
	c-3.161-8.835-3.338-18.13-3.35-27.406c-0.168-0.472-0.336-0.943-0.502-1.421c-6.357-18.261-13.253-37.151-12.169-56.794
	c0.075-1.368,3.027-1.755,2.941-0.198c-1.068,19.365,5.55,38.48,12.262,56.578c0.24,0.153,0.401,0.392,0.401,0.739
	c0,0.114,0,0.228,0,0.342c0.652,1.753,1.303,3.501,1.947,5.234c3.303,8.892,5.254,17.053,2.189,26.295
	c-2.902,8.753-8.147,16.411-11.614,24.91c0.057,0.081,0.104,0.17,0.125,0.279c2.966,15.485,6.161,34.253,17.882,45.767
	c0.012,0.012,0.016,0.023,0.027,0.035c1.622-2.083,3.104-4.255,4.502-6.481c0.005-0.404,0.022-0.807,0.025-1.211
	c0.002-0.375,0.582-0.665,1.221-0.828c5.664-9.501,9.943-19.883,15.931-29.19c8.032-12.485,17.173-26.845,16.842-42.21
	c-0.006-0.282,0.204-0.529,0.51-0.717C349.99,383.813,345.121,366.092,339.272,348.701z M211.214,261.524l-1.183,0.789
	c0.467-0.151,0.932-0.305,1.404-0.449C211.333,261.775,211.255,261.663,211.214,261.524z M305.929,404.86
	c0.376-5.303-0.715-10.202-2.312-15.183C303.868,394.813,304.477,399.898,305.929,404.86z M181.238,279.689
	c1.029-1.049,2.082-2.058,3.163-3.021C183.052,277.725,181.964,278.744,181.238,279.689z M312.125,484.846
	c0.239-0.279,0.461-0.569,0.695-0.851c-0.57,0.135-1.178,0.101-1.516-0.231c-9.539-9.37-13.516-23.47-16.267-36.77
	c-2.717,16.936-8.783,33.276-9.596,50.525c0.835,0.362,0.806,1.572-0.542,1.939c-21.249,5.787-44.318,4.952-65.934,1.812
	c-15.288-2.221-33.165-4.892-46.888-12.837c-0.007,3.464-0.029,6.927-0.06,10.391c0.506,0.357,0.443,1.036-0.013,1.486
	c-0.172,17.926-0.572,35.849-0.587,53.777c0,0.43-0.704,0.752-1.418,0.906l0,0.007h58.565c1.377-16.78,3.322-33.504,5.955-50.135
	c0.137-0.865,2.943-1.066,2.897-0.776c-0.039,0.245-0.074,0.491-0.113,0.736c1.747,0.56,2.039,3.883,2.401,5.322
	c1.296,5.146,2.409,10.339,3.509,15.529c1.268,5.979,2.494,11.966,3.721,17.953c0.425,2.077,0.816,6.391,1.578,8.016
	c0.119,0.089,0.202,0.208,0.242,0.355h64.124c-1.023-24.046,4.577-47.642,5.506-71.587c-1.229,1.724-2.52,3.406-3.907,5.026
	C313.784,486.251,310.98,486.182,312.125,484.846z M315.717,548.833l2.571-37.534C316.791,523.771,315.405,536.245,315.717,548.833z
	 M315.5,552l0.021-0.297c-0.15,0.114-0.355,0.214-0.585,0.297H315.5z M321.358,476.94l1.255-3.013
	c-0.404,0.675-0.817,1.345-1.235,2.011C321.373,476.271,321.366,476.606,321.358,476.94z"></path>
<path id="color_x5F_1" d="M520.763,497.666H475.79c0.194-0.187,0.32-0.418,0.32-0.689V112.633c0-0.283-0.1-0.498-0.26-0.656
	c0.864-0.539,1.399-1.489-0.007-1.489h-70c-0.817,0-1.893,0.829-1.931,1.378c-0.423,0.204-0.74,0.54-0.74,0.977v384.344
	c0,0.189,0.045,0.349,0.123,0.48H365.79c0.194-0.187,0.32-0.418,0.32-0.689V252.152c0-0.118-0.022-0.221-0.054-0.316
	c0.732-0.549,1.076-1.349-0.213-1.349h-8.353c0.274-0.15,0.499-0.352,0.599-0.598c0.005-0.013,0.011-0.026,0.016-0.039
	c0.174-0.431,0.051-0.722-0.217-0.896c0.074-0.001-0.181-0.188-0.353-0.442c-0.387-0.571-0.733-1.173-1.084-1.767
	c-1.083-1.829-2.098-3.7-3.098-5.576c-0.684-1.283-4.962-7.992-4.248-9.318c0.332-0.615-0.063-0.938-0.653-1.017
	c11.943-7.098,19.986-19.864,15.938-34.161c-4.253-15.02-19.832-22.161-34.412-21.458c-5.857,0.282-11.58,1.909-17.014,4.058
	c-0.603,0.055-1.299,0.202-1.53,0.346c-7.91,4.941-14.434,11.758-16.105,21.219c-1.415,8.012,1.731,16.041,6.601,22.282
	c2.426,3.109,5.271,5.671,8.39,7.688c-0.74,0.26-1.356,0.857-0.992,1.533c0.637,1.183-3.356,7.454-4.002,8.691
	c-0.925,1.771-1.889,3.521-2.879,5.256c-0.408,0.716-0.828,1.424-1.258,2.125c-0.256,0.417-0.612,0.691-0.528,0.705
	c-0.382,0.251-0.607,0.603-0.449,0.993c0.005,0.014,0.01,0.026,0.016,0.04c0.059,0.144,0.147,0.248,0.248,0.336h-4.631
	c-0.541,0-1.196,0.364-1.59,0.77c-0.584,0.167-1.082,0.557-1.082,1.104v17.908c-0.713-0.318-1.432-0.632-2.157-0.938
	c-8.387-3.536-17.59-7.015-26.919-8.799c-0.164-4.675-3.922-7.355-8.682-8.88c0.719-0.185,1.402-0.666,1.343-1.293
	c-0.664-6.971,5.081-10.729,10.243-14.129c5.084-3.35,10.229-6.758,13.211-12.241c4.029-7.407,1.136-16.741-2.082-23.832
	c-4.205-9.265-10.63-17.408-13.25-27.36c3.987-4.828,5.379-11.3,3.906-17.101c1.03-2.71,1.792-5.495,2.269-8.212
	c1.315-7.499,1.297-15.202,2.122-22.76c0.728-6.665,1.838-14.643,6.911-19.522c5.229-5.03,14.169-1.622,18.168,3.248
	c3.991,4.859,6.667,10.908,9.356,16.539c5.004,10.479,9.355,24.503,18.629,32.125c9.089,7.47,16.95-5.264,20.169-12.218
	c6.435-13.898,10.021-28.954,18.689-41.795c8.787-13.016,22.921-19.69,37.459-24.264c0.101,0.231,0.2,0.464,0.313,0.69
	c0.481-0.396,0.943-0.813,1.415-1.219c0.33-0.1,0.659-0.205,0.989-0.303c0.358-0.106,0.609-0.237,0.796-0.372
	c1.103,1.737,2.386,3.384,3.835,4.911c11.177,11.771,28.928,11.323,41.358,1.898c10.986-8.33,15.259-23.448,6.038-34.892
	c-9.92-12.312-26.347-12.056-39.941-6.827c-0.567,0.063-1.178,0.199-1.392,0.333c-6.699,4.209-12.923,10.382-13.846,18.649
	c-0.536,4.797,0.462,9.34,2.522,13.439c-0.846,0.809-1.719,1.587-2.603,2.353c0.039,0.12,0.088,0.236,0.13,0.354
	c-15.608,4.903-30.299,11.915-39.939,25.725c-5.044,7.227-8.407,15.56-11.617,23.715c-3.531,8.971-6.146,18.961-12.03,26.763
	c-3.759,4.984-7.586,4.397-11.617,0.172c-4.298-4.506-7.126-10.539-9.852-16.063c-5.275-10.689-9.312-24.202-17.971-32.758
	c-3.738-3.693-10.354-4.357-15.27-3.306c-5.436,1.162-8.833,5.171-10.816,10.157c-4.977,12.512-2.396,26.603-5.829,39.449
	c-1.438-2.687-3.595-5.075-6.561-6.848c-3.087-1.846-6.554-2.441-9.934-2.021c-1.884-0.129-3.565,0.146-4.734,1.103
	c-0.139,0.113-0.274,0.24-0.413,0.358c-0.558,0.252-1.109,0.525-1.644,0.834c-3.316,1.908-5.811,5.198-8.611,7.742
	c-0.891,0.81-1.827,1.502-2.793,2.117c-0.337-1.053-0.664-2.104-0.994-3.136c-1.814-5.688-3.95-10.88-7.158-15.955
	c-4.024-6.364-9.901-11.406-17.712-9.373c-7.206,1.876-12.06,9.135-15.68,15.095c-7.395,12.174-10.063,26.987-20.439,37.237
	c-5.331,5.266-12.513,7.945-19.475,4.292c-6.565-3.445-10.084-11.073-12.459-17.695c-0.273-0.763-3.136,0.112-2.897,0.776
	c2.981,8.314,7.791,17.288,17.008,19.642c6.258,1.598,12.892-1.191,17.821-4.892c7.733-5.806,11.79-14.679,15.306-23.377
	c3.751-9.281,8.241-19.027,15.369-26.221c11.127-11.23,21.236,4.925,25.13,14.539c1.356,3.349,2.358,6.977,3.528,10.523
	c-4.245,1.976-8.963,2.753-13.636,3.799c-0.146,0.032-0.298,0.082-0.448,0.143c0.6-1.503,0.918-3.139,0.119-4.499
	c-0.922-1.566-3.051-1.61-4.641-1.4c-4.402,0.582-8.201,3.739-10.478,7.563c-0.194-2.347-0.96-4.612-3.163-5.69
	c-2.674-1.31-6.202,0.199-8.397,1.783c-2.606,1.881-4.527,4.915-4.852,8.13c-0.008,0.085-0.008,0.167-0.014,0.251
	c-0.218,0.749-0.253,1.452-0.044,2.08c0.082,0.244,0.195,0.494,0.321,0.746c0.492,1.78,1.547,3.351,2.897,4.672
	c-2.517,0.313-4.691,2.477-5.262,5.467c-0.449,2.354,0.118,4.836,1.594,6.718c1.885,2.404,5.153,2.848,8.024,2.7
	c-0.012,0.021-0.029,0.041-0.038,0.063c-2.516,6.241-1.674,12.164,0.699,18.333c2.477,6.438,6.627,10.807,11.011,15.965
	c3.542,4.168,4.837,8.945,6.872,13.904c1.085,2.644,2.204,3.552,5.056,4.064c1.071,0.192,2.171,0.343,3.283,0.472
	c-0.476,0.152-0.866,0.373-0.912,0.624c-0.659,3.566-0.686,7.185-0.687,10.801c0,0.123,0.195,0.187,0.482,0.198
	c-3.78,1.768-6.503,4.374-6.495,8.214c0,0.092,0.013,0.174,0.036,0.25c0.041,0.139,0.119,0.251,0.221,0.34
	c-0.472,0.144-0.937,0.298-1.404,0.449c-9.546,3.081-18.192,7.727-25.629,14.354c-1.081,0.964-2.134,1.973-3.163,3.021
	c-2,2.037-3.911,4.218-5.704,6.591c-6.188,8.193-10.725,17.572-15.002,26.859c-4.912,10.666-9.46,21.467-13.56,32.471
	c-2.292,6.152-4.479,12.353-6.523,18.598H88.768c-0.306,0-0.649,0.116-0.96,0.291c-0.783,0.028-1.626,0.478-1.626,1.191v131.756
	c-3.806-0.031-7.612-0.052-11.418-0.055c-1.672-0.001-2.21,2.162-0.246,2.163c4.049,0.003,8.098,0.024,12.146,0.059
	c0.423,0.229,1.048,0.216,1.563,0.018c26.963,0.251,53.918,1.058,80.883,1.112c-0.169,18.04-0.575,36.079-0.59,54.121
	c0,0.269,0.745,0.288,1.479,0.129c0.714-0.153,1.417-0.476,1.418-0.905c0.015-17.928,0.415-35.852,0.587-53.777
	c0.456-0.45,0.519-1.129,0.013-1.486c0.031-3.463,0.052-6.927,0.06-10.391c13.723,7.945,31.6,10.616,46.888,12.837
	c21.615,3.141,44.685,3.976,65.934-1.812c1.348-0.367,1.377-1.577,0.542-1.939c0.813-17.249,6.878-33.589,9.596-50.525
	c2.751,13.3,6.728,27.399,16.267,36.77c0.338,0.332,0.946,0.366,1.516,0.231c-0.234,0.282-0.457,0.572-0.695,0.852
	c-1.144,1.336,1.659,1.404,2.354,0.593c1.387-1.62,2.678-3.303,3.907-5.026c-0.93,23.945-6.529,47.541-5.506,71.587
	c0.001,0.02,0,0.038,0.001,0.057c0.014,0.33,1.204,0.254,2.055-0.057c0.229-0.083,0.435-0.183,0.585-0.297
	c0.165-0.126,0.265-0.269,0.258-0.423c-0.035-0.816-0.041-1.631-0.062-2.446c-0.312-12.589,1.074-25.063,2.571-37.534
	c0.478-3.977,0.959-7.954,1.402-11.934c0.2,0.116,0.471,0.188,0.827,0.188h200C522.188,499.829,522.728,497.666,520.763,497.666z
	 M417.24,43.772c0.169-0.03,0.317-0.066,0.418-0.108c13.455-5.583,29.831-4.188,38.289,8.865c6.454,9.959,3.573,22.295-4.779,30.072
	c-12.628,11.76-30.882,9.191-41.111-4.04c-0.87-1.125-1.616-2.271-2.252-3.427c0.01-0.009,0.02-0.018,0.029-0.026
	c0.708-0.699,0.14-1.097-0.645-1.17C401.868,62.842,406.763,50.858,417.24,43.772z M304.201,221.54
	c-4.295-5.504-6.586-12.41-6.218-19.38c0.497-9.413,7.084-16.779,14.591-21.747c0.207-0.033,0.388-0.075,0.507-0.124
	c15.803-6.592,35.231-5.129,45.253,10.244c7.798,11.962,4.182,26.772-6.06,35.915C337.367,239.757,316.214,236.937,304.201,221.54z
	 M304.393,247.918c1.304-2.166,2.502-4.396,3.682-6.632c0.92-1.744,4.338-6.65,4.132-9.338c9.736,5.431,21.766,5.828,32.355,0.934
	c0.548-0.253,1.088-0.521,1.624-0.798c-0.503,2.436,2.944,7.323,3.843,9.063c1.193,2.309,2.447,4.589,3.758,6.834
	c0.45,0.771,0.934,1.945,1.725,2.506h-53.115C303.333,250.023,303.892,248.749,304.393,247.918z M220.723,241.908
	c5.424,0.44,11.118,0.123,16.271-0.995c1.603-0.162,2.81-0.374,3.339-0.639c0.349-0.174,0.792-0.443,1.293-0.773
	c7.703-3.15,13.244-9.633,18.074-16.435c3.467,1.243,7.3-1.323,9.607-3.673c0.777-0.791-2.091-0.549-2.671,0.042
	c-2.023,2.06-4.116,3.319-6.523,1.153c-1.916-1.724-2.737-4.519-3.109-6.979c-0.381-2.518-0.131-5.19,0.998-7.491
	c0.588-1.197,1.388-1.859,2.306-2.157c1.021-0.086,2.025-0.064,2.938,0.012c0.741,0.176,1.494,0.446,2.226,0.758
	c0.296,0.126,0.869,0.032,1.401-0.157c0.074,0.02,0.126,0.034,0.126,0.034s-0.003-0.036-0.006-0.079
	c0.804-0.312,1.457-0.823,0.813-1.098c-0.311-0.132-0.629-0.252-0.95-0.365c0-0.001,0-0.002,0-0.003
	c0.336-0.186,0.573-0.425,0.566-0.703c-0.219-8.725-3.131-16.784-6.667-24.667c-0.227-0.507-1.293-0.39-2.072-0.066
	c-0.004-0.005-0.017-0.019-0.017-0.019s0.361-0.211,0.927-0.589c0.364-0.075,0.682-0.169,0.816-0.255
	c0.736-0.473,1.426-0.987,2.074-1.537c5.243,15.644,25.24,35.573,13.165,51.4c-6.422,8.418-23.022,11.581-21.791,24.509
	c0.002,0.025,0.013,0.045,0.018,0.068c-5.636-1.472-12.205-1.561-15.834-1.514c-3.826,0.048-11.71,0.494-17.953,2.669
	C220.089,248.866,220.096,245.356,220.723,241.908z M170.512,486.094c-0.487,0.277-0.816,0.68-0.695,1.06
	c-0.366,0.168-0.63,0.39-0.63,0.651c-0.003,3.683-0.026,7.365-0.057,11.047c-26.673-0.058-53.338-0.846-80.009-1.102V366.335h50.73
	c-1.66,5.149-3.225,10.328-4.657,15.541c-3.227,11.737-6.858,23.559-4.856,35.836c1.687,10.344,7.856,18.401,14.047,26.454
	c1.209,1.573,2.432,3.135,3.656,4.695c-0.44,0.202-0.773,0.544-0.773,0.991v47.333c0,1.546,2.938,1.123,2.938-0.209V451.61
	c4.37,5.518,8.813,10.979,13.283,16.415c2.356,2.865,4.726,5.72,7.119,8.554c0.053,0.062,0.137,0.102,0.238,0.128
	C170.63,479.825,170.518,482.954,170.512,486.094z M318.52,475.139c-0.002,0.404-0.02,0.808-0.025,1.211
	c-1.398,2.226-2.88,4.397-4.502,6.481c-0.011-0.012-0.015-0.023-0.027-0.035c-11.722-11.514-14.916-30.282-17.882-45.767
	c-0.021-0.109-0.067-0.198-0.125-0.279c3.467-8.499,8.711-16.157,11.614-24.91c3.065-9.242,1.114-17.403-2.189-26.295
	c-0.644-1.733-1.295-3.48-1.947-5.234c0-0.114,0-0.229,0-0.342c0-0.348-0.161-0.587-0.401-0.739
	c-6.712-18.098-13.331-37.213-12.262-56.578c0.086-1.557-2.866-1.17-2.941,0.198c-1.084,19.643,5.812,38.533,12.169,56.794
	c0.167,0.479,0.334,0.949,0.502,1.422c0.012,9.275,0.189,18.57,3.35,27.406c0.204,0.569,0.87,0.734,1.517,0.635
	c-0.161,0.775-0.349,1.561-0.58,2.358c-2.702,9.349-8.796,17.356-12.213,26.432c-0.239,0.636,0.08,1.021,0.577,1.179
	c-1.6,20.068-9.735,38.979-10.648,59.142c0,0.007,0.002,0.012,0.001,0.019c-20.299,5.122-41.982,4.083-62.535,1.22
	c-9.786-1.363-19.499-3.364-28.999-6.081c-5.966-1.706-12.174-3.678-17.558-6.868c-0.022-3.296,0.081-6.576,0.296-9.841
	c0.267-4.063,0.707-8.104,1.293-12.124c1.237-8.476,3.12-16.861,5.415-25.178c1.044-3.784,2.18-7.553,3.328-11.319
	c0.903-2.964,1.809-5.929,2.691-8.899c0.622-0.238,1.116-0.582,0.979-0.783c-0.15-0.221-0.283-0.443-0.426-0.665
	c-0.03-0.047-0.06-0.093-0.089-0.14c0.449-1.532,0.885-3.068,1.31-4.607c1.154-4.176,2.212-8.373,3.05-12.618
	c0.375-1.901,0.696-3.809,0.968-5.721c1.467-10.286,1.477-20.701,0.383-31.02c-0.382-3.598-0.891-7.184-1.527-10.748
	c-3.088-17.29-8.165-34.114-8.332-51.815c-0.002-0.277-0.872-0.271-1.658-0.069c-0.65,0.165-1.244,0.463-1.24,0.846
	c0.161,17.075,4.773,33.456,8.011,50.102c0.843,4.336,1.486,8.69,1.918,13.053c-0.58,0.132-1.122,0.372-1.251,0.694
	c-6.725,16.732-15.292,35.922-4.499,52.729c-2.236,7.619-4.738,15.185-6.84,22.803c-2.886,10.455-5.035,21.069-6.046,31.817
	c-0.637-0.753-1.272-1.505-1.911-2.259c-8.082-9.548-16.207-19.221-23.635-29.307c-1.937-2.63-3.827-5.287-5.653-7.979
	c-0.271-0.4-0.556-0.793-0.825-1.194c-1.186-1.773-2.17-3.62-3-5.514c-4.09-9.333-4.083-19.924-2.079-29.887
	c2.485-12.354,6.494-24.593,10.495-36.526c7.26-21.652,15.722-43.48,26.887-63.456c2.574-4.604,5.482-9.006,8.788-13.08
	c0.406-0.501,0.804-1.01,1.223-1.5c2.288-2.677,4.767-5.193,7.467-7.502c2.256-1.93,4.657-3.627,7.166-5.128
	c2.146-1.284,4.374-2.419,6.662-3.428c6.03-2.657,12.477-4.425,18.973-5.61c1.161-0.212,2.564-1.469,0.531-1.098
	c-2.779,0.507-5.494,1.131-8.153,1.851c0.005-0.034,0.016-0.067,0.016-0.104c-0.02-8.845,17.796-9.486,23.637-9.642
	c5.866-0.154,21.921,0.271,23.34,8.383c-4.398-0.658-8.807-0.91-13.156-0.565c-0.804,0.063-3.15,1.404-1.231,1.253
	c4.78-0.379,9.643-0.005,14.49,0.863c-0.021,1.025,1.56,1.021,2.405,0.468c1.782,0.378,3.559,0.821,5.327,1.312
	c4.139,1.146,8.224,2.561,12.194,4.091c3.398,1.309,6.715,2.697,9.902,4.069c13.309,5.731,22.916,14.32,29.466,27.313
	c3.802,7.54,6.417,15.702,9.352,23.603c3.271,8.807,6.451,17.646,9.446,26.549c5.849,17.391,10.718,35.111,13.751,53.218
	c-0.306,0.188-0.516,0.435-0.51,0.717c0.331,15.365-8.81,29.725-16.842,42.21c-5.988,9.308-10.267,19.689-15.931,29.19
	C319.102,474.474,318.522,474.764,318.52,475.139z M305.929,405.135c-1.452-4.962-2.061-10.048-2.312-15.183
	C305.214,394.933,306.305,399.832,305.929,405.135z M185.15,414.465c-7.063-14.249-1.515-29.938,4.23-44.27
	c0.235-0.585,0.47-1.168,0.704-1.749c0.013,0.171,0.021,0.342,0.032,0.513c0.809,11.638,0.106,23.315-2.324,34.858
	C187.041,407.39,186.132,410.935,185.15,414.465z M320.763,497.666c-0.349,0-0.646,0.098-0.883,0.247
	c0.742-6.88,1.316-13.773,1.479-20.698c0.008-0.334,0.015-0.669,0.021-1.003c0.418-0.666,0.831-1.335,1.235-2.011
	c5.376-8.982,9.615-18.71,14.992-27.669c7.957-13.257,17.967-27.356,17.818-43.473c0.413-0.188,0.708-0.436,0.665-0.699
	c-3.226-19.688-8.707-38.841-15.118-57.707c-3.229-9.501-6.715-18.914-10.225-28.313c-2.917-7.813-5.69-15.638-9.847-22.897
	c-5.961-10.412-14.82-17.021-25.22-22.013c0.258-0.2,0.43-0.466,0.43-0.786v-18.303h67.064c0,0.007-0.003,0.014-0.003,0.021v244.824
	c0,0.189,0.045,0.349,0.123,0.48H320.763z M473.294,497.666H405.79c0.194-0.187,0.32-0.418,0.32-0.689V112.633
	c0-0.107-0.017-0.203-0.043-0.292h67.266c-0.099,0.148-0.161,0.314-0.161,0.501v384.344
	C473.171,497.375,473.217,497.534,473.294,497.666z M423.788,64.029c2.658,1.716,4.358,4.743,7.118,6.322
	c0.458,0.262,1.703-1.67,2.555-2.523c1.003-1.003,2.007-2.007,3.01-3.01c2.111-2.111,4.222-4.223,6.333-6.334
	c0.706-0.705,3.553-0.688,2.338,0.527c-3.115,3.115-6.229,6.229-9.344,9.345c-1.298,1.298-3.098,4.205-5.312,4.043
	c-3.792-0.278-6.059-5.036-8.995-6.932C420.288,64.691,422.957,63.493,423.788,64.029z M353.15,191.882
	c-8.859-11.35-23.964-11.25-36.325-6.406c-0.505,0.062-1.005,0.176-1.205,0.302c-6.44,4.063-11.6,9.66-12.509,17.48
	c-0.786,6.761,2.548,13.229,7.073,18.007c10.137,10.7,25.49,9.866,36.905,1.96C357.283,216.165,361.153,202.135,353.15,191.882z
	 M310.906,217.974c-8.832-10.833-4.748-23.966,5.881-31.328c0.082-0.023,0.162-0.05,0.239-0.082
	c12.053-4.979,26.559-4.032,34.286,7.621c5.894,8.89,3.345,19.968-4.106,26.983C336.079,231.644,320.177,229.347,310.906,217.974z
	 M322.253,194.034c-0.376,0.067-0.71,0.159-0.864,0.259c-7.722,5.002-9.755,13.481-3.28,20.55c5.863,6.4,14.925,5.619,21.705,1.404
	c6.17-3.836,9.029-12.189,4.373-18.349C338.874,190.872,329.759,191.129,322.253,194.034z M339.795,214.319
	c-6.35,6.547-15.777,4.265-20.641-2.55c-4.345-6.088-1.745-12.885,3.825-16.862c6.833-2.715,14.563-1.913,18.84,4.558
	C345.025,204.315,343.649,210.347,339.795,214.319z M145.262,160.443c5.453-4.135,9.25-9.942,10.565-16.143
	c-0.128-0.124-0.233-0.278-0.27-0.5c-0.016-0.097-0.017-0.189-0.031-0.286l-0.007,0.001v-0.065c-0.232-1.638-0.205-3.198,0-4.721
	v-5.117c-0.791-2.792-2.17-5.517-4.22-8.061c-9.92-12.312-26.347-12.056-39.941-6.827c-0.567,0.063-1.178,0.199-1.392,0.333
	c-6.699,4.209-12.923,10.382-13.846,18.649c-0.885,7.925,2.395,15.165,7.783,20.838
	C115.081,170.315,132.832,169.868,145.262,160.443z M111.24,119.772c0.169-0.03,0.318-0.066,0.419-0.108
	c13.455-5.583,29.831-4.188,38.289,8.865c6.454,9.959,3.573,22.295-4.779,30.072c-12.628,11.76-30.882,9.191-41.111-4.04
	C94.593,142.318,99.286,127.857,111.24,119.772z M327.359,200.775c-0.447,0.086-0.887,0.25-1.249,0.484
	c-3.166,2.052-4.109,5.492-1.433,8.414c2.658,2.901,7.029,2.148,10.017,0.29c2.563-1.594,3.805-4.98,1.862-7.551
	C334.372,199.524,330.487,199.694,327.359,200.775z M333.205,209.21c-2.055,2.118-4.921,0.8-6.41-1.286
	c-1.568-2.197-0.836-4.684,1.128-6.203C332.522,200.104,336.924,205.375,333.205,209.21z M248.755,552.274
	c0.029,0.108,0.041,0.229,0.015,0.37c-0.001,0.009-0.003,0.019-0.005,0.027c-0.183,0.997-2.185,1.789-2.794,0.748
	c-1.028-1.757-1.092-4.639-1.492-6.588c-1.05-5.116-2.092-10.234-3.161-15.348c-1.127-5.392-2.258-10.785-3.511-16.149
	c-0.404-1.73-0.814-3.462-1.276-5.179c-2.214,14.896-3.892,29.861-5.114,44.873c-0.068,0.841-2.927,1.137-2.897,0.776
	c0.015-0.177,0.031-0.354,0.045-0.531c1.377-16.78,3.322-33.504,5.955-50.135c0.137-0.865,2.943-1.066,2.897-0.776
	c-0.039,0.245-0.074,0.49-0.113,0.735c1.747,0.561,2.039,3.884,2.401,5.322c1.296,5.146,2.409,10.339,3.509,15.529
	c1.268,5.979,2.494,11.966,3.721,17.953c0.425,2.077,0.816,6.391,1.578,8.016C248.632,552.008,248.716,552.127,248.755,552.274z
	 M159.105,230.412c-1.082-13.537-12.309-23.405-24.906-26.056c-0.037-0.116-0.185-0.214-0.498-0.271
	c-2.854-0.526-5.685-0.628-8.435-0.363c-1.676,0.12-3.34,0.377-4.973,0.784c-0.325,0.081-0.554,0.196-0.737,0.319
	c-11.469,3.393-20.524,13.383-22.065,26.048c-1.002,8.245,3.22,15.464,8.01,21.752c5.705,7.487,10.085,14.191,8.858,24.014h-1.502
	c-1.017,0-2.758,1.415-1.509,1.644c-0.934,0.487-1.751,1.154-2.185,2.131c-0.725,1.628,0.782,3.12,2.045,3.942
	c-0.875,0.48-1.633,1.13-2.045,2.058c-0.682,1.533,0.613,2.944,1.822,3.791c-0.185,0.331-0.047,0.612,0.754,0.612h4.75
	c3.132,10.259,19.289,9.363,23.107,0h0.144c0.698,0,1.739-0.668,1.92-1.161c0.563,0.046,1.228-0.13,1.66-0.39
	c1.43-0.86,2.942-2.012,2.925-3.839c-0.012-1.253-1.124-2.073-2.265-2.584c1.198-0.812,2.28-1.87,2.265-3.416
	c-0.017-1.767-2.218-2.688-3.61-3.067c-0.132-0.036-0.272-0.047-0.412-0.055c0.022-0.069,0.035-0.141,0.025-0.215
	c-1.243-9.824,3.093-16.573,8.833-24.021C155.999,245.686,159.769,238.72,159.105,230.412z M119.669,290.816h17.037
	C133.52,297.84,122.621,297.834,119.669,290.816z M143.276,279.781c0.328,0.993-0.352,1.901-1.121,2.515
	c-0.538-0.013-1.104,0.155-1.557,0.394c-0.271,0.144-0.983,0.724-0.314,0.906c1.228,0.335,2.561,0.879,2.993,2.186
	c0.407,1.232-0.736,2.342-1.678,2.908c-0.148,0.089-0.405,0.274-0.523,0.462c-0.069-0.006-0.134-0.013-0.217-0.013h-21.927
	c-0.431-0.309-1.175-0.267-1.762,0h-3.503c-0.824-0.56-1.537-1.255-1.736-2.28c-0.246-1.265,0.991-2.04,2.02-2.32
	c0.311-0.085,1.438-0.43,1.299-0.948c-0.106-0.397-0.809-0.336-1.27-0.247c-0.952-0.594-1.825-1.331-2.049-2.484
	c-0.246-1.265,0.991-2.04,2.02-2.32c0.124-0.034,0.377-0.11,0.628-0.222h25.163c0.393,0,0.892-0.213,1.288-0.485
	C142.01,278.184,142.932,278.737,143.276,279.781z M133.746,250.086c1.338-0.968,3.199-1.992,3.761,0.218
	c0.449,1.765-0.911,3.112-2.563,3.173c-0.606,0.022-1.077,0.325-1.323,0.689c-0.167,0.146-0.27,0.313-0.271,0.492
	c-0.035,7.33-0.441,14.65-0.492,21.98h-8.809c0.406-0.193,0.705-0.481,0.705-0.82v-20.439c0.533-0.492,0.712-1.137-0.06-1.34
	c-0.242-0.568-1.234-0.585-1.982-0.292c-2.072-0.472-3.936-1.679-3.299-4.173c0.837-3.279,3.93-0.747,5.056,0.775
	c0.71,0.96,2.492,0.18,2.794-0.749c0.281-0.862,1.308-3.767,2.672-3.487c1.455,0.299,1.519,2.381,1.401,3.491
	C131.204,250.841,133.171,250.501,133.746,250.086z M139.326,276.639h-3.576c0.037-7.137,0.418-14.267,0.483-21.402
	c2.576-0.688,4.658-2.788,4.17-5.709c-0.531-3.183-3.67-2.907-6.178-1.918c-0.276-1.837-1.374-3.345-3.536-3.514
	c-2.415-0.189-4.139,1.383-5.265,3.309c-2.602-1.94-6.221-2.259-8.3,0.992c-2.552,3.991,1.139,6.637,4.719,7.382v20.358
	c0,0.219,0.085,0.382,0.22,0.502h-5.042c0.12-0.112,0.203-0.234,0.22-0.365c0.835-6.598-0.505-12.328-4.029-17.944
	c-3.617-5.766-8.473-10.479-11.15-16.846c-7.894-18.778,10.513-39.513,29.833-35.946c0.014,0.003,0.033,0.002,0.048,0.004
	c15.152,2.95,27.68,18.47,23.358,34.342c-1.907,7.002-7.286,12.33-11.322,18.131C140.049,263.66,138.516,269.836,139.326,276.639z
	 M115.318,133.401c-1.063-1.063,1.67-2.281,2.645-1.308c2.65,2.65,5.3,5.3,7.95,7.949c2.52-2.52,5.039-5.039,7.559-7.559
	c0.706-0.706,3.553-0.688,2.338,0.527c-2.822,2.821-5.643,5.643-8.464,8.464c2.873,2.873,5.745,5.746,8.618,8.618
	c1.063,1.063-1.67,2.282-2.645,1.308c-2.65-2.649-5.3-5.3-7.95-7.949c-2.52,2.52-5.039,5.039-7.559,7.56
	c-0.706,0.705-3.553,0.688-2.338-0.527c2.822-2.822,5.643-5.644,8.464-8.465C121.063,139.146,118.19,136.274,115.318,133.401z" fill="#0984E3"></path>
</svg>