<?xml version="1.0" standalone="no"?>
<svg version="1.1" id="Layer_1" xmlns="http://www.w3.org/2000/svg" xmlns:xlink="http://www.w3.org/1999/xlink" x="0px" y="0px" width="595.276px" height="595.276px" viewBox="0 0 595.276 595.276" enable-background="new 0 0 595.276 595.276" xml:space="preserve">
<path id="color_x5F_7" fill-rule="evenodd" clip-rule="evenodd" fill="#e96257" d="M258.933,139.597
	c-12.343,0.181-24.613,5.584-33.017,14.72c-9.921,10.785-14.121,26.542-10.916,40.817c4.128,18.388,20.559,33.344,39.78,35.299
	c13.224,1.344,26.814-3.353,36.491-12.759l-32.191-32.19c-0.169-0.213-0.198-0.394-0.147-0.533V139.597L258.933,139.597z"></path>
<path id="color_x5F_6" fill-rule="evenodd" clip-rule="evenodd" fill="#fefefb" d="M330.628,418.625h-10.08
	c-10.245-6.071-17.131-17.102-18.023-28.81l0.03,0.002c8.553,0.698,16.754,4.434,22.91,10.482c0.003,0.004,0.007,0.007,0.011,0.01
	c0.652,5.097,2.146,10.077,4.505,14.672c0.604,1.176,1.28,2.538,1.895,3.478l-20.35-20.35c-0.151-0.133-0.188-0.121-0.275-0.14
	c-0.485-0.046-0.731,0.509-0.432,0.847L330.628,418.625L330.628,418.625z M341.554,418.625h-0.026
	c3.285-5.174,5.523-11.017,6.521-17.067c0.076-0.458,0.144-0.918,0.205-1.378c6.128-5.964,14.313-9.717,22.818-10.365l-0.003,0.035
	c-0.949,11.611-7.702,22.496-17.635,28.547c-0.204,0.122-0.242,0.144-0.385,0.228h-10.08l19.809-19.809
	c0.275-0.311,0.096-0.787-0.307-0.851c-0.164-0.005-0.214-0.02-0.4,0.144L341.554,418.625L341.554,418.625z M340.337,418.625
	c10.463-16.067,9.366-38.855-3.539-53.891c-0.145,0.169-0.289,0.339-0.432,0.51c-5.319,6.408-8.841,14.265-9.995,22.492
	c-0.568,4.045-0.564,8.16-0.019,12.203c0.083,0.17,0.092,0.298,0.054,0.389c0.932,6.489,3.259,12.783,6.853,18.297h3.039v-38.652
	c0.038-0.434,0.149-0.531,0.587-0.493c0.36,0.097,0.384,0.162,0.413,0.493v38.652L340.337,418.625L340.337,418.625z
	 M180.371,371.762h-0.403c-1.326-11.891-2.585-23.792-4.038-35.668c-0.782-5.827-5.954-10.23-11.602-10.33
	c-17.723-0.104-35.449-0.314-53.173-0.222v-49.377h26.379c0.156,0.1,0.342,0.12,0.486,0h50.069c-6.025,2.628-9.63,9.659-7.97,15.876
	c0.139,0.521,0.348,1.151,0.597,1.578c-0.009,0.066-0.005,0.136,0.015,0.208l11.618,27.471l-0.01,50.458
	C188.35,371.759,184.361,371.762,180.371,371.762L180.371,371.762z M204.627,283.707c-0.058-0.134-0.06-0.139-0.124-0.282
	c-2.777-6.028-10.714-9.019-16.804-6.071c-5.653,2.735-8.567,10.016-6.046,16.085c3.844,9.089,7.616,18.209,11.444,27.304
	c0.131,0.064,0.216,0.17,0.242,0.431v0.143c2.531,6.009,5.088,12.006,7.707,17.976c2.41,5.361,8.736,8.583,14.46,7.349
	c3.559-0.767,6.72-3.114,8.519-6.305c7.929-14.367,15.779-28.781,23.418-43.305l-17.513-9.598l-14.274,24.517l4.181,11.846
	c0.138,0.536-0.693,0.884-0.943,0.333L204.627,283.707L204.627,283.707z M110.155,276.19c-0.855,0.058-2.66,0.251-4.228,0.869
	c-4.768,1.88-8.132,6.782-8.165,11.999v36.618c4.131-0.063,8.262-0.104,12.393-0.128V276.19z M436.122,305.769l2.943,0.001
	c0.067-0.017,0.138-0.015,0.208,0l12.934,0.002c0.003,0,0.005,0,0.008-0.001c3.922-0.181,7.856-0.181,11.778,0
	c0.007,0.001,0.014,0.003,0.021,0.004l9.931,0.002v-12.866c-12.113,0.053-24.225,0.035-36.334-0.195
	c-0.51-0.017-1.009-0.102-1.489-0.248L436.122,305.769L436.122,305.769z M473.945,250.486v19.772l-25.636,0.99
	c0,0-0.123-0.092-0.28-0.192c-2.473-1.519-4.957-3.019-7.464-4.482c-1.69-0.929-3.338-0.452-4.45,0.615l0.007-16.703H473.945
	L473.945,250.486z M259.933,183.923l31.338-31.338c-8.211-8.059-19.654-12.785-31.249-12.988l-0.089-0.001L259.933,183.923
	L259.933,183.923z"></path>
<path id="color_x5F_5" fill-rule="evenodd" clip-rule="evenodd" fill="#ffd2bb" d="M249.363,293.369
	c2.3-4.398,4.578-8.807,6.833-13.228c1.174-2.374,0.213-5.537-2.125-6.845c-2.999-1.626-5.998-3.253-9.027-4.823
	c-1.716-0.837-3.938-0.185-4.928,1.467l-3.787,6.505c-0.775,1.014-1.209-0.943-1.743-2.305c-0.873-2.071-4.332-2.441-5.426-0.167
	c-0.347,0.722-0.38,1.574-0.102,2.34l2.806,7.432c0.037,0.144,0.027,0.288-0.035,0.429l-1.395,2.396l17.474,9.576
	c0.355-0.676,0.71-1.352,1.064-2.028C248.793,293.854,249.017,293.464,249.363,293.369z M454.911,271.994l-6.748,0.261
	c-0.37-0.031-0.115,0-0.665-0.352c-2.526-1.551-4.944-3.177-7.56-4.53c-1.584-0.77-3.725,0.134-4.197,1.883
	c-0.24,0.891-0.031,1.88,0.54,2.617c0,0,0.56,0.689-0.654,0.911c-1.672,0.348-2.964,1.874-3.026,3.591
	c-0.041,3.435-0.064,6.872,0.001,10.307c0.083,2.644,2.423,4.984,5.101,5.035c5.736,0.036,11.472,0.063,17.208,0.08L454.911,271.994
	L454.911,271.994z M164.614,275.165H138.28l1.689-18.13l14.916-7.46c1.761,1.436,4.167,2.079,6.327,1.361
	c1.234-0.428-0.179-0.997-0.179-0.997c-1.986,0.717-4.27,0.268-5.813-1.12c-4.12-3.705-0.276-10.302,4.302-9.956
	c0.913,0.083,1.08-0.407,0.814-0.758c-0.238-0.313-0.627-0.245-1.137-0.26l3.79-8.727l13.588-1.238l0.537,23.78
	c0.098,6.091-5.332,11.128-11.162,10.889c-0.247-0.013-0.493-0.027-0.739-0.041c-0.009-0.001-0.018-0.003-0.027-0.004
	c-0.026-0.002-0.051-0.002-0.074-0.001c-3.982-0.223-7.961-0.488-11.941-0.729c-0.64,0.014-0.606,0.919-0.061,0.998l11.526,0.7
	C164.623,267.37,164.455,271.271,164.614,275.165L164.614,275.165z M332.907,238.352c-1.548,1.082-3.106,2.15-4.64,3.253
	c-1.498,1.135-1.937,3.355-0.969,4.977c1.84,2.919,3.698,5.829,5.628,8.689c1.491,2.15,4.656,2.854,6.922,1.514
	c1.683-1.024,3.345-2.082,4.999-3.152c0.04-0.037,0.087-0.068,0.14-0.091c0.389-0.252,0.778-0.504,1.166-0.757
	c0.971-0.667,1.332-2.027,0.811-3.089c-1.303-2.503-2.663-4.976-3.996-7.463l-9.075-3.331
	C333.538,238.766,333.206,238.579,332.907,238.352L332.907,238.352z M347.515,236.51c-3.766-1.383-7.516-2.812-11.3-4.148
	c-2.424-0.786-5.275,2.621-3.081,4.884c0.293,0.303,0.646,0.531,1.035,0.69c3.761,1.435,7.556,2.776,11.335,4.163
	c0.52,0.225,0.316,1.14-0.345,0.939l-0.777-0.285c1.165,2.16,2.341,4.315,3.475,6.492c0.734,1.498,0.233,3.423-1.148,4.371
	c-0.258,0.169-0.517,0.337-0.776,0.505c0.813,0.951,1.586,1.935,2.366,2.913l9.203-15.011L347.515,236.51L347.515,236.51z
	 M474.039,205.619h-25.311c0.013-3.574,0.161-7.151,0.018-10.721c3.815-0.566,7.624-1.17,11.437-1.752
	c0.67-0.16,0.41-1.027-0.151-0.989l-11.849,1.809c-0.059,0.002-0.112,0.01-0.158,0.024l-0.511,0.078
	c-6.027,0.88-11.721-3.857-12.233-9.669c-0.597-7.971-1.092-15.949-1.637-23.923l31.932-3.233l4.95,12.443
	c0.003,0.007,0.006,0.013,0.01,0.019c0.03,0.072,0.08,0.139,0.149,0.192c0.169,0.131,0.418,0.092,0.418,0.092
	c3.113-0.719,6.292,1.425,6.925,4.371c0.843,3.924-3.062,7.521-6.721,6.809c-0.891-0.185-1.065,0.135-0.974,0.516
	c0.062,0.256,0.36,0.367,0.36,0.367c0.574,0.15,1.163,0.217,1.749,0.209L474.039,205.619L474.039,205.619z"></path>
<path id="color_x5F_4" fill-rule="evenodd" clip-rule="evenodd" fill="#78d0fe" d="M176.915,226.852
	c0.093-0.111,0.211-0.236,0.358-0.376c3.591-3.498,5.15-8.841,3.719-13.782l-0.005-0.016c-10.086-1.351-20.164-2.76-30.258-4.052
	c-0.171-0.02-0.171-0.02-0.342-0.038c-6.846-0.633-13.704,3.982-15.503,10.879l-0.125,0.226c0,0-0.013-0.01-0.647,0.704
	c-6.242,7.185-6.918,18.399-1.225,26.345l6.766,9.333l14.462-7.223c-1.288-1.395-2.029-3.282-1.704-5.33
	c0.446-2.81,2.82-5.137,5.663-5.597l4.116-9.477c0.082-0.155,0.137-0.252,0.413-0.299L176.915,226.852L176.915,226.852z
	 M465.262,249.486h-12.85l3.387-32.961h6.076L465.262,249.486L465.262,249.486z M291.979,153.291l-31.838,31.839l31.838,31.838
	c3.726-3.793,6.69-8.278,8.827-13.141l-13.743-16.765c-0.234-0.347-0.131-0.843,0.459-0.812c0.12,0.029,0.226,0.088,0.315,0.178
	l13.41,16.36c4.587-11.165,4.885-24.173,0.143-35.376c-2.211-5.224-5.422-10.011-9.379-14.087L291.979,153.291z M461.957,215.525
	h-6.255c-1.036-2.969-1.971-5.976-3.109-8.906h12.514C464.046,209.584,462.892,212.518,461.957,215.525z M463.52,180.859
	c1.281,0.192,0.286,3.828-2.099,5.232c-1.947,1.146-4.622,0.819-6.24-0.765c-0.93-0.91-1.674-2.199-1.545-3.474
	c0.023-0.219,0.195-0.401,0.427-0.444c3.114-0.313,6.249-0.368,9.374-0.551C463.479,180.856,463.478,180.856,463.52,180.859z
	 M477.087,171.049c1.15-2.977,2.315-5.948,3.444-8.933c1.851-5.076-0.673-11.255-5.845-13.452c0,0-1.158-2.895-2.99-5.232
	c-3.398-4.334-8.902-6.865-14.443-6.662c-11.28,0.53-22.675,1.036-33.83,1.774c-1.227,0.116-1.88,1.381-1.484,2.805
	c1.108,3.868,3.105,7.616,6.244,10.095c0,0,0.564,0.398,0.145,0.856c-1.962,1.76-3.865,3.366-5.816,5.259
	c-1.166,1.191-1.017,3.15,0.364,4.411c3.064,2.797,6.519,5.312,10.341,6.911l-0.603-8.82c0.006-0.398,0.088-0.464,0.448-0.531
	l32.869-3.322c0.027,0.004,0.054,0.008,0.08,0.012c0.286,0.089,0.285,0.162,0.355,0.303l4.934,12.403
	c0.34-0.064,0.604-0.096,1.198-0.094C474.277,168.865,475.902,169.74,477.087,171.049L477.087,171.049z"></path>
<path id="color_x5F_3" fill-rule="evenodd" clip-rule="evenodd" fill="#000000" d="M213.169,468.068h-25.391v-48.917
	c9.528-0.018,19.057-0.038,28.585-0.052l0.885,5.848L213.169,468.068z M452.261,312.59L452.261,312.59c3.895,0,7.794,0.178,11.686,0
	h14.906v9.81c0.014,0.223,0.077,0.472,0.5,0.5h23.961v145.168h-25.392l-12.737-133.17c-0.028-0.108-0.076-0.198-0.14-0.271
	c-0.056-0.07-0.13-0.126-0.222-0.158c-0.009-0.004-0.018-0.008-0.027-0.011c-0.005-0.001-0.01-0.001-0.015-0.001
	c-0.014-0.003-0.027-0.006-0.042-0.008c-4.644-0.244-9.301-0.003-13.951-0.003c-0.564,0.029-0.881,0.954,0,1h6.539l-15.596,132.622
	H416.35l5.761-145.168h17.12c0.301-0.04,0.462-0.211,0.5-0.5v-9.81L452.261,312.59L452.261,312.59z M242.416,372.762
	c11.039,0.036,19.726,10.155,18.917,20.517c-2.108,24.942-4.709,49.84-7.069,74.76c-5.678-0.35-11.38,0.011-17.07,0.029
	l-7.411-48.983c2.819-0.002,5.638-0.003,8.457-0.003c0.304-0.049,0.456-0.227,0.5-0.5v-2.753
	c-0.041-6.391-5.512-11.719-11.686-11.836c-12.892-0.083-25.786,0.072-38.678-0.001c-2.473-0.044-4.702-2.016-5.057-4.45
	c-1.197-8.912-2.239-17.843-3.239-26.78H242.416L242.416,372.762z M300.701,444.441h72.194v19.862h-72.194V444.441z
	 M483.268,306.769c0.28-0.014,0.485-0.218,0.5-0.5v-13.414c6.515-0.044,13.031-0.097,19.546-0.138V314.4l0,0v7.504l-23.461-0.004
	v-15.131L483.268,306.769L483.268,306.769z M438.731,321.9H422.13v-77.563c0.041-0.133,0.047-0.237,0-0.322v-26.556
	c0.027-4.388,2.856-8.508,6.864-10.089c1.351-0.532,2.798-0.736,4.285-0.8c0.98,0.027,1.959,0.049,2.929,0.049
	c0.054-0.008,0.108-0.023,0.159-0.044c0.789,0.02,1.58,0.044,2.364,0.044v42.867h-3.109c-0.371,0.033-0.464,0.095-0.5,0.5v18.278
	c0.007,0.078,0.026,0.145,0.055,0.203c-0.537,1.079-0.643,2.348-0.078,3.414c-2.006,0.567-3.474,2.495-3.499,4.582
	c0,3.415-0.063,6.83,0.002,10.244c0.072,2.28,1.533,4.346,3.52,5.357v14.205c0.033,0.371,0.095,0.465,0.5,0.5h3.109L438.731,321.9
	L438.731,321.9z M451.759,306.769c-0.011,1.607-0.066,3.216-0.017,4.821h-12.011v-4.821H451.759z M464.466,306.769h9.979l0,0h4.408
	v4.821h-14.404C464.459,309.983,464.514,308.375,464.466,306.769z M516.301,219.011c-0.009-0.072-0.015-0.152-0.016-0.239
	c-0.211-6.648-6.388-12.478-13.113-12.137c-6.268,0.318-11.784,5.882-11.833,12.447l2.67,50.4l2.197-0.085
	c0.55,0.046,0.678,0.897,0.038,1l-40.333,1.558V291.8c6.099,0.017,12.198,0.023,18.297,0.019c0.159-0.082,0.359-0.087,0.511-0.001
	c2.74-0.002,5.481-0.006,8.221-0.013c0.084-0.062,0.206-0.094,0.38-0.085c0.082,0.013,0.156,0.042,0.219,0.084
	c6.607-0.017,13.214-0.046,19.821-0.087c6.797-0.127,12.884-5.997,12.929-13.093v-59.53
	C516.292,219.065,516.297,219.037,516.301,219.011L516.301,219.011z M428.793,206.449c-3.041-0.042-6.005,0.071-8.698,0.788
	c-4.964,1.323-9.282,4.829-11.646,9.424l-21.012,41.296c-0.247,0.372-0.45,0.309-0.688,0.211l-13.453-7.426
	c-0.089-0.013-0.174-0.055-0.243-0.135l-14.675-8.1l-9.652,15.744c0.014,0.443-0.096,0.898-0.299,1.308
	c8.365,5.107,16.708,10.251,25.08,15.348c0.03,0.005,0.062,0.012,0.096,0.022c0.056,0.036,0.105,0.077,0.146,0.125
	c2.878,1.752,5.76,3.498,8.648,5.236c6.978,4.079,16.783,1.755,21.035-5.506l17.606-30.494c0.01-8.996,0.037-17.991,0.093-26.986
	C421.221,212.574,424.409,208.216,428.793,206.449L428.793,206.449z M498.875,206.619c-4.879,2.025-8.365,6.863-8.532,12.127
	c-0.001,0.09,0,0.171,0.006,0.245c-0.004,0.039-0.007,0.082-0.009,0.129l2.669,50.401l-9.241,0.357v-19.892
	c-0.02-0.334-0.184-0.449-0.44-0.496c-1.16-0.07-2.321-0.086-3.484-0.079l0.009-42.792L498.875,206.619L498.875,206.619z
	 M373.588,121.927c1.229-0.015,2.458-0.03,3.686-0.046c1.195-0.045,2.228-1.07,2.274-2.273c0.046-3.726,0.046-7.452,0-11.177
	c-0.046-1.198-1.07-2.228-2.274-2.274c-78.533-0.998-157.078,0-235.618,0c-1.218,0.015-2.291,1.049-2.337,2.276
	c-0.046,3.725-0.047,7.45,0,11.175c0.046,1.197,1.07,2.227,2.274,2.273c1.205,0.015,2.41,0.031,3.616,0.045
	c0.128-0.069,0.289-0.049,0.44-0.012c0.011,0.006,0.021,0.012,0.032,0.018c75.828,0.931,151.674,0.931,227.502,0
	c0.093-0.038,0.212-0.05,0.367-0.026C373.563,121.913,373.576,121.92,373.588,121.927z"></path>
<path id="color_x5F_2" fill-rule="evenodd" clip-rule="evenodd" fill="#f2f2f2" d="M441.676,469.068v15.508
	c-0.044,2.395-2.13,4.469-4.486,4.542l-0.078,0.001h-30.035h-0.073c-0.675-0.013-1.343-0.141-1.97-0.392
	c-3.704-1.482-4.362-6.722-1.601-9.187c4.074-3.538,8.292-6.908,12.441-10.358c0.085,0,0.17-0.035,0.245-0.114L441.676,469.068
	L441.676,469.068z M372.895,465.303v6.512c-0.058,9.456-8.24,17.247-17.302,17.304h-37.586l-0.218-0.001
	c-9.205-0.172-16.809-8.035-17.082-16.872c-0.004-0.216-0.004-0.216-0.006-0.431v-6.512H372.895L372.895,465.303z M237.344,469.062
	l3.035,20.057h23.14l0.09-0.002c3.694-0.114,6.507-4.595,4.739-7.999c-0.335-0.645-0.797-1.21-1.351-1.678l-12.462-10.372
	L237.344,469.062L237.344,469.062z M213.443,469.068l11.989,9.979l1.216,8.036c-1.013,1.229-2.541,1.985-4.13,2.034l-0.093,0.002
	h-30.044h-0.06c-2.381-0.044-4.469-2.127-4.542-4.486c-0.096-5.187-0.001-10.376-0.001-15.565L213.443,469.068L213.443,469.068z
	 M503.314,469.068l-0.001,15.508c-0.043,2.395-2.13,4.469-4.485,4.542l-0.078,0.001h-30.035h-0.073
	c-0.675-0.013-1.343-0.141-1.97-0.392c-3.704-1.482-4.362-6.722-1.602-9.187c4.079-3.541,8.3-6.914,12.453-10.367
	c0.095,0.006,0.187-0.025,0.262-0.105L503.314,469.068L503.314,469.068z M331.749,419.625c0.067,0.016,0.13,0.014,0.189,0h40.957
	v23.816h-72.194v-23.816H331.749z M229.203,418.082h8.537c0-2.121,0.016-4.278-0.752-6.226c-1.564-3.965-5.601-6.781-9.947-6.863
	c-12.916-0.083-25.835,0.224-38.75-0.003c-2.935-0.085-5.58-2.456-5.973-5.381c-2.586-21.114-4.796-42.273-7.38-63.388
	c-0.69-5.143-5.311-9.363-10.621-9.457c-17.84-0.105-35.68-0.053-53.52-0.02c-0.123,0.04-0.248,0.045-0.356,0
	c-5.87,0.011-11.74,0.02-17.61,0.02c-2.891,0.019-5.426,2.764-5.144,5.698c2.699,24.606,5.582,49.192,8.588,73.763
	c0.872,6.498,6.705,11.817,13.479,11.857h41.164c0.059-0.009,0.128-0.009,0.209,0h36.024c0.028-0.002,0.057-0.002,0.089,0h29.344
	c0.059-0.009,0.128-0.009,0.208,0h12.203C229.054,418.073,229.123,418.073,229.203,418.082L229.203,418.082z M463.447,306.769v4.821
	h-10.686v-4.821H463.447z M482.768,292.861c-2.608,0.018-5.216,0.033-7.823,0.045v12.863h7.823V292.861L482.768,292.861z
	 M257.554,276.644c-0.356-1.719-1.392-3.298-2.931-4.185c-3.012-1.684-6.066-3.291-9.129-4.879
	c-0.623-0.304-1.302-0.477-1.994-0.505c-1.251-0.022-2.476,0.432-3.377,1.27c-0.338,0.315-0.488,0.451-0.868,1.087l-3.262,5.601
	l-0.444-1.177c-0.396-1.009-1.182-1.834-2.166-2.251c-2.845-1.204-5.957,1.661-5.451,4.379c0.037,0.202,0.036,0.251,0.167,0.615
	c-7.449-0.423-14.928,0.045-22.39,0.045c-0.366,0.024-0.588,0.388-0.462,0.691c0.061,0.149,0.102,0.285,0.462,0.309h22.783
	l2.353,6.232l-1.452,2.494c-0.085,0.067-0.135,0.161-0.153,0.263l-3.905,6.706c-5.406-0.28-10.828,0.002-16.243,0.015l-3.528-9.996
	c-0.028-0.062-0.045-0.112-0.074-0.156c-0.021-0.06-0.046-0.123-0.076-0.19c-2.114-4.666-7.004-7.814-12.114-7.91
	c-0.164-0.001-0.328,0-0.493,0.003c-0.305,0.01-0.607,0.03-0.906,0.06h-26.264c0.014-3.877,0.18-7.758,0.024-11.631l0.092,0.006
	c6.744,0.366,12.382-5.394,12.363-11.748c-0.129-8.078-0.363-16.153-0.546-24.23c4.226-3.631,5.898-9.636,4.445-14.926
	c-0.107-0.378-0.195-0.818-0.577-0.906l-30.406-4.074c-0.604-0.077-1.211-0.122-1.819-0.136c-1.1-0.012-2.186,0.097-3.241,0.315
	v-84.899c75.635,0.926,151.288,0.926,226.923,0v126.442l-24.93-13.762c-0.003-0.001-0.005-0.002-0.007-0.003
	c-0.02-0.01-0.041-0.019-0.063-0.029c-3.786-1.39-7.555-2.827-11.359-4.169c-0.379-0.123-0.771-0.193-1.17-0.209
	c-2.372-0.031-4.269,2.13-4.053,4.354c0.036,0.37,0.129,0.731,0.269,1.074c-1.154-1.419-2.304-2.84-3.481-4.24
	c-0.462-0.521-1.125-0.837-1.824-0.865c-0.455-0.007-0.864,0.11-1.213,0.313l-23.053-28.123c3.63-8.396,4.842-17.823,3.233-26.822
	c-1.653-9.239-6.192-17.911-12.909-24.667c-0.012-0.01-0.024-0.019-0.037-0.027l-0.36-0.365
	c-8.657-8.396-20.276-13.111-32.203-13.244c-0.101-0.001-0.192-0.001-0.273,0.002l-0.03-0.004c-6.76,0.022-13.53,1.487-19.657,4.35
	c-14.188,6.629-24.536,20.791-26.505,36.265c-1.798,14.13,3.312,28.992,13.461,39.021c11.743,11.604,29.873,16.203,45.712,11.594
	c7.441-2.165,14.304-6.269,19.795-11.695c0.212-0.127,0.409-0.409,0.683-0.694c3.586-3.716,6.488-8.033,8.634-12.693l22.765,27.772
	c-0.65,0.871-0.773,2.142-0.086,3.05c1.306,1.633,2.59,3.286,3.963,4.864c-0.175,0.124-0.35,0.249-0.524,0.374
	c-1.992,1.509-2.445,4.374-1.166,6.403c1.864,2.878,3.676,5.791,5.594,8.633c1.791,2.583,5.581,3.392,8.262,1.806
	c0.438-0.266,0.874-0.535,1.309-0.805c0.923,1.129,1.836,2.266,2.775,3.382c0.234,0.265,0.514,0.483,0.836,0.632
	c0.979,0.455,1.91,0.153,2.556-0.479l25.056,15.292v17.69h-122.42c2.23-4.242,4.438-8.495,6.615-12.764
	c0.456-0.922,0.642-1.94,0.592-2.946h36.87c0.597-0.05,0.596-0.864,0.083-0.994l-0.083-0.006L257.554,276.644L257.554,276.644z
	 M482.768,250.486v19.431l-7.823,0.302v-19.733H482.768L482.768,250.486z M108.188,489.119h-11.4l10.627-70.247
	c0.711,0.125,1.434,0.196,2.164,0.209c3.066,0.017,6.132,0.033,9.197,0.046L108.188,489.119z M239.367,489.119h-11.399l-9.72-64.246
	c-0.003-0.083-0.01-0.147-0.03-0.199l-0.844-5.576c3.8-0.005,7.599-0.01,11.398-0.013L239.367,489.119z M184.437,419.157
	c-3.801,0.007-7.601,0.014-11.402,0.019l-10.582,69.943h11.4L184.437,419.157L184.437,419.157z M163.122,419.187
	c-3.8,0.003-7.599,0.005-11.399,0.005l10.149,67.085l5.7-37.676L163.122,419.187z M345.079,254.674
	c-0.844,0.545-1.69,1.086-2.54,1.621c0.912,1.087,1.75,2.237,2.69,3.3c0.606,0.649,1.778,0.613,2.32-0.126
	C348.456,258.231,346.558,256.406,345.079,254.674L345.079,254.674z M478.853,206.619v42.803c-1.47,0.021-2.94,0.064-4.408,0.064
	l0,0h-8.178l-3.432-33.4c1.115-3.156,2.356-6.271,3.349-9.467H478.853L478.853,206.619z M451.407,249.486h-11.676v-42.867h11.773
	c1.104,3.162,2.092,6.367,3.334,9.477L451.407,249.486L451.407,249.486z M331.485,238.124c-1.431-1.666-2.71-3.461-4.166-5.105
	c-0.956-1.027-3.54,0.2-2.319,1.898c1.28,1.689,2.678,3.286,4.029,4.919C329.845,239.262,330.666,238.694,331.485,238.124z"></path>
<path id="color_x5F_1" fill-rule="evenodd" clip-rule="evenodd" fill="#000000" d="M144.472,123.417
	c-0.973-0.012-1.945-0.024-2.918-0.036c-1.96-0.075-3.658-1.734-3.734-3.735c-0.048-3.75-0.047-7.5-0.001-11.25
	c0.073-1.96,1.761-3.665,3.739-3.738c78.578-0.987,157.176-1,235.754,0c1.959,0.074,3.658,1.703,3.735,3.735
	c0.049,3.882,0.453,7.842-0.029,11.641c-0.23,1.807-1.859,3.276-3.706,3.347c-0.972,0.012-1.944,0.024-2.917,0.036v126.218
	l12.174,6.72c6.874-13.51,13.69-27.051,20.624-40.531c3.345-6.367,10.206-10.61,17.457-10.705h8.287c0.01,0,0.019,0,0.028,0h6.266
	l0,0h7.969c-0.07-3.153,0.005-6.307,0.023-9.461c-2.643,0.075-5.137-0.303-7.353-1.57c-3.455-1.976-5.795-5.715-6.096-9.723
	l-0.958-14.016c-0.919-0.32-2.029-0.959-3.044-1.528c-3.484-1.954-7.498-3.743-9.195-7.374c-0.77-1.647-0.384-3.729,0.959-5.031
	c1.53-1.408,3.079-2.795,4.625-4.186c0,0,0.813,0.269-0.366-0.948c-2.737-2.881-4.841-6.473-5.507-10.349
	c-0.31-1.803,1.118-3.705,3.015-3.884c11.853-0.784,23.393-1.844,34.863-1.793c7.593,0.111,14.758,5.034,17.504,12.202
	c5.364,2.439,8.477,9.343,6.214,15.321l-3.532,9.159c1.457,2.377,1.724,5.498-0.167,7.987c-1.028,1.352-2.558,2.281-4.218,2.654
	l1.542,22.54h3.844l0,0h24.461l0.016,0.001c0.055-0.001,0.109-0.001,0.164,0c7.185,0.137,13.605,6.329,13.79,13.614
	c0.002,0.064-0.002,0.128-0.012,0.19c0.006,0.052,0.011,0.109,0.017,0.17c0,19.904,0.123,39.809-0.001,59.713
	c-0.132,7.057-5.797,13.428-12.974,14.308v28.684c0.253,0.284,0.204,0.659,0,0.975v3.668l0,0v142.126l0,0
	c0,5.368,0.096,10.736-0.002,16.102c-0.046,1.48-0.687,2.88-1.686,3.949h19.355c0.127,0.025,0.255,0.051,0.382,0.076l0.618,0.924
	l-0.618,0.924l-0.382,0.076h-23.717c-10.035,0.187-20.076,0.185-30.111,0h-31.527c-10.035,0.187-20.076,0.185-30.111,0h-51.421
	c-12.531,0.076-25.062,0-37.593,0h-0.002h-95.616c-10.017,0.063-20.037,0.181-30.053,0H68.115c-1.479-0.294-1-1-1-1l0.617-0.924
	l0.383-0.076h27.231l10.528-69.589c-5.638-1.596-10.265-6.488-11.087-12.614c-3.007-24.583-5.892-49.182-8.592-73.801
	c-0.353-3.669,2.762-7.276,6.545-7.351c1.174-0.008,2.348-0.015,3.522-0.022c-0.004-12.124-0.075-24.247,0.002-36.371
	c0.142-7.506,6.606-14.156,14.387-14.206h0.004l0,0h26.165l1.646-17.671l-6.796-9.375c-6.068-8.469-5.463-20.931,1.828-28.776
	c0.251-0.92,0.35-1.159,0.57-1.713c1.79-4.512,5.723-8.013,10.404-9.428L144.472,123.417L144.472,123.417z M541.137,488.619
	c1.015,0.041,1.186,1.952,0,2c-0.966,0.013-2.053,0.231-2.57-0.307c-0.525-0.547-0.142-1.659,0.695-1.693
	C539.887,488.611,540.512,488.611,541.137,488.619z M534.034,488.62c0.981,0.073,1.313,1.901,0,1.998
	c-2.099,0.051-4.2,0.051-6.299,0c-1-0.074-1.231-1.907,0-1.998C529.834,488.569,531.935,488.569,534.034,488.62z M61.777,488.62
	c0.998,0.046,1.272,1.939,0,1.999c-1.841,0.028-4.507-0.242-3.229-1.668C59.112,488.323,60.548,488.6,61.777,488.62z
	 M185.969,419.655h-0.09l-10.433,68.964h12.524c-1.028-1.099-1.682-2.55-1.692-4.097v-15.954l0,0v-48.914L185.969,419.655
	L185.969,419.655z M420.535,248.161l-15.806,27.377c-4.476,7.642-15.251,10.764-23.276,5.934l-7.058-4.307v16.689
	c-0.083,0.841-0.26,0.927-1,1H250.251c-8.138,15.443-16.557,30.741-24.854,46.1c-5.063,9.174-21.007,9.957-25.824-1.287
	l-5.734-13.56v45.147c16.238-0.015,32.475-0.043,48.713,0.009c11.247,0.112,21.339,10.507,20.253,22.405l-7.044,74.469
	c4.092,3.403,8.204,6.781,12.27,10.214c2.893,2.512,2.794,7.487,0.175,10.268h41.703c-6.142-3.109-10.662-9.507-10.708-16.8v-52.694
	c0.063-0.792,0.26-0.941,1-1h16.837c-9.166-6.576-15.229-17.153-16.037-28.577c0,0-0.024-1.283,1.049-1.27
	c8.316,0.541,16.338,3.834,22.657,9.285c-0.815-12.052,2.946-24.477,11.005-33.866c0,0,0.468-0.768,1.227-0.714
	c1.33,0.287,2.644,2.71,3.93,4.559c6.039,8.682,8.74,19.49,7.983,30.051c6.208-5.367,14.114-8.665,22.28-9.287
	c0,0,0.191-0.061,0.626-0.019c1.47,0.299,0.765,2.749,0.428,4.821c-1.616,9.945-7.4,19.153-15.611,25.017h16.82
	c0.052,0.005,0.105,0.009,0.157,0.013c0.708,0.17,0.79,0.315,0.843,0.987v52.694c-0.043,7.031-4.363,13.615-10.625,16.8h38.767
	c-2.646-2.669-3.422-7.399,0.048-10.329l12.263-10.206l5.782-145.704C420.63,297.64,420.522,272.9,420.535,248.161L420.535,248.161z
	 M107.835,419.443l-10.466,69.176h10.388l10.438-68.995c-2.874-0.012-5.748-0.027-8.622-0.043
	C108.989,419.57,108.408,419.524,107.835,419.443z M437.107,488.619l0.071-0.001c2.099-0.065,3.959-1.913,3.998-4.048v-15.002
	h-24.985c-4.143,3.449-8.358,6.813-12.428,10.347c-2.899,2.589-1.297,8.619,3.247,8.704h0.068H437.107L437.107,488.619z
	 M224.966,479.31l-11.704-9.742h-24.984c0,5.018-0.092,10.036,0.001,15.053c0.065,2.103,1.926,3.959,4.048,3.998h0.056h30.036
	l0.086-0.001c1.415-0.044,2.929-1.199,3.601-1.777L224.966,479.31L224.966,479.31z M183.856,419.658
	c-3.464,0.007-6.927,0.012-10.391,0.017l-10.43,68.944h10.388L183.856,419.658L183.856,419.658z M120.217,419.633l-10.437,68.986
	h50.929l-10.427-68.928C140.26,419.689,130.238,419.673,120.217,419.633L120.217,419.633z M228.342,419.586
	c-3.462,0.002-6.924,0.006-10.386,0.011l8.889,58.761c0.278,0.382,0.284,0.698,0.141,0.931l1.412,9.33h10.388L228.342,419.586
	L228.342,419.586z M372.395,465.803h-71.194v6.01c0.008,1.177,0.045,1.406,0.129,2.075c0.983,7.917,8.193,14.576,16.465,14.73
	l0.214,0.001h37.582c8.808-0.055,16.747-7.615,16.804-16.806L372.395,465.803L372.395,465.803z M254.354,469.568h-16.427
	l2.882,19.051h22.704l0.084-0.001c3.917-0.122,6.466-5.854,3.134-8.748L254.354,469.568L254.354,469.568z M498.745,488.619
	l0.071-0.001c2.099-0.065,3.958-1.913,3.997-4.048l0.001-15.002h-24.985c-4.143,3.449-8.358,6.813-12.428,10.347
	c-2.899,2.589-1.298,8.619,3.247,8.704h0.068H498.745L498.745,488.619z M476.422,468.138l-12.644-132.192h-4.999l-15.603,132.681
	c0.001,5.348,0.096,10.696-0.002,16.043c-0.046,1.48-0.687,2.88-1.686,3.949h22.687c-2.646-2.669-3.422-7.399,0.048-10.329
	L476.422,468.138z M162.692,419.687c-3.463,0.003-6.925,0.005-10.388,0.005l9.568,63.242l5.194-34.333L162.692,419.687z
	 M214.669,468.137l9.847,8.196l-6.536-43.201L214.669,468.137L214.669,468.137z M215.933,419.6
	c-9.218,0.014-18.437,0.033-27.655,0.05v47.918h24.436l4.03-42.607L215.933,419.6z M452.261,313.09h-12.03v9.31
	c-0.083,0.841-0.261,0.927-1,1h-16.64l-5.721,144.168h24.417l15.478-131.622h-5.977c-1.048-0.039-1.424-1.948,0-2
	c4.657,0,9.318-0.168,13.972,0.002c0.014,0.002,0.027,0.004,0.041,0.006c0.005,0,0.01,0,0.015,0c0.012,0.003,0.024,0.006,0.037,0.01
	c0.063,0.014,0.123,0.035,0.179,0.061c0.344,0.146,0.565,0.418,0.651,0.826l12.693,132.717h24.438V323.4h-23.461
	c-0.562-0.028-0.974-0.456-1-1v-9.31h-14.407C460.053,313.22,456.156,313.09,452.261,313.09L452.261,313.09L452.261,313.09z
	 M242.415,373.262h-61.776c0.98,8.747,2.004,17.488,3.175,26.211c0.321,2.198,2.334,3.979,4.568,4.019
	c12.892,0.073,25.786-0.082,38.678,0.001c6.417,0.122,12.137,5.684,12.18,12.334v2.755c-0.098,0.867-0.496,0.943-1,1
	c-2.625,0-5.25,0.001-7.875,0.002l7.259,47.982c5.395-0.023,10.796-0.248,16.186-0.037c2.348-24.763,4.93-49.505,7.025-74.29
	C261.623,383.15,253.168,373.297,242.415,373.262L242.415,373.262z M301.201,444.941v18.862h71.194v-18.862H301.201z
	 M336.495,420.125h-35.294v22.816h71.194v-22.816h-19.126c-0.575,0.204-0.936,0.167-1.135,0h-10.075c-0.329,0.168-0.609,0.14-0.82,0
	h-3.818C337.159,420.342,336.806,420.302,336.495,420.125L336.495,420.125z M171.442,419.678c-2.243,0.003-4.485,0.006-6.728,0.008
	l3.364,22.23L171.442,419.678z M324.96,400.203c-0.777-0.493-1.688-1.268-2.518-1.942c-5.472-4.438-12.282-7.203-19.334-7.894
	l-0.034-0.003c1.046,11.281,7.701,21.837,17.611,27.761h8.736l-18.956-18.955c-0.346-0.379-0.297-0.521-0.292-0.73
	c0.012-0.541,0.492-0.988,1.067-0.975c0.385,0.043,0.398,0.07,0.639,0.291l17.879,17.878c-0.076-0.143-0.15-0.285-0.222-0.425
	C327.125,410.513,325.607,405.417,324.96,400.203L324.96,400.203z M340.073,418.125c0.041-0.07,0.085-0.142,0.133-0.216
	c9.968-15.69,8.902-37.574-3.359-52.345l-0.049-0.057c-12.023,14.318-13.752,36.301-3.266,52.618h2.266v-38.152
	c0.035-0.576,0.493-1.031,1.121-0.993c0.489,0.089,0.839,0.32,0.879,0.993v38.152H340.073L340.073,418.125z M352.912,418.125
	c1.388-0.82,1.793-1.114,2.675-1.748c8.352-6.005,13.923-15.708,14.932-25.969l0.004-0.044c-8.206,0.759-16.089,4.472-21.98,10.233
	c-0.706,5.235-2.276,10.353-4.725,15.058l17.899-17.899c0.327-0.3,0.338-0.319,0.819-0.287c0.765,0.121,1.156,1.088,0.595,1.701
	l-18.955,18.955L352.912,418.125L352.912,418.125z M185.052,417.582h52.188c0-6.125-3.91-11.97-10.205-12.089
	c-12.918-0.083-25.839,0.224-38.755-0.003c-3.174-0.092-6.033-2.655-6.457-5.818c-2.587-21.114-4.797-42.273-7.381-63.387
	c-0.659-4.908-5.064-8.932-10.131-9.021c-23.826-0.141-47.652,0-71.478,0c-2.615,0.017-4.903,2.497-4.648,5.147
	c2.698,24.602,5.581,49.184,8.586,73.751c0.84,6.26,6.45,11.382,12.984,11.42h9.227c0.111-0.018,0.243-0.017,0.405,0h52.85
	c0.11-0.018,0.243-0.017,0.404,0h12.007C184.758,417.564,184.891,417.565,185.052,417.582L185.052,417.582z M186.046,276.665
	h-74.391l-0.014,48.51c17.564-0.051,35.129-0.014,52.693,0.089c5.885,0.104,11.277,4.695,12.092,10.766
	c1.435,11.731,2.681,23.486,3.989,35.232c3.808,0,7.616-0.002,11.424-0.006l0.01-49.855l-11.578-27.38
	c-0.058-0.178-0.056-0.352-0.012-0.511c-0.611-1.14-1.072-3.019-1.093-4.755C179.108,283.873,181.895,279.232,186.046,276.665
	L186.046,276.665z M204.139,283.816c-0.031-0.057-0.062-0.118-0.091-0.185c-3.201-6.947-13.693-9.235-19.392-3.505
	c-3.33,3.349-4.386,8.679-2.541,13.12c3.813,9.019,7.557,18.068,11.355,27.093c0.275,0.143,0.335,0.364,0.369,0.835v0.042
	c2.517,5.974,5.06,11.938,7.664,17.875c2.316,5.151,8.396,8.248,13.898,7.062c3.42-0.737,6.458-2.992,8.187-6.06
	c7.849-14.22,15.619-28.486,23.184-42.859l-16.655-9.127l-13.913,23.896l4.105,11.628c0.55,1.941-1.477,1.628-1.886,0.665
	l-14.273-40.438C204.146,283.844,204.142,283.83,204.139,283.816L204.139,283.816z M109.655,276.733
	c-0.913,0.091-2.306,0.303-3.544,0.791c-4.583,1.807-7.817,6.513-7.849,11.536v36.171c3.798-0.021,7.596-0.038,11.393-0.05V276.733z
	 M502.814,293.22c-6.182,0.039-12.364,0.089-18.546,0.131v12.918c-0.021,0.547-0.456,0.98-1,1h-2.915v4.207
	c0.297,0.291,0.226,0.669,0,0.986v8.938l22.461,0.004V314.4l0,0V293.22z M433.217,207.081c-1.402,0.06-2.765,0.252-4.039,0.754
	c-3.815,1.504-6.522,5.387-6.548,9.625v26.578c0.016,0.095,0.017,0.197,0,0.306V321.4h15.601v-14.131h-2.609
	c-0.538-0.032-0.966-0.449-1-1v-13.912c-2.002-1.14-3.446-3.282-3.52-5.637c-0.065-3.42-0.002-6.84-0.002-10.26
	c0.025-2.099,1.349-4.066,3.304-4.873c0,0-0.04-1.34,0.372-2.756c-0.084-0.146-0.14-0.334-0.154-0.567v-18.278
	c0.033-0.538,0.45-0.966,1-1h2.609v-41.867c-0.613,0-1.23-0.015-1.846-0.03c-0.056,0.014-0.115,0.024-0.177,0.03
	C435.215,207.119,434.216,207.101,433.217,207.081L433.217,207.081z M451.242,307.269h-11.011v3.821h10.942
	C451.099,309.994,451.198,308.592,451.242,307.269z M464.967,311.09h13.386v-3.821h-3.908l0,0h-9.399
	C465.118,308.366,465.013,309.768,464.967,311.09z M453.261,307.269v3.821h9.686v-3.821H453.261z M210.152,294.854l5.179,14.674
	l8.544-14.674H210.152L210.152,294.854z M436.622,305.269l2.076,0.001c0.173-0.085,0.397-0.083,0.678,0l12.81,0.002
	c0.002,0,0.004,0,0.007,0c3.938-0.135,7.884-0.135,11.822,0c0.009,0,0.017,0.001,0.025,0.003l9.405,0.001v-11.863
	c-11.95,0.05-23.9,0.03-35.847-0.198c-0.33-0.01-0.656-0.048-0.976-0.11L436.622,305.269L436.622,305.269z M482.268,293.365
	c-2.275,0.014-4.549,0.028-6.823,0.039v11.865h6.823V293.365z M248.997,292.991c2.272-4.347,4.524-8.705,6.753-13.074
	c1.06-2.144,0.192-5.002-1.92-6.183c-2.993-1.623-5.987-3.247-9.01-4.814c-1.488-0.726-3.413-0.163-4.274,1.275l-3.785,6.501
	c-0.461,0.654-1.438,0.604-1.8-0.15c-0.899-2.381-2.694-5.109-4.827-3.076c-0.696,0.663-0.943,1.744-0.607,2.669l0.086,0.226
	c0.383,0.229,0.455,0.58,0.343,0.91l2.376,6.294c0.081,0.29,0.06,0.577-0.071,0.856l-1.137,1.953l16.578,9.085
	c0.281-0.535,0.561-1.07,0.841-1.605C248.531,293.518,248.676,293.177,248.997,292.991L248.997,292.991z M372.395,123.442
	c-75.302,0.918-150.621,0.918-225.923,0v83.792c0.9-0.15,1.82-0.224,2.749-0.214c0.628,0.014,1.253,0.061,1.876,0.141l30.407,4.073
	c0.79,0.164,0.776,0.501,0.993,1.268c1.481,5.393-0.191,11.516-4.422,15.282c0.183,8.001,0.413,16.001,0.541,24.003
	c0.019,6.488-5.621,12.38-12.449,12.267c0.083,3.536-0.011,7.074-0.029,10.611h25.745c0.301-0.03,0.606-0.05,0.912-0.06
	c0.171-0.003,0.341-0.004,0.511-0.002c5.364,0.099,10.459,3.395,12.636,8.367c0.006,0.013,0.011,0.027,0.014,0.042
	c0.025,0.052,0.051,0.112,0.08,0.18l3.409,9.661c5.203-0.016,10.408-0.199,15.606-0.02l3.695-6.346
	c0.03-0.229,0.127-0.43,0.327-0.562l1.22-2.095l-2.147-5.686h-22.437c-1.067-0.051-1.361-1.936,0-2
	c7.244,0,14.495-0.319,21.733-0.058l-0.002-0.01c-0.741-3.983,6.363-8.26,8.65-2.202l2.734-4.696
	c0.972-1.624,2.776-2.636,4.69-2.603c0.766,0.031,1.516,0.222,2.204,0.558c4.984,2.584,10.922,4.412,12.24,8.754
	c0.026,0.085,0.05,0.171,0.072,0.257h36.522c0.04,0.002,0.081,0.004,0.121,0.007c2.055,0.376,0.716,1.942-0.121,1.993H258.23
	c-0.047,0.922-0.281,1.837-0.693,2.671c-2.054,4.026-4.134,8.037-6.234,12.039h121.092l0.021-16.897l-24.453-14.923
	c-1.198,0.708-2.912,0.622-3.895-0.488c-0.797-0.948-1.755-2.05-2.416-3.009c-1.9,1.067-3.8,1.735-5.73,1.361
	c-4.385-0.851-6.791-6.724-9.836-11.426c-1.422-2.256-0.876-5.433,1.29-7.074l0.074-0.053c-2.363-2.605-4.905-5.115-4.047-7.381
	c0.065-0.171,0.146-0.334,0.241-0.487l-22.009-26.851c-2.092,4.465-4.933,8.652-8.551,12.357c-0.08,0.082-0.155,0.158-0.227,0.227
	c-0.393,0.871-1.652,1.619-2.647,2.482c-14.396,12.47-36.506,14.995-53.44,5.658c-16.4-9.042-26.363-28.604-23.996-47.206
	c2.836-22.289,22.964-40.977,46.656-41.052l0.094,0.009c0.068-0.005,0.14-0.008,0.215-0.007c11.721,0.131,23.342,4.71,31.939,12.802
	c0.204,0.193,0.408,0.388,0.609,0.584c0.14,0.137,0.261,0.261,0.362,0.377c0.227,0.177,0.426,0.41,0.632,0.623
	c12.712,13.253,16.294,33.934,9.256,51.092l22.661,27.646c0.345-0.128,0.715-0.194,1.092-0.189c1.821,0.072,3.317,1.98,4.837,4.061
	c0.007-2.222,1.373-4.421,4.252-4.383c0.448,0.017,0.89,0.096,1.318,0.235c3.807,1.343,7.581,2.781,11.371,4.173
	c0.174,0.072,0.298,0.137,0.388,0.201l10.091,5.57c0.315,0.073,0.509,0.194,0.619,0.342l13.229,7.303L372.395,123.442
	L372.395,123.442z M515.798,219c-0.007-0.068-0.012-0.14-0.013-0.216c-0.243-7.673-9.015-13.838-16.495-10.78
	c-4.363,1.784-7.409,6.268-7.451,11.067l2.644,49.906l1.877-0.071c0.976,0.222,1.104,1.838-0.097,1.99l-39.852,1.54v18.865
	c5.972,0.016,11.945,0.022,17.917,0.018c0.145-0.028,0.292-0.029,0.43-0.001c2.683-0.002,5.365-0.006,8.048-0.013
	c0.145-0.062,0.323-0.093,0.537-0.085c0.109,0.013,0.212,0.041,0.308,0.083c6.568-0.016,13.135-0.045,19.703-0.086
	c6.537-0.122,12.392-5.76,12.435-12.594v-59.529C515.792,219.061,515.795,219.03,515.798,219L515.798,219z M454.411,272.514
	l-6.229,0.24c-0.719-0.037-0.561-0.179-0.95-0.428c-2.454-1.507-4.919-2.996-7.406-4.447c-1.974-1.085-4.754,1.699-3.117,3.728
	c0,0,0.574,1.344-1.06,1.683c-1.418,0.33-2.496,1.635-2.548,3.097c-0.041,3.427-0.064,6.856,0.001,10.282
	c0.075,2.388,2.188,4.502,4.607,4.548c5.567,0.035,11.134,0.061,16.702,0.079L454.411,272.514L454.411,272.514z M426.561,207.041
	c-4.008,0.131-7.825,0.719-11.079,2.714c-2.793,1.713-5.083,4.208-6.588,7.134l-21.012,41.295c-0.441,0.704-0.679,0.729-1.374,0.422
	l-27.953-15.431l-9.287,15.148c0.041,0.394,0.023,0.774-0.067,1.124c8.165,4.986,16.309,10.005,24.481,14.981
	c0.007,0.001,0.015,0.003,0.022,0.004c0.129,0.058,0.241,0.129,0.335,0.213c2.867,1.745,5.737,3.484,8.613,5.215
	c6.75,3.946,16.231,1.703,20.348-5.327l17.539-30.378c0.009-8.952,0.037-17.905,0.092-26.857
	C420.71,213.13,423.084,209.256,426.561,207.041z M165.328,262.024c3.735-0.157,7.041-1.1,9.228-3.988
	c1.37-1.808,2.095-4.078,2.058-6.366l-0.525-23.243l-12.759,1.162l-3.421,7.876c1.355,0.46,1.344,2.058-0.428,1.897
	c-0.188-0.015-0.375-0.016-0.56-0.005c-0.287,0.255-0.58,0.262-0.828,0.13c-3.501,0.902-5.89,6.02-2.491,9.003
	c1.41,1.237,3.483,1.62,5.261,0.978c0,0,0.708-0.147,1.084,0.274c1.338,1.493-3.551,2.382-6.997,0.359l-14.509,7.257l-1.612,17.307
	h25.278c-0.085-3.573,0.011-7.148,0.028-10.723l-11.055-0.671c-1.038-0.124-1.396-2,0.121-1.996
	c3.825,0.232,7.919,0.854,11.628,0.766c0.101-0.026,0.215-0.039,0.343-0.039C165.225,262.006,165.278,262.013,165.328,262.024
	L165.328,262.024z M473.445,269.777v-18.791h-36.823l-0.006,15.095c0.615-0.387,1.402-0.596,2.406-0.503
	c2.74,0.251,6.26,3.039,9.419,5.149L473.445,269.777L473.445,269.777z M478.989,250.986h-3.544v18.715l6.823-0.259v-18.456h-2.323
	C479.66,251.254,479.297,251.195,478.989,250.986L478.989,250.986z M496.635,207.119h-16.282l-0.009,41.813
	c1.004,0,2.008,0.014,3.011,0.058c0.52,0.069,0.89,0.481,0.913,0.996v19.38l8.216-0.313l-2.644-49.907
	c0.005-0.324,0.08-0.551,0.191-0.708c-0.083-2.293,1.142-6.464,3.903-9.224C494.744,208.403,495.654,207.701,496.635,207.119
	L496.635,207.119z M313.158,263.639H205.709c-1.075-0.106-1.251-1.877,0-2h107.449c0.065,0.007,0.13,0.013,0.195,0.019
	C314.299,261.945,314.433,263.514,313.158,263.639z M345.038,255.35c-0.536,0.37-1.07,0.737-1.604,1.089
	c0.976,1.192,1.95,2.821,2.503,3.062c0.118,0.051,0.246,0.079,0.374,0.083c0.12,0.003,0.241-0.015,0.355-0.055
	c0.086-0.03,0.167-0.072,0.242-0.124C347.977,258.657,346.151,256.87,345.038,255.35L345.038,255.35z M332.924,238.946
	c-3.246,2.222-6.94,4.457-5.2,7.374c1.835,2.913,3.689,5.815,5.615,8.669c1.358,1.958,4.249,2.586,6.303,1.336
	c0.423-0.265,0.847-0.53,1.269-0.795c0.082-0.172,0.256-0.29,0.544-0.341c1.016-0.638,2.03-1.28,3.04-1.928
	c0.057-0.052,0.126-0.1,0.208-0.143c0.029-0.016,0.055-0.029,0.08-0.042c0.365-0.234,0.729-0.47,1.092-0.707
	c0.769-0.528,1.056-1.606,0.643-2.448c-1.29-2.477-3.072-4.795-3.99-7.317l-8.81-3.234
	C333.43,239.26,333.165,239.117,332.924,238.946L332.924,238.946z M347.307,236.966c-3.751-1.378-7.484-2.8-11.252-4.13
	c-1.969-0.639-4.321,2.401-2.626,4.053c0.088,0.055,0.166,0.122,0.233,0.199c0.192,0.143,0.421,0.273,0.691,0.384
	c3.757,1.433,7.549,2.772,11.323,4.158c0.877,0.361,0.748,1.883-0.236,1.942c2.388,4.169,4.757,8.242,1.559,10.452
	c0.52,0.504,1.02,1.154,1.419,1.858l8.384-13.674L347.307,236.966z M72.068,246.628c0.499,0.04,0.904,0.442,0.944,0.944
	c0.067,2.471,0.002,4.945,0.002,7.417c-0.028,1.012-1.898,1.285-1.999,0.054c-0.067-2.471-0.001-4.944-0.001-7.417
	C71.029,247.062,71.383,246.609,72.068,246.628L72.068,246.628z M176.697,226.37c0.096-0.115,0.203-0.229,0.318-0.34
	c3.293-3.277,4.829-8.227,3.583-12.89l-0.003-0.01c-10.137-1.358-19.904-2.964-30.257-4.044
	c-6.513-0.603-13.099,3.802-14.884,10.184c-0.204,0.73,0.024,0.344-0.334,0.769c0,0-2.544,2.722-3.94,5.823
	c-2.959,6.574-2.162,14.621,2.112,20.588l6.517,8.988l13.466-6.725c-0.678-0.796-1.174-1.805-1.365-3.065
	c-0.552-3.632,2.069-7.408,5.813-8.168l4.008-9.231c0.25-0.492,0.316-0.521,0.827-0.598L176.697,226.37L176.697,226.37z
	 M79.485,243.557c0.229,0.018,0.444,0.108,0.617,0.26c1.797,1.716,3.554,3.474,5.271,5.27c0.659,0.756-0.485,2.222-1.413,1.413
	c-1.796-1.716-3.554-3.474-5.27-5.271C78.161,244.623,78.537,243.524,79.485,243.557L79.485,243.557z M64.634,243.556
	c0.77,0.044,1.232,1.069,0.704,1.673c-1.716,1.797-3.474,3.555-5.27,5.271c-0.766,0.667-2.173-0.542-1.413-1.413
	c1.716-1.796,3.474-3.554,5.27-5.27C64.12,243.647,64.365,243.553,64.634,243.556L64.634,243.556z M313.158,249.135H205.709
	c-1.08-0.107-1.355-1.867,0-2h107.449c0.065,0.006,0.13,0.013,0.195,0.019C314.321,247.448,314.341,249.018,313.158,249.135z
	 M474.305,207.119h-7.762c-0.991,3.034-2.135,6.017-3.199,9.027l3.374,32.84h7.727l0,0c1.302,0,2.605-0.024,3.908-0.04v-41.827
	h-3.141C474.96,207.307,474.615,207.275,474.305,207.119L474.305,207.119z M451.149,207.119h-10.918v41.867h10.725l3.372-32.826
	C453.182,213.178,452.199,210.136,451.149,207.119L451.149,207.119z M461.424,217.025h-5.174l-3.284,31.961h11.742L461.424,217.025z
	 M330.755,238.022c-1.278-1.547-2.476-3.164-3.807-4.667c-0.644-0.692-2.382,0.16-1.53,1.285c1.216,1.522,2.465,3.018,3.704,4.521
	C329.665,238.78,330.21,238.401,330.755,238.022L330.755,238.022z M89.916,236.142c0.976,0.08,1.311,1.891,0,1.997
	c-2.471,0.067-4.945,0.002-7.417,0.002c-0.968-0.026-1.495-1.881-0.054-1.999C84.934,236.075,87.427,236.075,89.916,236.142z
	 M61.583,236.142c1.003,0.082,1.233,1.897,0,1.997c-2.472,0.067-4.945,0.002-7.417,0.002c-0.968-0.026-1.495-1.881-0.054-1.999
	C56.601,236.075,59.093,236.075,61.583,236.142z M59.45,223.522c0.229,0.018,0.444,0.109,0.618,0.26
	c1.796,1.716,3.554,3.474,5.27,5.27c0.627,0.72-0.353,2.337-1.413,1.413c-1.796-1.716-3.554-3.474-5.27-5.27
	C58.126,224.588,58.502,223.49,59.45,223.522L59.45,223.522z M84.668,223.521c0.77,0.044,1.232,1.069,0.705,1.674
	c-1.717,1.796-3.474,3.554-5.271,5.27c-0.719,0.627-2.337-0.353-1.412-1.413c1.716-1.796,3.474-3.554,5.27-5.27
	C84.155,223.612,84.4,223.518,84.668,223.521z M258.433,140.104c-17.317,0.437-33.934,11.73-40.602,27.756
	c-9.55,22.952,3.453,52.912,28.746,60.443c15.095,4.495,32.45,0.295,43.979-10.636l-31.83-31.83
	c-0.063-0.074-0.112-0.154-0.149-0.237c-0.08-0.133-0.132-0.291-0.144-0.47V140.104z M72.068,218.294
	c0.499,0.041,0.904,0.443,0.944,0.945c0.067,2.471,0.002,4.944,0.002,7.417c-0.028,1.032-1.905,1.2-1.999,0.054
	c-0.067-2.472-0.001-4.945-0.001-7.417C71.029,218.729,71.383,218.276,72.068,218.294z M291.97,154.007l-31.122,31.123
	l31.125,31.125c3.477-3.625,6.221-7.842,8.209-12.401l-13.505-16.475c-0.467-0.653-0.036-1.659,0.872-1.629
	c0.479,0.079,0.501,0.176,0.675,0.361l12.815,15.634C306.954,186.062,304.243,166.947,291.97,154.007L291.97,154.007z
	 M464.398,207.119h-11.093c0.968,2.616,1.835,5.271,2.752,7.906h5.541C462.467,212.368,463.452,209.75,464.398,207.119z
	 M471.164,170.446c-0.393,0.118-0.837-0.01-1.103-0.575l-4.81-12.093l-31.075,3.146c0.534,7.812,1.018,15.626,1.603,23.434
	c0.489,5.54,5.908,10.056,11.662,9.216l0.489-0.075c0.059-0.014,0.121-0.024,0.187-0.028l11.84-1.808
	c1.059-0.097,1.716,1.673,0.302,1.977c-3.68,0.562-7.444,1.517-11.004,1.881c0.069,3.198-0.01,6.398-0.026,9.598h24.275
	l-1.53-22.368c-0.473-0.024-0.945-0.095-1.407-0.215c0,0-1.912-2.428,0.839-1.857c4.355,0.848,8.844-5.921,4.08-9.36
	c-1.213-0.876-2.79-1.185-4.27-0.843C471.216,170.476,471.197,170.465,471.164,170.446L471.164,170.446z M463.529,180.358
	c2.046,0.191,0.712,5.385-2.86,6.63c-3.274,1.142-7.301-1.446-7.533-5.02c0,0,0.097-0.94,0.879-1.058
	C457.203,180.626,460.498,180.26,463.529,180.358L463.529,180.358z M455.328,182.835c0.941,2.81,6.157,3.433,7.06-0.408l0.001-0.006
	C460.035,182.559,457.682,182.697,455.328,182.835z M260.433,182.716l30.125-30.125c-7.908-7.579-18.892-12.148-29.962-12.482
	l-0.163-0.004V182.716z M523.316,166.286c0.499,0.041,0.903,0.442,0.944,0.944c0.067,2.472,0.002,4.945,0.002,7.417
	c-0.028,1.012-1.899,1.285-1.999,0.054c-0.067-2.471-0.001-4.944-0.001-7.416C522.277,166.721,522.625,166.267,523.316,166.286z
	 M530.733,163.215c0.229,0.018,0.444,0.109,0.617,0.26c1.797,1.716,3.554,3.474,5.271,5.271c0.667,0.765-0.542,2.172-1.413,1.412
	c-1.796-1.716-3.554-3.474-5.271-5.27C529.405,164.277,529.785,163.183,530.733,163.215L530.733,163.215z M515.882,163.214
	c0.769,0.044,1.231,1.069,0.704,1.674c-1.716,1.796-3.474,3.554-5.271,5.27c-0.719,0.628-2.336-0.353-1.412-1.412
	c1.716-1.797,3.474-3.555,5.27-5.271C515.368,163.305,515.613,163.211,515.882,163.214z M476.901,170.177
	c2.173-5.333,4.927-10.681,3.116-15.375c-0.977-2.532-3.005-4.607-5.524-5.677c0,0-2.603-6.004-7.107-9.014
	c-5.408-3.616-12.602-2.713-19.535-2.351c-6.031,0.314-12.062,0.63-18.093,0.947c-2.115,0.112-4.232,0.141-6.332,0.339
	c-2.984,0.367,0.963,8.765,5.064,12.003c0,0,0.903,0.862,0.172,1.623c-0.945,0.847-1.888,1.696-2.83,2.546
	c-2.334,2.109-5.057,4.186-2.345,6.63c2.77,2.476,5.835,4.697,9.174,6.236l-0.546-7.989c-0.005-0.528,0.364-0.977,0.897-1.063
	l32.906-3.324c0.039,0.003,0.078,0.006,0.117,0.009c0.535,0.104,0.579,0.158,0.795,0.621l4.787,12.032
	c0.228-0.026,0.488-0.039,0.887-0.038C474.16,168.362,475.693,169.073,476.901,170.177L476.901,170.177z M541.164,155.801
	c0.994,0.081,1.187,1.9,0,1.997c-2.471,0.067-4.945,0.001-7.417,0.001c-0.997-0.027-1.454-1.884-0.054-1.998
	C536.182,155.733,538.675,155.733,541.164,155.801z M512.831,155.801c0.994,0.081,1.187,1.9,0,1.997
	c-2.472,0.067-4.945,0.001-7.417,0.001c-0.992-0.027-1.441-1.885-0.054-1.998C507.849,155.733,510.341,155.733,512.831,155.801z
	 M510.698,143.18c0.23,0.019,0.444,0.109,0.617,0.26c1.797,1.717,3.555,3.474,5.271,5.271c0.627,0.719-0.353,2.337-1.413,1.413
	c-1.796-1.717-3.554-3.475-5.27-5.271C509.374,144.247,509.743,143.148,510.698,143.18L510.698,143.18z M535.916,143.179
	c0.765,0.044,1.241,1.06,0.705,1.674c-1.717,1.796-3.474,3.554-5.271,5.271c-0.719,0.627-2.337-0.353-1.413-1.413
	c1.717-1.797,3.475-3.554,5.271-5.271C535.404,143.27,535.65,143.176,535.916,143.179z M523.316,137.953
	c0.499,0.04,0.903,0.442,0.944,0.944c0.067,2.471,0.002,4.945,0.002,7.417c-0.027,0.997-1.885,1.454-1.999,0.054
	c-0.067-2.471-0.001-4.945-0.001-7.417C522.277,138.387,522.625,137.934,523.316,137.953z M373.67,121.426
	c1.197-0.015,2.394-0.03,3.592-0.045c0.924-0.035,1.725-0.808,1.784-1.739c0.143-3.73,0.049-7.466,0.002-11.199
	c-0.036-0.94-0.841-1.75-1.786-1.786c-78.528-0.998-157.069,0-235.603,0c-0.947,0.011-1.78,0.795-1.838,1.743
	c-0.139,3.729-0.049,7.464-0.002,11.195c0.036,0.942,0.841,1.75,1.786,1.786c1.105,0.014,2.21,0.028,3.315,0.042
	c0.19-0.078,0.455-0.072,0.825-0.003c0.012,0.004,0.023,0.009,0.034,0.013c75.734,0.929,151.485,0.93,227.219,0.001
	c0.159-0.044,0.361-0.056,0.62-0.027C373.635,121.413,373.653,121.42,373.67,121.426L373.67,121.426z"></path>
</svg>