<?xml version="1.0" standalone="no"?>
<svg version="1.1" id="Layer_1" xmlns="http://www.w3.org/2000/svg" xmlns:xlink="http://www.w3.org/1999/xlink" x="0px" y="0px" viewBox="0 0 595.28 595.28" enable-background="new 0 0 595.28 595.28" xml:space="preserve">
<path id="color_x5F_11" fill="#EC7523" d="M146.024,285.196h11.999v-12.805c6.327,0.172,11.405,5.351,11.405,11.72
	c0,6.477-5.251,11.728-11.728,11.728C151.588,295.839,146.571,291.164,146.024,285.196z M168.068,212.954h-20.564v41.058h20.564
	V212.954z M166.907,303.106h-18.364c-0.608,0-1.1,0.493-1.1,1.1c0,0.607,0.492,1.1,1.1,1.1h18.364c0.607,0,1.1-0.493,1.1-1.1
	C168.007,303.598,167.515,303.106,166.907,303.106z"></path>
<path id="color_x5F_10" fill="#D0AD9A" d="M215.41,285.196c0-2.361,0.7-4.557,1.901-6.397l9.827,6.397v-11.728
	c6.477,0,11.728,5.251,11.728,11.728c0,6.477-5.251,11.728-11.728,11.728C220.661,296.924,215.41,291.673,215.41,285.196z
	 M218.897,201.399h-20.564v52.613h20.564V201.399z M236.32,302.006h-18.364c-0.607,0-1.1,0.493-1.1,1.1c0,0.608,0.493,1.1,1.1,1.1
	h18.364c0.608,0,1.1-0.492,1.1-1.1C237.42,302.498,236.927,302.006,236.32,302.006z"></path>
<path id="color_x5F_9" fill="#1D5C87" d="M146.023,258.55h104.771v1.112H146.023V258.55z M311.649,259.662H273.44
	c-1.164,0-2.107,0.943-2.107,2.107v1.065c0,1.164,0.943,2.107,2.107,2.107h38.209c1.164,0,2.107-0.944,2.107-2.107v-1.065
	C313.756,260.605,312.813,259.662,311.649,259.662z"></path>
<path id="color_x5F_8" fill="#FFFFFF" d="M139.903,318.412h235.135v-33.324c-7.568-3.686-22.991-27.898-27.523-35.204h-84.383
	l29.523-27.659l19.378,8.721l16.401-13.121l7.866,4.854c0.045-0.478,0.281-0.777,0.544-0.97l-8.493-5.24l-16.482,13.186
	l-19.434-8.746l-30.087,28.188v-55.848h99.206v13.635l-24.141,14.792c0.24,0.126,0.604,0.349,1.065,0.651l23.076-14.14v41.697
	h-1.705l15.19,15.994v-84.522H139.903V318.412z M271.332,261.77c0-1.164,0.943-2.107,2.107-2.107h38.209
	c1.164,0,2.107,0.943,2.107,2.107v1.065c0,1.164-0.943,2.107-2.107,2.107H273.44c-1.164,0-2.107-0.944-2.107-2.107V261.77z
	 M271.332,268.925h65.767v1.673h-65.767V268.925z M271.332,272.955h65.767v1.673h-65.767V272.955z M271.332,276.984h65.767v1.673
	h-65.767V276.984z M271.332,281.014h65.767v1.673h-65.767V281.014z M271.332,285.043h65.767v1.673h-65.767V285.043z
	 M271.332,289.072h65.767v1.673h-65.767V289.072z M271.332,293.102h65.767v1.673h-65.767V293.102z M271.332,297.131h65.767v1.673
	h-65.767V297.131z M166.907,305.305h-18.364c-0.607,0-1.1-0.493-1.1-1.1c0-0.607,0.492-1.1,1.1-1.1h18.364
	c0.607,0,1.1,0.493,1.1,1.1C168.007,304.813,167.515,305.305,166.907,305.305z M157.7,295.839c-6.111,0-11.128-4.674-11.676-10.643
	h11.999v-12.805c6.327,0.172,11.405,5.351,11.405,11.72C169.427,290.588,164.177,295.839,157.7,295.839z M198.821,305.305h-18.364
	c-0.607,0-1.1-0.493-1.1-1.1c0-0.607,0.493-1.1,1.1-1.1h18.364c0.607,0,1.1,0.493,1.1,1.1
	C199.921,304.813,199.429,305.305,198.821,305.305z M188.193,296.924c-1.955,0-3.797-0.481-5.417-1.327l5.417-10.401v-11.728
	c6.477,0,11.728,5.251,11.728,11.728C199.921,291.673,194.67,296.924,188.193,296.924z M236.32,304.206h-18.364
	c-0.607,0-1.1-0.492-1.1-1.1c0-0.607,0.493-1.1,1.1-1.1h18.364c0.607,0,1.1,0.493,1.1,1.1
	C237.42,303.713,236.927,304.206,236.32,304.206z M227.138,296.924c-6.477,0-11.728-5.251-11.728-11.728
	c0-2.361,0.7-4.557,1.901-6.397l9.827,6.397v-11.728c6.477,0,11.728,5.251,11.728,11.728
	C238.866,291.673,233.615,296.924,227.138,296.924z M222.232,247.528h20.564v6.484h-20.564V247.528z M198.333,201.399h20.564v52.613
	h-20.564V201.399z M172.752,227.891h20.564v26.121h-20.564V227.891z M147.504,212.954h20.564v41.058h-20.564V212.954z
	 M146.023,258.551h104.771v1.112H146.023V258.551z"></path>
<path id="color_x5F_7" fill="#2BB3CD" d="M172.752,227.891h20.564v26.121h-20.564V227.891z M188.193,273.468v11.728l-5.417,10.401
	c1.621,0.846,3.463,1.327,5.417,1.327c6.477,0,11.728-5.251,11.728-11.728C199.921,278.719,194.67,273.468,188.193,273.468z
	 M180.457,303.105c-0.607,0-1.1,0.493-1.1,1.1c0,0.607,0.493,1.1,1.1,1.1h18.364c0.607,0,1.1-0.493,1.1-1.1
	c0-0.607-0.492-1.1-1.1-1.1H180.457z M470.15,454.65c0,0,2.149-7.532-0.246-16.704c-0.203-2.656-0.365-5.312-0.435-7.934
	c1.613-0.326,16.142-3.495,19.434-12.511c3.487-9.549,9.642-9.92,9.642-9.92s-11.344,0.613-18.298,7.449
	c-6.198,6.092-10.025,13.245-10.785,14.729c-0.073-2.991-0.027-5.936,0.213-8.79c0.971-11.555,9.404-21.876,16.057-28.329
	c1.454-0.634,8.885-4.027,15.389-9.884c7.245-6.525,8.546-17.812,8.546-17.812s-0.745,6.122-10.488,9.022
	c-7.342,2.185-11.401,11.743-12.956,16.322c-1.517,1.4-3.168,3.024-4.829,4.836c-3.49,3.809-7.478,8.974-10.142,14.918
	c0.181-2.714,0.42-9.908-1.35-17.385c-2.247-9.488-11.523-16.047-11.523-16.047s5.013,3.59,2.881,13.529
	c-1.937,9.028,7.813,19.015,9.616,20.77c-1.32,3.138-2.257,6.48-2.549,9.946c-0.333,3.964-0.299,8.086-0.09,12.251
	c-1.885-4.336-4.939-8.802-9.795-12.849c-0.428-0.357-0.863-0.686-1.299-1.013l1.592,49.029c0.041-0.239,0.072-0.409,0.072-0.409
	s2.18,0.961,2.18,1.673c0,6.23,8.73,5.674,9.368,6.675c0.638,1.001,0.638,1.844,0.638,1.844s-0.891,0.011-2.158,0.012h37.357
	C508.018,445.968,470.15,454.65,470.15,454.65z M412.852,476.214c0.638-1.001,9.368-0.445,9.368-6.675
	c0-0.712,2.18-1.673,2.18-1.673s-0.009,0.004-0.015,0.007l-7.409-52.698c-3.091-11.719-18.625-29.397-41.137-22.852
	c-23.628,6.87-18.753,35.671-18.753,35.671c-9.62-0.62-16.967,0.581-22.565,2.946c3.329,10.893,0.482,19.936,0.482,19.936
	s48.548-10.082,46.208,27.196h33.162c-1.267-0.001-2.158-0.012-2.158-0.012S412.214,477.215,412.852,476.214z M456.44,474.748
	c-1.735-0.132-1.582,2.793-1.582,2.793h-2.347v-8.959c0,0,0.198-0.067,0.441-0.114c-0.001,0-0.002,0-0.003,0l-10.919-55.308
	c-3.797-0.515-7.483-0.42-10.799-0.014l-1.409,55.285c0.39-0.016,0.872,0.151,0.872,0.151v8.959h-2.347c0,0,0.153-2.925-1.581-2.793
	c-1.735,0.132-2.627,2.477-4.03,2.951c-0.965,0.326-5.577,0.374-8.365,0.371h54.464c-2.788,0.002-7.401-0.045-8.365-0.371
	C459.068,477.225,458.175,474.88,456.44,474.748z"></path>
<path id="color_x5F_6" fill="#78d0fe" d="M381.21,478.071H142.899l-0.981-3.172c0,0-10.058-30.857,9.919-46.415
	c-3.415,0.436-7.257,0.15-9.819-2.411c-5.592-5.592-9.805-3.01-9.805-3.01s7.74-4.813,14.701-2.883
	c4.413,1.224,8.201,3.405,10.394,4.842c0.037-0.019,0.076-0.036,0.113-0.055c-3.206-5.553-6.304-11.235-8.417-16.945
	c-1.139-3.078-1.676-6.309-1.804-9.519c-2.243-0.778-14.573-5.408-16.532-13.898c-2.157-9.346-7.878-10.406-7.878-10.406
	s10.552,1.891,16.27,9.099c4.506,5.681,7.182,11.923,8.114,14.315c-0.103-6.146,1.237-12.155,2.694-16.807
	c0.694-2.213,1.454-4.262,2.19-6.065c-0.504-4.535-0.862-14.327,4.537-19.133c7.164-6.378,5.35-11.907,5.35-11.907
	s3.406,10.165-0.172,18.641c-3.212,7.608-8.204,13.482-9.193,14.606c-3.102,8.177-6.176,20.373-2.379,30.635
	c0.937,2.534,2.077,5.069,3.337,7.596c0.055-1.572,0.462-9.216,3.319-16.903c3.205-8.624,12.653-13.69,12.653-13.69
	s-5.111,2.781-4.267,12.336c0.796,9.021-10.35,17.546-11.597,18.47c1.519,3.029,3.21,6.042,4.93,9.02
	c7.448-3.447,17.629-5.299,31.476-4.491c0,0-6.249-33.444,24.042-41.421c30.291-7.977,50.743,15.038,53.222,28.51
	c0,0,28.82-12.242,50.936,2.699c-0.233-10.735-2.602-29.013-15.031-39.509c-1.421,1.354-3.447,2.033-5.523,1.642
	c-3.427-0.645-5.683-3.945-5.038-7.372c0.645-3.427,3.945-5.682,7.372-5.038c3.427,0.645,5.682,3.945,5.038,7.372
	c-0.164,0.874-0.503,1.669-0.97,2.362c12.462,10.531,15.129,28.526,15.488,39.606c2.672-14.286,6.412-28.731,8.564-36.625
	c-2.908-1.007-4.722-4.01-4.136-7.125c0.645-3.427,3.945-5.682,7.372-5.038c3.427,0.645,5.683,3.945,5.038,7.372
	c-0.618,3.284-3.674,5.484-6.943,5.097c-2.26,8.286-6.295,23.891-8.976,38.894c0.237,0.184,0.467,0.37,0.698,0.555
	c2.004-6.467,5.438-11.417,10.261-14.757c5.531-3.83,11.761-4.791,16.372-4.86c0.729-3.319,3.964-5.483,7.327-4.85
	c3.427,0.645,5.683,3.945,5.038,7.372c-0.645,3.427-3.945,5.683-7.372,5.038c-3.021-0.568-5.129-3.201-5.145-6.164
	c-4.418,0.097-10.32,1.035-15.452,4.592c-4.688,3.251-7.995,8.143-9.883,14.573c19.408,16.623,12.652,38.03,12.652,38.03
	S383.551,440.793,381.21,478.071z M337.099,293.102h-65.767v1.673h65.767V293.102z M271.332,298.804h65.767v-1.673h-65.767V298.804z
	 M378.669,326.734H135.818V171.49h17.569v-4.364h6.287l97.563-67.952l0.776,0.53l99.27,67.826h7.993v3.96h13.394v92.18
	c-2.005,1.605-3.253,2.606-3.253,2.606l-0.379-0.399v-84.522H139.903v137.056h235.135v-33.324c0.569,0.277,1.096,0.445,1.568,0.474
	c0.603,0.037,1.302-0.055,2.064-0.235V326.734z M164.439,167.126h0.758v4.364h188.268v-3.269l-96.214-65.738L164.439,167.126z
	 M337.099,289.072h-65.767v1.673h65.767V289.072z M337.099,285.043h-65.767v1.673h65.767V285.043z M346.839,247.315l-3.173-4.761
	c0,0-0.398-0.361-1.817-1.039c-1.419-0.678-4.32-3.828-4.256-7.063c0.064-3.235,1.218-4.496,1.619-5.857
	c0.4-1.361-2.957-5.15-2.928-5.838c0.001-0.03,0.013-0.05,0.015-0.078l-7.866-4.854l-16.401,13.121l-19.378-8.721l-29.523,27.659
	h84.383c-0.815-1.314-1.29-2.099-1.29-2.099l5.324-4.072L346.839,247.315z M352.962,242.633l6.886,7.251h1.705v-41.697
	l-23.076,14.14c2.836,1.86,9.118,6.56,10.026,8.166c1.156,2.045,1.512,10.119,1.512,10.119l2.259,2.548L352.962,242.633z
	 M361.553,193.248h-99.206v55.848l30.087-28.188l19.434,8.746l16.482-13.186l8.493,5.24c0.083-0.061,0.167-0.114,0.248-0.158
	c0.031-0.017,0.156,0.039,0.321,0.125l24.141-14.792V193.248z M242.795,254.012v-6.484h-20.564v6.484H242.795z M337.099,281.014
	h-65.767v1.673h65.767V281.014z M337.099,268.925h-65.767v1.673h65.767V268.925z M337.099,272.955h-65.767v1.673h65.767V272.955z
	 M337.099,276.984h-65.767v1.673h65.767V276.984z"></path>
<path id="color_x5F_5" fill="#FFD2BB" d="M350.015,240.611l2.259,2.548l-5.434,4.155l-3.173-4.761c0,0-0.398-0.361-1.817-1.039
	c-1.419-0.678-4.32-3.828-4.256-7.063c0.064-3.235,1.218-4.496,1.619-5.857c0.4-1.361-2.957-5.15-2.929-5.838
	c0.028-0.688,0.455-1.015,0.807-1.207c0.352-0.192,10.255,6.897,11.411,8.942C349.658,232.537,350.015,240.611,350.015,240.611z
	 M475.231,328.93c-0.308-1.144-0.925-2.421-0.925-2.421l1.955-3.669l-6.571-3.982c-1.117,2.454-2.88,6.444-3.089,7.607
	c-0.308,1.717,0.044,6.01,0.616,9.609c0.572,3.6,2.51,4.524,4.139,4.788c1.629,0.264,5.372,0.176,5.9-0.704
	C477.785,339.278,475.539,330.075,475.231,328.93z M424.384,467.872c0.006-0.003,0.015-0.007,0.015-0.007s0.163,0.901,0.249,1.518
	c0.142,1.007,1.409,0.929,2.965,0.375c1.556-0.553,1.526-0.755,1.781-1.15c0.081-0.126,0.246-0.17,0.429-0.177l1.741-68.305H414.86
	L424.384,467.872z M457.081,400.126h-16.195l-0.35,5.46l12.414,62.883c0.319-0.061,0.717-0.085,0.862,0.14
	c0.255,0.395,0.225,0.597,1.781,1.15c1.556,0.553,2.823,0.631,2.965-0.375c0.049-0.352,0.123-0.792,0.177-1.109l-2.042-62.865
	L457.081,400.126z M427.591,225.682c0,0,1.458,7.808-4.114,11.785c1.296,3.889,5.611,22.734,5.611,22.734l15.547-20.491
	c0,0-3.13-1.171-4.451-3.021c-1.321-1.849-1.937-7.221-0.088-8.454c1.819-1.212,6.441-3.453,8.353-8.3c0-0.335,0-0.692,0-1.081
	c0-5.384-1.821-7.997-12.51-15.202c-8.695-5.861-8.536-11.565-8.174-13.489c-0.04,0.047-0.087,0.09-0.125,0.138
	c-4.403,5.548-7.533,14.951-6.388,23.404C422.396,222.16,427.591,225.682,427.591,225.682z"></path>
<path id="color_x5F_4" fill="#ffffff" d="M415.957,234.597c0,0,4.886-0.995,10.917-1.565c-0.63,1.615-1.677,3.208-3.397,4.435
	c0,0-9.366,0.194-13.536,1.941c-1.83,0.767-23.332,17.908-31.447,24.402c0.06-0.048,0.113-0.091,0.175-0.14v-33.975
	c11.506,2.963,23.395,3.107,36.548,2.362C415.447,232.904,415.689,233.751,415.957,234.597z M470.877,410.91
	c-1.803-1.755-11.553-11.742-9.616-20.77c1.592-7.419-0.797-11.298-2.112-12.789l-1.618,22.776h-0.45l-0.387,5.284l0.449,13.836
	c0.435,0.326,0.87,0.656,1.299,1.013c4.856,4.047,7.911,8.513,9.795,12.849c-0.209-4.165-0.243-8.287,0.09-12.251
	C468.62,417.39,469.557,414.048,470.877,410.91z M440.887,400.126h-9.322l-1.741,68.305l1.409-55.285
	c3.316-0.406,7.001-0.501,10.799,0.014l10.919,55.309l-12.415-62.883L440.887,400.126z M409.98,400.126l-8.279-64.052
	c0,0-1.848-27.793,2.247-64.91c0.219-1.988-16.821,12.156-25.278,14.162v41.407H135.818V171.49h17.569v-4.364h6.287l83.764-58.341
	c-62.683-24.18-141.177-0.921-175.342,38.656c-45.42,52.615-77.774,167.494-0.709,220.455c48.39,33.255,66.623,78.32,72.75,98.982
	c-1.58-10.222-1.865-27.831,11.7-38.395c-3.415,0.436-7.257,0.15-9.819-2.411c-5.592-5.592-9.805-3.01-9.805-3.01
	s7.74-4.813,14.701-2.883c4.413,1.224,8.201,3.405,10.394,4.842c0.037-0.019,0.076-0.036,0.113-0.055
	c-3.206-5.553-6.304-11.235-8.417-16.945c-1.139-3.078-1.676-6.309-1.804-9.519c-2.243-0.778-14.573-5.408-16.532-13.898
	c-2.157-9.346-7.878-10.406-7.878-10.406s10.552,1.891,16.27,9.099c4.506,5.681,7.182,11.923,8.114,14.315
	c-0.103-6.146,1.237-12.155,2.694-16.807c0.694-2.213,1.454-4.262,2.19-6.065c-0.504-4.535-0.862-14.327,4.537-19.133
	c7.164-6.378,5.35-11.907,5.35-11.907s3.406,10.165-0.172,18.641c-3.212,7.608-8.204,13.482-9.193,14.606
	c-3.102,8.177-6.176,20.373-2.379,30.635c0.937,2.534,2.077,5.069,3.337,7.596c0.055-1.572,0.462-9.216,3.319-16.903
	c3.205-8.624,12.653-13.69,12.653-13.69s-5.111,2.781-4.267,12.336c0.796,9.021-10.35,17.546-11.597,18.47
	c1.519,3.029,3.21,6.042,4.93,9.02c7.448-3.447,17.629-5.299,31.476-4.491c0,0-6.249-33.444,24.042-41.421
	c30.291-7.977,50.743,15.038,53.222,28.51c0,0,28.82-12.242,50.936,2.699c-0.233-10.735-2.602-29.013-15.031-39.509
	c-1.421,1.354-3.447,2.033-5.523,1.642c-3.427-0.645-5.683-3.945-5.038-7.372c0.645-3.427,3.945-5.682,7.372-5.038
	c3.427,0.645,5.682,3.945,5.038,7.372c-0.164,0.874-0.503,1.669-0.97,2.362c12.462,10.531,15.129,28.526,15.488,39.606
	c2.672-14.286,6.412-28.731,8.564-36.625c-2.908-1.007-4.722-4.01-4.136-7.125c0.645-3.427,3.945-5.682,7.372-5.038
	c3.427,0.645,5.683,3.945,5.038,7.372c-0.618,3.284-3.674,5.484-6.943,5.097c-2.26,8.286-6.295,23.891-8.976,38.894
	c0.237,0.184,0.467,0.37,0.698,0.555c2.004-6.467,5.438-11.417,10.261-14.757c5.531-3.83,11.761-4.791,16.372-4.86
	c0.729-3.319,3.964-5.483,7.327-4.85c3.427,0.645,5.683,3.945,5.038,7.372c-0.645,3.427-3.945,5.683-7.372,5.038
	c-3.021-0.568-5.129-3.201-5.145-6.164c-4.418,0.097-10.32,1.035-15.452,4.592c-4.688,3.251-7.995,8.143-9.883,14.573
	c6.796,5.821,10.377,12.226,12.17,18.096c0-0.001,0-0.001,0-0.002c5.598-2.366,12.946-3.566,22.565-2.946
	c0,0-4.874-28.801,18.753-35.671c22.512-6.545,38.046,11.133,41.137,22.852l-2.115-15.048H409.98z M439,232.848
	c0.001,0,0.001,0,0.002,0c-0.001-0.01-0.003-0.021-0.004-0.031C438.999,232.827,438.999,232.838,439,232.848z M438.997,232.817
	c-0.022-0.221-0.038-0.442-0.048-0.661C438.959,232.375,438.975,232.596,438.997,232.817z M582,352.981
	c-0.166,78.645-17.248,113.427-75.807,125.09c1.825-32.102-36.043-23.42-36.043-23.42s2.149-7.532-0.246-16.704
	c-0.203-2.656-0.365-5.312-0.435-7.934c1.613-0.326,16.142-3.495,19.434-12.511c3.487-9.549,9.642-9.92,9.642-9.92
	s-11.344,0.613-18.298,7.449c-6.198,6.092-10.025,13.245-10.785,14.729c-0.073-2.991-0.027-5.936,0.213-8.79
	c0.971-11.555,9.404-21.876,16.057-28.329c1.454-0.634,8.885-4.027,15.389-9.884c7.245-6.526,8.546-17.812,8.546-17.812
	s-0.745,6.122-10.488,9.022c-7.342,2.185-11.401,11.743-12.956,16.322c-1.517,1.4-3.168,3.024-4.829,4.836
	c-3.49,3.809-7.478,8.974-10.142,14.918c0.181-2.714,0.42-9.908-1.35-17.385c-1.853-7.825-8.475-13.647-10.744-15.451l2.951-41.539
	c0,0-9.29-23.027-4.644-56.031c0.191-1.354,0.566-2.953,1.045-4.711l16.896,15.128l-6.604,28.267l8.718,5.284
	c0,0,14.794-34.607,14.794-36.832c0-2.225-29.588-42.861-29.588-42.861c-2.377-3.338-18.092-4.2-18.092-4.2s-3.13-1.171-4.451-3.021
	c-0.582-0.815-1.025-2.314-1.182-3.841c0.861,0.083,1.698,0.192,2.494,0.336c9.854,1.783,14.605,2.971,14.605,2.971
	s0.975-2.806,2.159-6.992c3.503-0.13,7.096-0.216,10.8-0.236C542.206,228.545,582.122,295.283,582,352.981z M475.231,328.93
	c-0.308-1.144-0.925-2.421-0.925-2.421l1.955-3.669l-6.571-3.982c-1.117,2.454-2.88,6.444-3.089,7.607
	c-0.308,1.717,0.044,6.01,0.616,9.609c0.572,3.6,2.51,4.524,4.139,4.788c1.629,0.264,5.372,0.176,5.9-0.704
	C477.785,339.278,475.54,330.075,475.231,328.93z M165.197,167.126v4.364h147.672c-2.002-3.075-4.029-6.281-6.092-9.661
	c-15.474-25.355-36.686-42.049-60.319-51.828l-82.018,57.126H165.197z"></path>
<polygon id="color_x5F_3" fill="#E84393" points="409.98,400.126 457.532,400.126 462.111,335.667 401.701,336.074 "></polygon>
<path id="color_x5F_2" fill="#FBC02D" d="M492.315,286.771c0,2.225-14.794,36.832-14.794,36.832l-8.718-5.284l6.604-28.267
	l-16.896-15.128c-0.479,1.758-0.854,3.357-1.045,4.711c-4.646,33.004,4.644,56.031,4.644,56.031l-60.41,0.407
	c0,0-1.848-27.793,2.247-64.91c0.239-2.167-20.039,14.846-27.342,14.398c-7.881-0.484-30.38-37.777-30.38-37.777l6.737-5.151
	l22.455,23.644c0,0,32.265-25.922,34.525-26.868c4.169-1.747,13.536-1.941,13.536-1.941c1.296,3.889,5.611,22.734,5.611,22.734
	l15.547-20.491c0,0,15.715,0.862,18.092,4.2C462.727,243.91,492.315,284.545,492.315,286.771z M429.395,468.609
	c-0.255,0.395-0.225,0.597-1.781,1.15c-1.556,0.553-2.823,0.631-2.965-0.375c-0.087-0.617-0.249-1.518-0.249-1.518
	s-2.18,0.961-2.18,1.673c0,6.23-8.73,5.674-9.368,6.675c-0.638,1.001-0.638,1.844-0.638,1.844s9.12,0.115,10.523-0.359
	c1.403-0.474,2.296-2.819,4.03-2.951c1.734-0.132,1.581,2.793,1.581,2.793h2.347v-8.959
	C430.696,468.582,429.65,468.214,429.395,468.609z M460.989,469.539c0-0.712-2.18-1.673-2.18-1.673s-0.163,0.901-0.249,1.518
	c-0.142,1.007-1.409,0.929-2.965,0.375c-1.556-0.553-1.526-0.755-1.781-1.15c-0.255-0.395-1.301-0.026-1.301-0.026v8.959h2.347
	c0,0-0.153-2.925,1.582-2.793c1.734,0.132,2.627,2.477,4.03,2.951c1.403,0.474,10.523,0.359,10.523,0.359s0-0.843-0.638-1.844
	C469.718,475.213,460.989,475.769,460.989,469.539z"></path>
<path id="color_x5F_1" fill="#000000" d="M462.276,201.712c-1.306-12.946-15.202-20.071-22.447-19.834
	c-7.245,0.238-9.976,3.088-9.976,3.088s-1.188-2.138-7.72,0.594c-6.532,2.732-13.421,26.102-6.176,49.037
	c0,0,4.888-0.995,10.919-1.565c1.411-3.618,0.716-7.35,0.716-7.35s-5.195-3.522-6.34-11.976c-1.145-8.454,1.985-17.857,6.388-23.404
	c0.038-0.049,0.085-0.091,0.125-0.138c-0.362,1.924-0.522,7.627,8.174,13.489c10.689,7.205,12.51,9.818,12.51,15.202
	c0,0.389,0,0.747,0,1.081c-1.912,4.847-6.534,7.088-8.353,8.3c-1.034,0.689-1.296,2.674-1.096,4.612
	c0.861,0.083,1.699,0.192,2.495,0.336c9.854,1.783,14.605,2.971,14.605,2.971S463.582,214.658,462.276,201.712z"></path>
</svg>