<?xml version="1.0" standalone="no"?>
<svg version="1.1" id="Layer_1" xmlns="http://www.w3.org/2000/svg" xmlns:xlink="http://www.w3.org/1999/xlink" x="0px" y="0px" width="595.3px" height="595.3px" viewBox="0 0 595.3 595.3" enable-background="new 0 0 595.3 595.3" xml:space="preserve">
<path id="color_x5F_6" fill-rule="evenodd" clip-rule="evenodd" fill="#9b9b9b" d="M101,465H78.5c-1.6-1.4-3.2-2.8-4.7-4.3
	c-11.6-11.6-18.7-27.1-19.8-43.5c16.2,1.1,31.5,8,43.1,19.4c1.3,9.9,4.4,19.5,9.1,28.4h-3.6l-31.7-31.7c-0.2-0.2-0.5-0.2-0.7,0
	c-0.1,0.1-0.2,0.2-0.2,0.4c0,0.1,0.1,0.3,0.2,0.4L101,465z M117.3,465h-10.1c-4.8-8.9-7.9-18.6-9.2-28.6v-0.1
	c-3.1-23.7,4.1-47.6,19.8-65.7l0,0c13.3,15.2,20.6,34.7,20.5,54.8c0,3.6-0.2,7.2-0.7,10.8v0.1c-1.3,10-4.4,19.7-9.2,28.6h-10.1
	v-65.6c0-0.3-0.2-0.5-0.5-0.5l0,0c-0.3,0-0.5,0.2-0.5,0.5L117.3,465L117.3,465z M133.2,465h-3.7c4.7-8.8,7.8-18.5,9.1-28.4
	c11.6-11.4,26.9-18.3,43.1-19.4c-1.1,16.4-8.2,31.9-19.8,43.5c-1.5,1.5-3.1,3-4.7,4.3h-22.5l31-31c0.2-0.2,0.2-0.5,0-0.7
	c-0.1-0.1-0.2-0.2-0.4-0.2l0,0c-0.1,0-0.3,0.1-0.3,0.2L133.2,465L133.2,465z M437.6,398.8c0.6,0,1.3,0.1,1.9,0.2l-5.8,5.8l0,0
	c-2.1,2.2-2.1,5.7,0.1,7.8c2.1,2.1,5.5,2.1,7.7,0l5.8-5.8c1.1,5.4-2.4,10.6-7.8,11.6s-10.6-2.4-11.6-7.8c-1.1-5.4,2.4-10.6,7.8-11.6
	C436.3,398.9,437,398.8,437.6,398.8L437.6,398.8z M307.2,380.3c3.2,0,5.8,2.6,5.8,5.8c0,3.2-2.6,5.8-5.8,5.8c-3.2,0-5.8-2.6-5.8-5.8
	l0,0C301.4,382.9,304,380.3,307.2,380.3L307.2,380.3z M284.9,380.3c3.2,0,5.8,2.6,5.8,5.8c0,3.2-2.6,5.8-5.8,5.8
	c-3.2,0-5.8-2.6-5.8-5.8l0,0C279.1,382.9,281.7,380.3,284.9,380.3L284.9,380.3L284.9,380.3z M429.1,239.1l-4.2,21.2l-6.6-6.6
	l-3.8-3.8l-6.6-6.6L429.1,239.1L429.1,239.1z M301.8,220.8h-11.6v-10.7h11.6V220.8z"></path>
<path id="color_x5F_5" fill-rule="evenodd" clip-rule="evenodd" fill="#000000" d="M437.6,356.5c12,0,23.6,4.1,32.8,11.6
	c-7,7-9.6,9.6-17.3,17.2c-12.9-8.6-30.4-5.1-39,7.8s-5.1,30.4,7.8,39s30.4,5.1,39-7.8c6.3-9.5,6.3-21.8,0-31.2l17.3-17.3
	c18.1,22.4,14.6,55.3-7.8,73.5c-22.4,18.1-55.3,14.6-73.5-7.8c-18.1-22.4-14.6-55.3,7.8-73.5C414.1,360.6,425.6,356.5,437.6,356.5z
	 M522.9,298.6V323l-27.3,27.1v-24.3L522.9,298.6z M271.6,312.3c6,0,10.8,4.8,10.8,10.8s-4.8,10.8-10.8,10.8s-10.8-4.8-10.8-10.8
	C260.8,317.1,265.6,312.3,271.6,312.3L271.6,312.3z M367.3,290.1c6,0,10.8,4.8,10.8,10.8s-4.8,10.8-10.8,10.8s-10.8-4.8-10.8-10.8
	C356.4,294.9,361.3,290.1,367.3,290.1L367.3,290.1L367.3,290.1z M232.8,273.4c6,0,10.8,4.8,10.8,10.8s-4.8,10.8-10.8,10.8
	s-10.8-4.8-10.8-10.8C221.9,278.3,226.8,273.4,232.8,273.4C232.7,273.4,232.7,273.4,232.8,273.4z M330.6,253.4
	c6,0,10.8,4.8,10.8,10.8s-4.8,10.8-10.8,10.8s-10.8-4.8-10.8-10.8C319.7,258.2,324.6,253.4,330.6,253.4L330.6,253.4L330.6,253.4z
	 M270,220.8h-68v-10.7h68V220.8z"></path>
<path id="color_x5F_4" fill-rule="evenodd" clip-rule="evenodd" fill="#ffffff" d="M437.6,381.6c5.3,0,10.5,1.5,14.9,4.5l-12.1,12.1
	c-5.8-1.5-11.8,1.9-13.3,7.8s1.9,11.8,7.8,13.3s11.8-1.9,13.3-7.8c0.5-1.8,0.5-3.7,0-5.6l12.1-12.1c8.2,12.5,4.7,29.3-7.8,37.5
	s-29.3,4.7-37.5-7.8s-4.7-29.3,7.8-37.5C427.2,383.2,432.3,381.6,437.6,381.6z M520.6,350.8h-24.3l27.3-27.1h24.3L520.6,350.8z
	 M174,213.9l7.7,7.7l-7.7,7.7l-7.7-7.7L174,213.9z"></path>
<path id="color_x5F_3" fill-rule="evenodd" clip-rule="evenodd" fill="#78d0fe" d="M521.5,509.8h-22.7l-9.7-19.5
	c5.9-3.7,11.3-8.1,16.3-12.9l0,0L521.5,509.8z M376.5,509.8h-22.7l11.3-22.7l0.1-0.1l4.8-9.6c4.9,4.9,10.4,9.2,16.3,12.9
	L376.5,509.8z M437.6,336.5c17.3,0,34,6.2,47,17.4c-3,3-8.1,8.1-13.5,13.5c-22.8-18.5-56.4-15.1-74.9,7.8s-15.1,56.4,7.8,74.9
	c22.8,18.5,56.4,15.1,74.9-7.8c15.9-19.6,15.9-47.6,0-67.2c5.4-5.4,10.5-10.5,13.5-13.5c26,30.3,22.5,75.9-7.8,101.9
	c-30.3,26-75.9,22.5-101.9-7.8s-22.5-75.9,7.8-101.9C403.7,342.7,420.3,336.5,437.6,336.5z M359.3,465H158.7
	c1.3-1.1,2.7-2.3,3.9-3.6c3.5-3.5,6.5-7.3,9.2-11.4h178.6C352.9,455.2,355.9,460.2,359.3,465z M129.1,174.2h336.2
	c6,0,10.8,4.8,10.8,10.8l0,0v135.3c-4.8-2.1-9.9-3.8-15-5.1V189.7c0-0.3-0.2-0.5-0.5-0.5H133.8c-0.3,0-0.5,0.2-0.5,0.5V394
	c-3.6-8.9-8.6-17.2-15-24.4V185.1C118.3,179.1,123.2,174.2,129.1,174.2L129.1,174.2L129.1,174.2z"></path>
<path id="color_x5F_2" fill="#ffffff" d="M512.1,138.8h-81c0.3-14.5,12.2-26,26.7-25.7c11.1,0.2,20.8,7.3,24.4,17.8
	c0.1,0.3,0.4,0.4,0.6,0.3c0.1,0,0.2-0.1,0.3-0.2c4.6-7.4,14.3-9.6,21.7-5C509.2,128.7,511.9,133.5,512.1,138.8L512.1,138.8z
	 M477.9,374.8l23-23H495l0,0c-0.3,0-0.5-0.2-0.5-0.5v-5.9l-22.9,22.9c0,0.1-0.1,0.2-0.2,0.2l0,0c-15,15-28.8,28.8-37,37
	c-1.7,1.8-1.5,4.7,0.3,6.4c1.7,1.6,4.3,1.6,6.1,0l0,0L477.9,374.8L477.9,374.8z M336.6,422.8v8.7c0,0.3-0.2,0.5-0.5,0.5
	s-0.5-0.2-0.5-0.5v-8.7h-40.4v8.7c0,0.3-0.2,0.5-0.5,0.5s-0.5-0.2-0.5-0.5v-8.7h-40.4v8.7c0,0.3-0.2,0.5-0.5,0.5s-0.5-0.2-0.5-0.5
	v-8.7h-40.4v8.7c0,0.3-0.2,0.5-0.5,0.5s-0.5-0.2-0.5-0.5v-8.7h-29.3c-1.4,9.3-4.7,18.2-9.7,26.2h177.5c-3.8-8.3-6.4-17.1-7.8-26.2
	H336.6z M406.2,127.9c-6.1,0-11,4.8-11.3,10.9h22.6C417.2,132.7,412.2,127.9,406.2,127.9L406.2,127.9z M229.2,112.7
	c-7.1,0-12.9,5.6-13.2,12.7h26.3C242.1,118.3,236.3,112.7,229.2,112.7L229.2,112.7z M177.7,103c-5.6,0-11,2-15.2,5.8
	c-0.2,0.2-0.5,0.2-0.7,0l-0.1-0.1c-9.6-20.6-34-29.6-54.6-20c-14.4,6.7-23.6,21-23.8,36.8h117.3C200.3,113,190.2,103,177.7,103
	L177.7,103z M514.2,351.8h-11.9l-9.2,9.2c26.4,30.7,22.9,77-7.8,103.4s-77,22.9-103.4-7.8s-22.9-77,7.8-103.4
	c27.5-23.6,68.1-23.6,95.6,0l9.2-9.2v-11.9c-10.1-7.6-21.6-13-33.9-16.1l0,0c-51.2-12.7-103,18.5-115.7,69.7
	c-3,11.9-3.6,24.3-1.9,36.4v0.1c1.3,9.3,4,18.4,8,26.9c0,0,0,0,0,0.1c2.6,5.6,5.8,10.9,9.4,15.8c0,0,0,0.1,0.1,0.1
	c2.8,3.9,6,7.5,9.3,10.9c0.1,0,0.1,0.1,0.1,0.1c5.1,5.1,10.7,9.6,16.8,13.4c0.1,0,0.2,0.1,0.2,0.1c30.9,19.2,70,19.2,100.9,0
	c0.1-0.1,0.1-0.1,0.2-0.1c6.1-3.8,11.7-8.3,16.8-13.4c0-0.1,0.1-0.1,0.1-0.1c3.4-3.4,6.5-7,9.3-10.9c0,0,0-0.1,0.1-0.1
	C539.4,431.3,539.2,385.4,514.2,351.8L514.2,351.8z M341.2,408.7c0,4.4,0.3,8.7,0.9,13.1h-5.8h-0.1c0,0,0,0-0.1,0h-41.3h-0.1h-0.1
	h-41.3h-0.1c0,0,0,0-0.1,0H212h-0.1c0,0,0,0-0.1,0h-29.6c0.2-1.7,0.4-3.5,0.5-5.2l0,0c0-0.3-0.2-0.5-0.5-0.5l0,0
	c-2.6,0.2-5.2,0.5-7.7,0.9v-32.5c0-0.1,0-0.1,0-0.2V343c0-0.1,0-0.1,0-0.2v-41.3c0-0.1,0-0.1,0-0.2V260c0-0.1,0-0.1,0-0.2v-19.2
	c0-0.3-0.2-0.5-0.5-0.5l0,0c-0.3,0-0.5,0.2-0.5,0.5v18.8h-8.7c-0.3,0-0.5,0.2-0.5,0.5s0.2,0.5,0.5,0.5h8.7v40.4h-8.7
	c-0.3,0-0.5,0.2-0.5,0.5s0.2,0.5,0.5,0.5h8.7v40.4h-8.7c-0.3,0-0.5,0.2-0.5,0.5s0.2,0.5,0.5,0.5h8.7v40.4h-8.7
	c-0.3,0-0.5,0.2-0.5,0.5s0.2,0.5,0.5,0.5h8.7v32.3c-13,2.5-25.1,8.7-34.7,17.8c0.4-3.2,0.6-6.4,0.6-9.6c0-9.8-1.7-19.6-5.1-28.8
	V190.2h325.9V315c-51.8-12.5-103.9,19.3-116.4,71.1C342.1,393.5,341.1,401.1,341.2,408.7L341.2,408.7z M407.9,243.3l6.6,6.6l3.8,3.8
	l6.6,6.6l4.2-21.2L407.9,243.3z M243.6,284.2c0-6-4.8-10.8-10.8-10.8s-10.8,4.8-10.8,10.8s4.8,10.8,10.8,10.8l0,0
	C238.7,295.1,243.6,290.2,243.6,284.2L243.6,284.2z M270,220.8v-10.7h-68v10.7H270z M271.6,333.9c6,0,10.8-4.8,10.8-10.8
	s-4.8-10.8-10.8-10.8s-10.8,4.8-10.8,10.8C260.8,329.1,265.6,333.9,271.6,333.9L271.6,333.9L271.6,333.9z M290.7,386.1
	c0-3.2-2.6-5.8-5.8-5.8c-3.2,0-5.8,2.6-5.8,5.8c0,3.2,2.6,5.8,5.8,5.8l0,0C288.1,392,290.7,389.4,290.7,386.1
	C290.7,386.2,290.7,386.2,290.7,386.1L290.7,386.1z M301.8,220.8v-10.7h-11.6v10.7H301.8z M313.1,386.1c0-3.2-2.6-5.8-5.8-5.8
	s-5.8,2.6-5.8,5.8c0,3.2,2.6,5.8,5.8,5.8C310.5,392,313.1,389.4,313.1,386.1C313.1,386.2,313.1,386.2,313.1,386.1z M341.4,264.2
	c0-6-4.8-10.8-10.8-10.8s-10.8,4.8-10.8,10.8s4.8,10.8,10.8,10.8l0,0C336.5,275,341.4,270.2,341.4,264.2L341.4,264.2z M367.3,311.7
	c6,0,10.8-4.8,10.8-10.8s-4.8-10.8-10.8-10.8s-10.8,4.8-10.8,10.8C356.5,306.9,361.3,311.7,367.3,311.7L367.3,311.7L367.3,311.7z"></path>
<path id="color_x5F_1" fill="#000000" d="M124.4,83.3c-23.5,0-42.6,19.1-42.6,42.6c0,0.6,0.4,1,1,1h118.4c0.6,0,1-0.4,1-1
	c0.1-13.4-10.8-24.4-24.2-24.4c-5.6,0-11,1.9-15.4,5.4C155.3,92.4,140.5,83.3,124.4,83.3z M124.4,85.3c15.8,0,30.2,9.2,36.9,23.5
	c0.2,0.5,0.8,0.7,1.3,0.5c0.1,0,0.2-0.1,0.2-0.2c9.2-8.2,23.4-7.4,31.6,1.9c3.4,3.9,5.4,8.8,5.6,13.9H83.9
	C84.4,102.9,102.4,85.3,124.4,85.3L124.4,85.3z M229.2,111.2c-8.1,0-14.7,6.6-14.7,14.7c0,0.6,0.4,1,1,1h27.4c0.6,0,1-0.4,1-1
	C243.9,117.8,237.3,111.2,229.2,111.2z M457.3,111.6c-15.3,0-27.7,12.4-27.7,27.7c0,0.6,0.4,1,1,1h82.1c0.6,0,1-0.4,1-1
	c0.1-9.5-7.6-17.2-17-17.3c-5.4,0-10.5,2.5-13.7,6.8C478.6,118.4,468.5,111.6,457.3,111.6L457.3,111.6z M229.2,113.2
	c6.6,0,12.1,5.1,12.6,11.7h-25.2C217.1,118.3,222.6,113.2,229.2,113.2L229.2,113.2z M457.3,113.5c11,0,20.8,7,24.4,17.5
	c0.2,0.5,0.7,0.8,1.3,0.6c0.2-0.1,0.4-0.2,0.5-0.4c4.4-7.1,13.8-9.3,20.9-4.9c4.2,2.6,6.9,7.1,7.2,12h-79.9
	C432.2,124.5,443.5,113.6,457.3,113.5L457.3,113.5z M328,114.5c-0.6,0-1,0.5-1,1v7.4c0,0.6,0.4,1,1,1s1-0.4,1-1v-7.4
	C329.1,115,328.6,114.5,328,114.5L328,114.5z M315.4,119.7c-0.6,0-1,0.4-1,1c0,0.3,0.1,0.5,0.3,0.7l5.2,5.2c0.4,0.4,1,0.4,1.4,0.1
	s0.4-1,0.1-1.4l-0.1-0.1l-5.2-5.2C316,119.8,315.7,119.7,315.4,119.7L315.4,119.7z M340.6,119.7c-0.3,0-0.5,0.1-0.7,0.3l-5.2,5.2
	c-0.4,0.4-0.4,1-0.1,1.4s1,0.4,1.4,0.1l0.1-0.1l5.2-5.2c0.4-0.4,0.4-1,0-1.4C341.2,119.8,340.9,119.7,340.6,119.7L340.6,119.7
	L340.6,119.7z M406.2,126.4c-7.1,0-12.9,5.8-12.9,12.9c0,0.6,0.4,1,1,1H418c0.6,0,1-0.4,1-1C419,132.2,413.3,126.4,406.2,126.4
	L406.2,126.4z M406.2,128.4c5.6,0,10.2,4.3,10.7,9.9h-21.4C395.9,132.7,400.6,128.4,406.2,128.4L406.2,128.4z M310.2,132.4
	L310.2,132.4c-0.6,0-1,0.4-1,1s0.4,1,1,1h7.4c0.6,0,1-0.4,1-1s-0.4-1-1-1H310.2L310.2,132.4z M338.5,132.4L338.5,132.4
	c-0.6,0-1,0.4-1,1s0.4,1,1,1h7.4c0.6,0,1-0.4,1-1s-0.4-1-1-1H338.5L338.5,132.4z M335.4,139.8L335.4,139.8c-0.6,0-1,0.4-1,1
	c0,0.3,0.1,0.5,0.3,0.7l5.2,5.2c0.4,0.4,1,0.4,1.4,0.1c0.4-0.4,0.4-1,0.1-1.4c0,0,0,0-0.1-0.1l-5.2-5.2
	C336,139.9,335.7,139.8,335.4,139.8L335.4,139.8z M320.6,139.8c-0.3,0-0.5,0.1-0.7,0.3l-5.2,5.2c-0.4,0.4-0.4,1-0.1,1.4
	c0.4,0.4,1,0.4,1.4,0.1c0,0,0,0,0.1-0.1l5.2-5.2c0.4-0.4,0.4-1,0-1.4C321.2,139.9,320.9,139.7,320.6,139.8L320.6,139.8z M328,142.8
	c-0.6,0-1,0.5-1,1v7.4c0,0.6,0.4,1,1,1s1-0.4,1-1v-7.4C329.1,143.3,328.6,142.8,328,142.8L328,142.8z M129.1,172.7
	c-6.8,0-12.3,5.5-12.3,12.3v184.3c-13.6,15.5-21.1,35.4-21,56c0,2.8,0.1,5.6,0.4,8.3c-11.8-10.8-26.8-17.2-42.7-18.1h-0.1
	c-0.5,0-1,0.5-1,1c0,0,0,0,0,0.1c1,17,8.3,33,20.3,45c1,1,1.9,1.9,2.9,2.8H45.4c-0.6,0-1,0.4-1,1s0.4,1,1,1h32.7c0.1,0,0.3,0,0.4,0
	h39.1c0.1,0,0.2,0,0.3,0h10.5c0.2,0,0.3,0,0.5,0h4.3c0.1,0,0.2,0,0.3,0h226.2c2.7,3.6,5.6,7,8.8,10.3l-4.5,9.1H113.4
	c-0.6,0-1,0.4-1,1s0.4,1,1,1H363l-11,22c-0.1,0.1-0.1,0.3-0.1,0.4c0,0.6,0.4,1,1,1h23.8c0.4,0,0.7-0.2,0.9-0.6l9.5-19.2
	c31,18.9,69.9,18.9,100.8,0l9.5,19.2c0.2,0.3,0.5,0.6,0.9,0.6h23.8c0.6,0,1-0.4,1-1c0-0.2,0-0.3-0.1-0.4l-16.5-33.1
	c3.2-3.2,6.1-6.6,8.8-10.3h33.6c0.6,0,1-0.4,1-1s-0.4-1-1-1h-32.2c23.7-33.7,23.5-78.7-0.5-112.2h4.4c0.3,0,0.5-0.1,0.7-0.3
	l28.3-28.1c0.4-0.4,0.4-1,0-1.4c-0.2-0.2-0.4-0.3-0.7-0.3h-24.7v-24.7l0,0c0-0.6-0.4-1-1-1l0,0c-0.3,0-0.5,0.1-0.7,0.3l-28.3,28.1
	c-0.2,0.2-0.3,0.4-0.3,0.7v4.4c-5.1-3.7-10.6-6.8-16.3-9.5V185.1c0-6.8-5.5-12.3-12.3-12.3H129.1V172.7z M129.1,174.7h336.2
	c5.7,0,10.3,4.6,10.3,10.3l0,0v134.5c-4.5-1.9-9.2-3.5-14-4.8v-125c0-0.6-0.4-1-1-1H133.8c-0.6,0-1,0.4-1,1v201.7
	c-3.5-8-8.2-15.5-14-22V185.1C118.8,179.4,123.4,174.7,129.1,174.7L129.1,174.7L129.1,174.7z M134.8,190.7h324.9v123.6
	c-52.2-12.2-104.3,20.2-116.5,72.3c-2.7,11.3-3.2,23.1-1.7,34.6h-5.2c-0.1,0-0.1,0-0.2,0H336h-41.1c-0.1,0-0.1,0-0.2,0h-0.1h-41.1
	c-0.1,0-0.1,0-0.2,0h-0.1H212c-0.1,0-0.1,0-0.2,0h-0.1h-28.9c0.2-1.5,0.4-3.1,0.5-4.7c0,0,0,0,0-0.1c0-0.6-0.4-1-1-1c0,0,0,0-0.1,0
	c-2.4,0.2-4.8,0.4-7.2,0.8v-31.9c0-0.1,0-0.2,0-0.3v-41.1c0-0.1,0-0.2,0-0.3v-41.1c0-0.1,0-0.2,0-0.3v-41.1c0-0.1,0-0.2,0-0.3v-19.2
	c0-0.6-0.4-1-1-1l0,0c-0.5,0-1,0.5-1,1v18.3h-8.2c-0.6,0-1,0.4-1,1s0.4,1,1,1h8.2v39.4h-8.2c-0.6,0-1,0.4-1,1s0.4,1,1,1h8.2V342
	h-8.2c-0.6,0-1,0.4-1,1s0.4,1,1,1h8.2v39.4h-8.2c-0.6,0-1,0.4-1,1s0.4,1,1,1h8.2v31.4c-12.5,2.5-24.1,8.3-33.5,17
	c0.3-2.7,0.4-5.5,0.4-8.3c0-9.8-1.7-19.6-5.1-28.9L134.8,190.7L134.8,190.7z M200.5,208.6v13.7h71v-13.7H200.5z M288.6,208.6v13.7
	h14.6v-13.7H288.6z M202.5,210.6h67v9.7h-67V210.6z M290.6,210.6h10.6v9.7h-10.6V210.6z M174,212.2c-0.3,0-0.5,0.1-0.7,0.3l-8.4,8.4
	c-0.4,0.4-0.4,1,0,1.4l8.4,8.4c0.4,0.4,1,0.4,1.4,0l8.4-8.4c0.4-0.4,0.4-1,0-1.4l-8.4-8.4C174.5,212.3,174.2,212.2,174,212.2
	L174,212.2z M174,214.6l7,7l-7,7l-7-7L174,214.6z M526.9,222c-0.6,0-1,0.5-1,1v7.4c0,0.6,0.4,1,1,1s1-0.4,1-1V223
	C527.9,222.4,527.4,222,526.9,222L526.9,222z M514.3,227.2L514.3,227.2c-0.6,0-1,0.5-1,1c0,0.3,0.1,0.5,0.3,0.7l5.2,5.2
	c0.4,0.4,1,0.4,1.4,0.1c0.4-0.4,0.4-1,0.1-1.4l-0.1-0.1l-5.2-5.2C514.8,227.3,514.5,227.2,514.3,227.2L514.3,227.2z M539.5,227.2
	c-0.3,0-0.5,0.1-0.7,0.3l-5.2,5.2c-0.4,0.4-0.5,1-0.1,1.4s1,0.5,1.4,0.1l0.1-0.1l5.2-5.2c0.4-0.4,0.4-1,0-1.4
	C540,227.3,539.8,227.2,539.5,227.2L539.5,227.2L539.5,227.2z M429.7,237.4c-0.1,0-0.1,0-0.2,0l-22.9,4.6c-0.5,0.1-0.9,0.6-0.8,1.2
	c0,0.2,0.1,0.4,0.3,0.5l7.3,7.3l1.2,1.2l-39.4,39.4c-4.6-3.9-11.4-3.9-15.9,0l-19.4-19.4c4.4-5.2,3.8-13-1.4-17.4
	c-5.2-4.4-13-3.8-17.4,1.4c-3.9,4.6-3.9,11.4,0,16l-41.6,41.6c-4.6-3.9-11.4-3.9-15.9,0l-21.5-21.5c4.4-5.2,3.8-13-1.4-17.4
	s-13-3.8-17.4,1.4c-3.9,4.6-3.9,11.4,0,16l-37.6,37.6l1.4,1.4l37.6-37.6c4.6,3.9,11.4,3.9,15.9,0l21.5,21.5
	c-4.4,5.2-3.8,13,1.4,17.4c5.2,4.4,13,3.8,17.4-1.4c3.9-4.6,3.9-11.4,0-16l41.6-41.6c4.6,3.9,11.4,3.9,15.9,0l19.4,19.4
	c-4.4,5.2-3.8,13,1.4,17.4c5.2,4.4,13,3.8,17.4-1.4c3.9-4.6,3.9-11.4,0-16l39.4-39.4l1.2,1.2l7.3,7.3c0.4,0.4,1,0.4,1.4,0
	c0.1-0.1,0.2-0.3,0.3-0.5l4.6-22.9c0-0.1,0-0.1,0-0.2C430.8,237.9,430.3,237.4,429.7,237.4L429.7,237.4z M428.5,239.7l-3.9,19.6
	l-5.9-5.9l-3.8-3.8l-6-6L428.5,239.7z M509.1,239.8L509.1,239.8c-0.6,0-1,0.4-1,1s0.4,1,1,1h7.4c0.6,0,1-0.4,1-1s-0.4-1-1-1H509.1
	L509.1,239.8z M537.4,239.8L537.4,239.8c-0.6,0-1,0.4-1,1s0.4,1,1,1h7.4c0.6,0,1-0.4,1-1s-0.4-1-1-1H537.4z M534.3,247.2
	L534.3,247.2c-0.6,0-1,0.4-1,1c0,0.3,0.1,0.5,0.3,0.7l5.2,5.2c0.4,0.4,1,0.5,1.4,0.1s0.5-1,0.1-1.4l-0.1-0.1l-5.2-5.2
	C534.8,247.3,534.6,247.2,534.3,247.2L534.3,247.2z M519.5,247.2c-0.3,0-0.5,0.1-0.7,0.3l-5.2,5.2c-0.4,0.4-0.4,1-0.1,1.4
	c0.4,0.4,1,0.4,1.4,0.1c0,0,0,0,0.1-0.1l5.2-5.2c0.4-0.4,0.4-1,0-1.4C520,247.3,519.8,247.2,519.5,247.2L519.5,247.2z M526.9,250.3
	c-0.6,0-1,0.5-1,1v7.4c0,0.6,0.4,1,1,1s1-0.4,1-1v-7.4C527.9,250.7,527.4,250.3,526.9,250.3L526.9,250.3z M330.6,253.9
	c5.7,0,10.3,4.6,10.3,10.3c0,5.7-4.6,10.3-10.3,10.3c-5.7,0-10.3-4.6-10.3-10.3C320.2,258.5,324.8,253.9,330.6,253.9
	C330.5,253.9,330.6,253.9,330.6,253.9L330.6,253.9z M232.8,273.9c5.7,0,10.3,4.6,10.3,10.3c0,5.7-4.6,10.3-10.3,10.3
	s-10.3-4.6-10.3-10.3C222.4,278.5,227,273.9,232.8,273.9C232.7,273.9,232.7,273.9,232.8,273.9z M70,282.9c-0.5,0-1,0.5-1,1v7.4
	c0,0.6,0.4,1,1,1s1-0.4,1-1v-7.4C71,283.4,70.6,282.9,70,282.9L70,282.9z M57.4,288.2c-0.6,0-1,0.5-1,1c0,0.3,0.1,0.5,0.3,0.7
	l5.2,5.2c0.4,0.4,1,0.4,1.4,0.1c0.4-0.4,0.4-1,0.1-1.4l-0.1-0.1l-5.2-5.2C57.9,288.3,57.7,288.2,57.4,288.2L57.4,288.2z M82.6,288.2
	c-0.3,0-0.5,0.1-0.7,0.3l-5.2,5.2c-0.4,0.4-0.3,1,0.1,1.4s1,0.4,1.4,0l5.2-5.2c0.4-0.4,0.4-1,0-1.4
	C83.1,288.3,82.9,288.2,82.6,288.2L82.6,288.2z M367.3,290.6c5.7,0,10.3,4.6,10.3,10.3s-4.6,10.3-10.3,10.3
	c-5.7,0-10.3-4.6-10.3-10.3C356.9,295.2,361.6,290.6,367.3,290.6L367.3,290.6L367.3,290.6z M522.4,299.8v22.9l-26.3,26.1v-16.7
	c0-0.1,0-0.3,0-0.4V326L522.4,299.8z M52.2,300.8L52.2,300.8c-0.6,0-1,0.4-1,1s0.4,1,1,1h7.4c0.6,0,1-0.4,1-1s-0.4-1-1-1H52.2
	L52.2,300.8z M80.5,300.8L80.5,300.8c-0.6,0-1,0.4-1,1s0.4,1,1,1h7.4c0.6,0,1-0.4,1-1s-0.4-1-1-1H80.5L80.5,300.8z M77.4,308.2
	L77.4,308.2c-0.6,0-1,0.4-1,1c0,0.3,0.1,0.5,0.3,0.7l5.2,5.2c0.4,0.4,1,0.4,1.4,0.1c0.4-0.4,0.4-1,0.1-1.4c0,0,0,0-0.1-0.1l-5.2-5.2
	C77.9,308.3,77.7,308.2,77.4,308.2L77.4,308.2z M62.6,308.2c-0.3,0-0.5,0.1-0.7,0.3l-5.2,5.2c-0.4,0.4-0.4,1-0.1,1.4
	c0.4,0.4,1,0.4,1.4,0.1c0,0,0,0,0.1-0.1l5.2-5.2c0.4-0.4,0.4-1,0-1.4C63.1,308.3,62.9,308.2,62.6,308.2L62.6,308.2z M70,311.2
	c-0.6,0-1,0.5-1,1v7.4c0,0.6,0.4,1,1,1s1-0.4,1-1v-7.4C71,311.7,70.6,311.2,70,311.2L70,311.2L70,311.2z M271.6,312.8
	c5.7,0,10.3,4.6,10.3,10.3s-4.6,10.3-10.3,10.3c-5.7,0-10.3-4.6-10.3-10.3C261.3,317.4,265.9,312.8,271.6,312.8L271.6,312.8
	L271.6,312.8z M437.6,313.8c7.7,0,15.3,0.9,22.8,2.8c0.1,0,0.2,0,0.2,0.1c12.1,3,23.4,8.4,33.4,15.8v11.4c-0.1,0.1-7,7-8.7,8.7
	c-31.1-26.4-77.6-22.6-104,8.5s-22.6,77.6,8.5,104s77.6,22.6,104-8.5c23.4-27.6,23.4-68,0-95.5l8.7-8.7h11.4
	c24.7,33.4,24.9,78.9,0.3,112.5c-0.1,0.1-0.1,0.2-0.2,0.2c-2.8,3.8-5.9,7.4-9.2,10.7c-0.1,0.1-0.2,0.2-0.3,0.3
	c-37.1,37-97,37-134.1,0c-0.1-0.1-0.2-0.2-0.3-0.3c-3.3-3.3-6.4-6.9-9.2-10.7c0-0.1-0.1-0.2-0.2-0.2c-3.6-4.9-6.7-10.1-9.3-15.6
	c0-0.1-0.1-0.2-0.1-0.2c-4-8.4-6.6-17.4-8-26.6c0-0.1,0-0.2,0-0.2c-7.3-51.9,28.8-100,80.7-107.3
	C428.7,314.1,433.2,313.8,437.6,313.8L437.6,313.8z M523.8,324.2h22.9l-26.3,26.1h-5.8c-0.1,0-0.3,0-0.4,0h-16.7L523.8,324.2
	L523.8,324.2z M437.6,337c17,0,33.4,6,46.3,17l-12.8,12.8c-23.2-18.5-57.1-14.8-75.6,8.5s-14.8,57.1,8.5,75.6s57.1,14.8,75.6-8.5
	c15.7-19.6,15.7-47.5,0-67.1l12.8-12.8c25.6,30.3,21.7,75.5-8.5,101.1c-30.3,25.6-75.5,21.7-101.1-8.5
	c-25.6-30.3-21.7-75.5,8.5-101.1C404.2,343,420.7,337,437.6,337L437.6,337z M494.1,346.6v4.7c0,0.6,0.4,1,1,1h4.7l-59.3,59.3l0,0
	c-1.6,1.5-4.2,1.4-5.7-0.3c-1.4-1.5-1.4-3.9,0-5.4l37.1-37.1l0,0C480.9,359.8,493.1,347.6,494.1,346.6L494.1,346.6z M437.6,357
	c11.7,0,23,3.9,32.1,11.2l-16.6,16.6c-13.3-8.6-31-4.8-39.6,8.5s-4.8,31,8.5,39.6s31,4.8,39.6-8.5c6.1-9.5,6.1-21.7,0-31.2
	l16.6-16.6c17.7,22.4,13.9,54.9-8.5,72.7c-22.4,17.7-54.9,13.9-72.7-8.5c-17.7-22.4-13.9-54.9,8.5-72.7
	C414.7,360.9,426,357,437.6,357z M209.6,370.9v2h40.2v-2H209.6z M117.8,371.3c12.9,15,20.1,34.2,20,54.1c0,3.6-0.2,7.1-0.7,10.7
	c0,0.1,0,0.2,0,0.3c-1.3,9.8-4.4,19.4-9,28.1h-9.3v-65.1c0-0.6-0.4-1-1-1l0,0c-0.6,0-1,0.5-1,1v65.1h-9.3c-4.7-8.8-7.7-18.3-9-28.1
	c0-0.1,0-0.2,0-0.3c-0.5-3.5-0.7-7.1-0.7-10.7C97.8,405.6,104.9,386.4,117.8,371.3L117.8,371.3z M284.9,378.8c-4,0-7.3,3.3-7.3,7.3
	s3.3,7.3,7.3,7.3s7.3-3.3,7.3-7.3l0,0C292.2,382.1,288.9,378.8,284.9,378.8z M307.2,378.8c-4,0-7.3,3.3-7.3,7.3s3.3,7.3,7.3,7.3
	s7.3-3.3,7.3-7.3l0,0C314.5,382.1,311.3,378.8,307.2,378.8L307.2,378.8z M284.9,380.8c2.9,0,5.3,2.4,5.3,5.3s-2.4,5.3-5.3,5.3
	s-5.3-2.4-5.3-5.3l0,0C279.6,383.2,281.9,380.8,284.9,380.8L284.9,380.8L284.9,380.8z M307.2,380.8c2.9,0,5.3,2.4,5.3,5.3
	s-2.4,5.3-5.3,5.3s-5.3-2.4-5.3-5.3l0,0C301.9,383.2,304.3,380.8,307.2,380.8L307.2,380.8L307.2,380.8z M209.6,381.2v2h40.2v-2
	H209.6z M437.6,382.1c5,0,9.9,1.4,14.1,4.1l-11.5,11.5c-6.1-1.5-12.3,2.3-13.8,8.5c-1.5,6.1,2.3,12.3,8.5,13.8
	c6.1,1.5,12.3-2.3,13.8-8.5c0.4-1.7,0.4-3.5,0-5.3l11.5-11.5c7.8,12.5,4,28.9-8.5,36.6c-12.5,7.8-28.9,4-36.6-8.5
	c-7.8-12.5-4-28.9,8.5-36.6C427.7,383.5,432.6,382.1,437.6,382.1L437.6,382.1z M209.6,391.5v2h26.6v-2H209.6z M437.6,399.3
	c0.3,0,0.6,0,0.9,0.1l-5.1,5.1l0,0c-2.3,2.3-2.3,6.1,0,8.5c2.3,2.3,6.1,2.3,8.5,0l5.1-5.1c0,0.3,0.1,0.6,0.1,0.9
	c0,5.2-4.2,9.4-9.4,9.4s-9.4-4.2-9.4-9.4C428.2,403.6,432.4,399.3,437.6,399.3L437.6,399.3z M54.5,417.7c15.8,1.2,30.7,8,42,19.1
	c1.3,9.6,4.2,19,8.7,27.6h-2.6L71,432.8c-0.4-0.4-1-0.4-1.4-0.1c-0.4,0.4-0.4,1-0.1,1.4c0,0,0,0,0.1,0.1l30.2,30.2H78.7
	c-1.6-1.3-3.1-2.7-4.6-4.2C62.7,448.9,55.8,433.8,54.5,417.7z M181.1,417.7c-1.2,16.1-8.2,31.2-19.6,42.6c-1.5,1.5-3,2.9-4.6,4.2
	h-21.1l30.2-30.2c0.4-0.4,0.4-1,0-1.4c-0.2-0.2-0.4-0.3-0.7-0.3l0,0c-0.3,0-0.5,0.1-0.7,0.3L133,464.5h-2.6c4.5-8.6,7.4-18,8.7-27.6
	C150.4,425.7,165.3,419,181.1,417.7L181.1,417.7z M182.5,423.3h28.4v8.2c0,0.6,0.4,1,1,1s1-0.4,1-1v-8.2h39.4v8.2c0,0.6,0.4,1,1,1
	s1-0.4,1-1v-8.2h39.4v8.2c0,0.6,0.4,1,1,1s1-0.4,1-1v-8.2h39.4v8.2c0,0.6,0.4,1,1,1s1-0.4,1-1v-8.2h4.6c1.3,8.7,3.8,17.2,7.4,25.2
	H173.3C178,440.8,181.1,432.2,182.5,423.3L182.5,423.3z M172,450.5h178.1c2.3,4.9,5.1,9.6,8.2,14H160c1-0.9,2-1.8,2.9-2.8
	C166.3,458.3,169.4,454.5,172,450.5L172,450.5z M370,478.2c4.7,4.6,9.9,8.7,15.5,12.3l-9.3,18.8h-21.6l10.9-21.9
	c0.1-0.1,0.1-0.2,0.1-0.3L370,478.2L370,478.2z M505.2,478.2l15.5,31.1h-21.6l-9.3-18.8C495.3,486.9,500.5,482.8,505.2,478.2
	L505.2,478.2z"></path>
</svg>