<?xml version="1.0" encoding="iso-8859-1"?>
<!-- Uploaded to: SVG Repo, www.svgrepo.com, Generator: SVG Repo Mixer Tools -->
<svg xmlns="http://www.w3.org/2000/svg" xmlns:xlink="http://www.w3.org/1999/xlink" version="1.1" id="Capa_1"  viewBox="0 0 453.74 453.74" xml:space="preserve" width="512" height="512">
<g>
	<polygon style="fill:#F2EBD9;" points="0,55.497 0,283.628 226.871,313.628 453.74,283.628 453.74,55.497  "/>
	<path style="fill:#FFCC75;" d="M226.87,40.918c-6.17-9.3-16.74-15.42-28.73-15.42H29.37v258.13l207.502,20   C236.872,303.628,226.872,40.915,226.87,40.918z"/>
	<path style="fill:#FFFFFF;" d="M424.37,25.497H255.61c-11.999,0-22.558,6.119-28.738,15.418v262.712l197.498-20V25.497z"/>
	<rect x="181.872" y="348.839" style="fill:#C1E8E6;" width="90" height="71.904"/>
	<path style="fill:#98D9D5;" d="M311.872,428.243h-170c-4.143,0-7.5-3.358-7.5-7.5s3.357-7.5,7.5-7.5h170c4.143,0,7.5,3.358,7.5,7.5   S316.015,428.243,311.872,428.243z"/>
	<path style="fill:#98D9D5;" d="M453.74,283.628v35.21c0,16.5-13.5,30-30,30H30c-16.5,0-30-13.5-30-30v-35.21h29.37h395H453.74z"/>
	<path style="fill:#6DA8D6;" d="M184.967,72.993H70.002c-4.143,0-7.5-3.358-7.5-7.5s3.357-7.5,7.5-7.5h114.965   c4.143,0,7.5,3.358,7.5,7.5S189.109,72.993,184.967,72.993z"/>
	<path style="fill:#6DA8D6;" d="M184.967,108.621H70.002c-4.143,0-7.5-3.358-7.5-7.5s3.357-7.5,7.5-7.5h114.965   c4.143,0,7.5,3.358,7.5,7.5S189.109,108.621,184.967,108.621z"/>
	<path style="fill:#6DA8D6;" d="M127.484,144.248H70.002c-4.143,0-7.5-3.358-7.5-7.5s3.357-7.5,7.5-7.5h57.482   c4.143,0,7.5,3.358,7.5,7.5S131.627,144.248,127.484,144.248z"/>
	<path style="fill:#6DA8D6;" d="M184.967,179.876H70.002c-4.143,0-7.5-3.358-7.5-7.5s3.357-7.5,7.5-7.5h114.965   c4.143,0,7.5,3.358,7.5,7.5S189.109,179.876,184.967,179.876z"/>
	<path style="fill:#6DA8D6;" d="M184.967,215.504H70.002c-4.143,0-7.5-3.358-7.5-7.5s3.357-7.5,7.5-7.5h114.965   c4.143,0,7.5,3.358,7.5,7.5S189.109,215.504,184.967,215.504z"/>
	<path style="fill:#6DA8D6;" d="M127.484,251.132H70.002c-4.143,0-7.5-3.358-7.5-7.5s3.357-7.5,7.5-7.5h57.482   c4.143,0,7.5,3.358,7.5,7.5S131.627,251.132,127.484,251.132z"/>
	<path style="fill:#6DA8D6;" d="M383.741,72.993H268.777c-4.143,0-7.5-3.358-7.5-7.5s3.357-7.5,7.5-7.5h114.964   c4.143,0,7.5,3.358,7.5,7.5S387.884,72.993,383.741,72.993z"/>
	<path style="fill:#6DA8D6;" d="M383.741,108.621H268.777c-4.143,0-7.5-3.358-7.5-7.5s3.357-7.5,7.5-7.5h114.964   c4.143,0,7.5,3.358,7.5,7.5S387.884,108.621,383.741,108.621z"/>
	<path style="fill:#6DA8D6;" d="M326.259,144.248h-57.481c-4.143,0-7.5-3.358-7.5-7.5s3.357-7.5,7.5-7.5h57.481   c4.143,0,7.5,3.358,7.5,7.5S330.401,144.248,326.259,144.248z"/>
	<path style="fill:#6DA8D6;" d="M383.741,179.876H268.777c-4.143,0-7.5-3.358-7.5-7.5s3.357-7.5,7.5-7.5h114.964   c4.143,0,7.5,3.358,7.5,7.5S387.884,179.876,383.741,179.876z"/>
	<path style="fill:#6DA8D6;" d="M383.741,215.504H268.777c-4.143,0-7.5-3.358-7.5-7.5s3.357-7.5,7.5-7.5h114.964   c4.143,0,7.5,3.358,7.5,7.5S387.884,215.504,383.741,215.504z"/>
	<path style="fill:#6DA8D6;" d="M326.259,251.132h-57.481c-4.143,0-7.5-3.358-7.5-7.5s3.357-7.5,7.5-7.5h57.481   c4.143,0,7.5,3.358,7.5,7.5S330.401,251.132,326.259,251.132z"/>
</g>















</svg>