<svg xmlns="http://www.w3.org/2000/svg" xmlns:xlink="http://www.w3.org/1999/xlink" width="500" zoomAndPan="magnify" viewBox="0 0 375 374.999991" height="500" preserveAspectRatio="xMidYMid meet" version="1.0"><defs><g/><clipPath id="e89ce76472"><path d="M 226 203 L 262.5 203 L 262.5 262 L 226 262 Z M 226 203 " clip-rule="nonzero"/></clipPath><clipPath id="e16a54b0ea"><path d="M 112.5 113 L 262.5 113 L 262.5 262 L 112.5 262 Z M 112.5 113 " clip-rule="nonzero"/></clipPath></defs><g clip-path="url(#e89ce76472)"><path fill="#ffffff" d="M 259.558594 249.105469 L 237.410156 249.105469 C 240.429688 242.929688 242.851562 236.535156 244.679688 229.910156 C 247.324219 218.265625 237.660156 204.953125 237.246094 204.390625 C 237.039062 204.105469 236.78125 203.871094 236.476562 203.691406 C 236.171875 203.507812 235.847656 203.390625 235.496094 203.335938 C 235.148438 203.285156 234.800781 203.300781 234.457031 203.386719 C 234.113281 203.46875 233.796875 203.617188 233.511719 203.828125 C 233.226562 204.039062 232.992188 204.292969 232.808594 204.597656 C 232.625 204.898438 232.507812 205.226562 232.453125 205.574219 C 232.402344 205.925781 232.414062 206.273438 232.5 206.617188 C 232.582031 206.960938 232.730469 207.273438 232.941406 207.5625 C 233.027344 207.679688 241.574219 219.4375 239.464844 228.726562 C 237.164062 238.84375 227.292969 257.558594 227.195312 257.746094 C 227.039062 258.058594 226.945312 258.390625 226.917969 258.738281 C 226.890625 259.089844 226.929688 259.429688 227.035156 259.761719 C 227.140625 260.097656 227.304688 260.398438 227.53125 260.667969 C 227.753906 260.933594 228.023438 261.152344 228.332031 261.316406 C 228.640625 261.480469 228.96875 261.578125 229.320312 261.613281 C 229.667969 261.648438 230.007812 261.613281 230.34375 261.515625 C 230.679688 261.414062 230.984375 261.253906 231.257812 261.035156 C 231.53125 260.816406 231.75 260.554688 231.921875 260.246094 C 232.058594 259.984375 233.25 257.722656 234.859375 254.453125 L 259.558594 254.453125 C 259.910156 254.445312 260.246094 254.371094 260.566406 254.234375 C 260.886719 254.09375 261.171875 253.898438 261.414062 253.648438 C 261.660156 253.398438 261.851562 253.113281 261.980469 252.789062 C 262.113281 252.464844 262.179688 252.128906 262.179688 251.777344 C 262.179688 251.425781 262.113281 251.089844 261.980469 250.765625 C 261.851562 250.441406 261.660156 250.15625 261.414062 249.90625 C 261.171875 249.65625 260.886719 249.460938 260.566406 249.320312 C 260.246094 249.183594 259.910156 249.109375 259.558594 249.105469 Z M 259.558594 249.105469 " fill-opacity="1" fill-rule="nonzero"/></g><g clip-path="url(#e16a54b0ea)"><path fill="#ffffff" d="M 133.898438 159.871094 C 136.75 162.664062 142.007812 163.210938 145.75 163.945312 L 146.113281 172.199219 C 146.207031 174.1875 146.605469 176.113281 147.308594 177.980469 C 148.011719 179.84375 148.984375 181.550781 150.230469 183.109375 L 170.171875 207.851562 L 162.589844 228.570312 C 162.035156 230.078125 161.238281 231.445312 160.195312 232.664062 C 157.277344 236.207031 151.28125 242.070312 150.144531 246.675781 L 146.476562 258.183594 C 146.378906 258.519531 146.34375 258.863281 146.378906 259.210938 C 146.414062 259.558594 146.515625 259.886719 146.679688 260.195312 C 146.839844 260.507812 147.058594 260.773438 147.324219 260.996094 C 147.59375 261.222656 147.894531 261.386719 148.230469 261.492188 C 148.5625 261.601562 148.902344 261.640625 149.253906 261.609375 C 149.601562 261.582031 149.929688 261.492188 150.242188 261.332031 C 150.554688 261.175781 150.828125 260.964844 151.058594 260.703125 C 151.289062 260.4375 151.457031 260.140625 151.570312 259.808594 C 153.023438 256.0625 155.003906 246.527344 157.816406 243.671875 L 164.257812 236.140625 C 167.644531 232.914062 172.191406 217.050781 174.085938 212.710938 L 181.757812 222.226562 C 183.53125 224.449219 184.746094 226.945312 185.40625 229.714844 L 189.15625 245.753906 L 180.414062 257.390625 C 180.203125 257.675781 180.050781 257.988281 179.964844 258.332031 C 179.875 258.675781 179.855469 259.023438 179.90625 259.375 C 179.957031 259.722656 180.074219 260.050781 180.253906 260.359375 C 180.433594 260.664062 180.664062 260.921875 180.949219 261.132812 C 181.234375 261.347656 181.546875 261.5 181.890625 261.585938 C 182.234375 261.675781 182.578125 261.695312 182.929688 261.644531 C 183.28125 261.59375 183.609375 261.480469 183.914062 261.296875 C 184.21875 261.117188 184.480469 260.886719 184.691406 260.601562 L 191.875 251.039062 C 192.855469 252.097656 194.007812 252.921875 195.324219 253.511719 C 196.644531 254.097656 198.023438 254.40625 199.46875 254.4375 L 198.558594 258.398438 C 198.476562 258.746094 198.46875 259.09375 198.527344 259.441406 C 198.585938 259.792969 198.710938 260.117188 198.898438 260.417969 C 199.085938 260.71875 199.324219 260.96875 199.613281 261.175781 C 199.902344 261.382812 200.21875 261.523438 200.566406 261.601562 C 200.910156 261.683594 201.257812 261.691406 201.609375 261.632812 C 201.957031 261.574219 202.28125 261.453125 202.582031 261.261719 C 202.882812 261.074219 203.136719 260.835938 203.34375 260.546875 C 203.546875 260.257812 203.691406 259.941406 203.769531 259.59375 L 210.585938 229.914062 C 211.296875 226.835938 211.109375 223.808594 210.027344 220.839844 C 208.699219 217.671875 207.402344 212.289062 205.089844 209.730469 L 173.726562 170.492188 C 172.261719 168.65625 170.441406 167.304688 168.265625 166.429688 L 151.304688 159.617188 C 148.289062 158.628906 139.742188 158.214844 137.378906 155.8125 L 118.78125 139.851562 C 118.320312 139.433594 118.046875 138.917969 117.953125 138.304688 L 128.59375 138.304688 L 151.839844 148.039062 C 152.148438 148.664062 166.109375 146.601562 166.824219 146.625 C 167.171875 146.578125 167.5 146.46875 167.804688 146.292969 C 168.105469 146.117188 168.367188 145.890625 168.582031 145.613281 C 168.796875 145.335938 168.953125 145.03125 169.046875 144.691406 C 169.140625 144.351562 169.167969 144.007812 169.125 143.660156 C 169.085938 143.3125 168.980469 142.984375 168.808594 142.675781 C 168.640625 142.371094 168.417969 142.105469 168.144531 141.886719 C 167.867188 141.667969 167.5625 141.507812 167.226562 141.410156 C 166.890625 141.308594 166.546875 141.277344 166.199219 141.3125 L 153.257812 142.839844 L 130.164062 133.164062 C 129.835938 133.023438 129.488281 132.957031 129.132812 132.957031 L 117.847656 132.957031 L 117.847656 129.757812 C 117.847656 129.039062 118.09375 128.421875 118.589844 127.90625 L 125.335938 120.875 C 126.09375 120.089844 126.976562 119.484375 127.980469 119.054688 C 128.984375 118.625 130.03125 118.410156 131.125 118.410156 L 174.519531 118.410156 C 175.882812 118.40625 177.199219 118.65625 178.464844 119.160156 C 179.734375 119.664062 180.863281 120.382812 181.855469 121.320312 C 183.535156 123.023438 197.367188 135.378906 198.066406 137.28125 L 214.53125 166.664062 C 215.160156 167.777344 215.890625 168.8125 216.726562 169.777344 C 217.566406 170.742188 218.492188 171.609375 219.507812 172.382812 C 220.519531 173.160156 221.605469 173.824219 222.753906 174.378906 C 223.90625 174.929688 225.097656 175.363281 226.335938 175.671875 L 258.914062 183.785156 C 259.257812 183.871094 259.605469 183.886719 259.953125 183.835938 C 260.304688 183.78125 260.632812 183.664062 260.9375 183.480469 C 261.238281 183.300781 261.496094 183.066406 261.707031 182.78125 C 261.917969 182.496094 262.066406 182.179688 262.152344 181.835938 C 262.238281 181.492188 262.253906 181.144531 262.203125 180.792969 C 262.148438 180.445312 262.03125 180.117188 261.847656 179.8125 C 261.667969 179.507812 261.433594 179.25 261.148438 179.039062 C 260.863281 178.828125 260.550781 178.679688 260.203125 178.59375 L 227.628906 170.484375 C 225.839844 170.035156 224.214844 169.25 222.75 168.132812 C 221.285156 167.015625 220.101562 165.652344 219.199219 164.046875 C 217.492188 161.367188 201.980469 132.003906 199.742188 130.832031 L 185.523438 117.429688 C 184.035156 116.023438 182.339844 114.945312 180.4375 114.1875 C 178.539062 113.433594 176.5625 113.058594 174.519531 113.0625 L 131.125 113.0625 C 129.304688 113.066406 127.558594 113.421875 125.882812 114.136719 C 124.207031 114.851562 122.738281 115.863281 121.476562 117.175781 L 114.730469 124.207031 C 114.011719 124.953125 113.460938 125.804688 113.078125 126.765625 C 112.691406 127.726562 112.5 128.722656 112.5 129.757812 L 112.5 137.824219 C 112.5 138.992188 112.742188 140.109375 113.230469 141.171875 C 113.722656 142.234375 114.410156 143.148438 115.296875 143.910156 Z M 166.273438 171.390625 C 167.578125 171.917969 168.667969 172.730469 169.546875 173.828125 L 200.914062 213.070312 C 201.644531 213.984375 202.210938 214.992188 202.609375 216.089844 C 203.707031 219.589844 206.601562 224.945312 205.375 228.71875 L 200.691406 249.105469 C 200.355469 249.15625 200.011719 249.175781 199.671875 249.164062 C 199.328125 249.152344 198.988281 249.105469 198.65625 249.03125 C 198.320312 248.957031 197.996094 248.855469 197.679688 248.71875 C 197.367188 248.585938 197.066406 248.425781 196.78125 248.234375 C 196.496094 248.046875 196.230469 247.832031 195.984375 247.59375 C 195.738281 247.355469 195.515625 247.09375 195.316406 246.816406 C 195.117188 246.535156 194.949219 246.242188 194.804688 245.929688 C 194.660156 245.617188 194.546875 245.296875 194.460938 244.964844 C 192.53125 238.101562 190.933594 224.230469 185.917969 218.871094 L 154.394531 179.75 C 151.039062 176.144531 151.382812 169.898438 151.164062 165.324219 Z M 166.273438 171.390625 " fill-opacity="1" fill-rule="nonzero"/></g><path fill="#ffffff" d="M 197.578125 147.179688 C 197.574219 146.828125 197.5 146.492188 197.363281 146.171875 C 197.222656 145.851562 197.027344 145.566406 196.777344 145.320312 C 196.527344 145.074219 196.242188 144.886719 195.917969 144.753906 C 195.59375 144.621094 195.257812 144.554688 194.90625 144.554688 C 194.554688 144.554688 194.21875 144.621094 193.894531 144.753906 C 193.570312 144.886719 193.285156 145.078125 193.035156 145.320312 C 192.785156 145.566406 192.589844 145.851562 192.449219 146.171875 C 192.3125 146.492188 192.238281 146.828125 192.230469 147.179688 L 192.230469 166.445312 L 185.316406 173.363281 C 185.066406 173.613281 184.871094 173.902344 184.738281 174.230469 C 184.601562 174.558594 184.535156 174.898438 184.535156 175.253906 C 184.535156 175.605469 184.601562 175.949219 184.738281 176.277344 C 184.875 176.601562 185.066406 176.890625 185.316406 177.140625 C 185.566406 177.394531 185.855469 177.585938 186.183594 177.722656 C 186.511719 177.855469 186.851562 177.925781 187.207031 177.925781 C 187.5625 177.925781 187.902344 177.859375 188.230469 177.722656 C 188.554688 177.585938 188.84375 177.394531 189.097656 177.144531 L 196.796875 169.445312 C 197.320312 168.921875 197.578125 168.292969 197.578125 167.554688 Z M 197.578125 147.179688 " fill-opacity="1" fill-rule="nonzero"/><path fill="#ffffff" d="M 199.71875 184.988281 C 200.144531 184.988281 200.550781 184.890625 200.933594 184.699219 C 201.3125 184.503906 201.628906 184.234375 201.882812 183.886719 L 207.015625 176.824219 C 207.355469 176.355469 207.527344 175.832031 207.527344 175.253906 L 207.527344 162.742188 C 207.519531 162.390625 207.445312 162.054688 207.308594 161.734375 C 207.167969 161.410156 206.976562 161.128906 206.726562 160.882812 C 206.476562 160.636719 206.1875 160.449219 205.863281 160.316406 C 205.539062 160.183594 205.203125 160.117188 204.851562 160.117188 C 204.503906 160.117188 204.164062 160.183594 203.839844 160.316406 C 203.515625 160.449219 203.230469 160.636719 202.980469 160.882812 C 202.730469 161.128906 202.535156 161.410156 202.398438 161.734375 C 202.257812 162.054688 202.1875 162.390625 202.179688 162.742188 L 202.179688 174.382812 L 197.558594 180.742188 C 197.269531 181.148438 197.105469 181.601562 197.070312 182.101562 C 197.035156 182.597656 197.128906 183.070312 197.355469 183.515625 C 197.582031 183.960938 197.90625 184.316406 198.332031 184.582031 C 198.753906 184.84375 199.21875 184.980469 199.71875 184.988281 Z M 199.71875 184.988281 " fill-opacity="1" fill-rule="nonzero"/><path fill="#ffffff" d="M 169.183594 125.207031 C 169.183594 124.851562 169.117188 124.511719 168.980469 124.183594 C 168.847656 123.855469 168.652344 123.566406 168.402344 123.316406 C 168.152344 123.0625 167.863281 122.871094 167.535156 122.734375 C 167.207031 122.601562 166.867188 122.53125 166.511719 122.53125 L 161.21875 122.53125 C 160.863281 122.53125 160.519531 122.601562 160.195312 122.734375 C 159.867188 122.871094 159.578125 123.066406 159.328125 123.316406 C 159.074219 123.566406 158.882812 123.855469 158.746094 124.183594 C 158.609375 124.511719 158.542969 124.851562 158.542969 125.207031 C 158.542969 125.558594 158.609375 125.902344 158.746094 126.230469 C 158.882812 126.558594 159.074219 126.847656 159.328125 127.097656 C 159.578125 127.347656 159.867188 127.539062 160.195312 127.675781 C 160.519531 127.8125 160.863281 127.878906 161.21875 127.878906 L 166.511719 127.878906 C 166.867188 127.878906 167.207031 127.8125 167.535156 127.675781 C 167.863281 127.539062 168.152344 127.347656 168.402344 127.097656 C 168.652344 126.847656 168.847656 126.558594 168.980469 126.230469 C 169.117188 125.902344 169.183594 125.558594 169.183594 125.207031 Z M 169.183594 125.207031 " fill-opacity="1" fill-rule="nonzero"/><path fill="#ffffff" d="M 135.011719 123.214844 C 134.839844 123.316406 134.25 123.371094 133.203125 122.832031 C 132.890625 122.667969 132.554688 122.570312 132.203125 122.542969 C 131.847656 122.511719 131.503906 122.550781 131.164062 122.65625 C 130.824219 122.765625 130.519531 122.933594 130.25 123.160156 C 129.980469 123.390625 129.761719 123.660156 129.597656 123.976562 C 127.664062 128.976562 136.90625 129.71875 138.746094 127.027344 C 141.140625 124.527344 137.464844 120.679688 135.011719 123.214844 Z M 135.011719 123.214844 " fill-opacity="1" fill-rule="nonzero"/><path fill="#ffffff" d="M 163.792969 135.917969 C 168.246094 136.921875 173.574219 136.863281 176.828125 134.15625 C 180.953125 130.539062 181.519531 125.074219 177.664062 124.761719 C 177.3125 124.742188 176.964844 124.792969 176.632812 124.914062 C 176.300781 125.035156 176.003906 125.214844 175.742188 125.457031 C 175.484375 125.699219 175.28125 125.980469 175.136719 126.304688 C 174.992188 126.628906 174.914062 126.96875 174.90625 127.324219 C 174.800781 128.433594 174.308594 129.335938 173.429688 130.023438 C 171.785156 131.292969 168.832031 131.515625 164.898438 130.6875 C 164.554688 130.621094 164.210938 130.621094 163.867188 130.691406 C 163.523438 130.761719 163.203125 130.890625 162.914062 131.085938 C 162.621094 131.28125 162.375 131.519531 162.179688 131.8125 C 161.984375 132.101562 161.847656 132.417969 161.777344 132.761719 C 161.703125 133.101562 161.699219 133.445312 161.761719 133.792969 C 161.824219 134.136719 161.949219 134.457031 162.140625 134.753906 C 162.328125 135.046875 162.566406 135.296875 162.851562 135.5 C 163.136719 135.699219 163.453125 135.839844 163.792969 135.917969 Z M 163.792969 135.917969 " fill-opacity="1" fill-rule="nonzero"/><path fill="#ffffff" d="M 223.570312 228.25 C 223.5625 227.898438 223.488281 227.5625 223.351562 227.242188 C 223.210938 226.917969 223.019531 226.636719 222.769531 226.390625 C 222.519531 226.144531 222.230469 225.957031 221.90625 225.824219 C 221.582031 225.691406 221.246094 225.625 220.894531 225.625 C 220.542969 225.625 220.207031 225.691406 219.882812 225.824219 C 219.558594 225.957031 219.273438 226.144531 219.023438 226.390625 C 218.773438 226.636719 218.578125 226.917969 218.4375 227.242188 C 218.300781 227.5625 218.226562 227.898438 218.222656 228.25 C 218.226562 228.597656 218.300781 228.933594 218.4375 229.257812 C 218.578125 229.578125 218.773438 229.863281 219.023438 230.105469 C 219.273438 230.351562 219.558594 230.542969 219.882812 230.671875 C 220.207031 230.804688 220.546875 230.871094 220.894531 230.871094 C 221.246094 230.871094 221.582031 230.804688 221.90625 230.671875 C 222.230469 230.542969 222.519531 230.351562 222.769531 230.105469 C 223.019531 229.863281 223.210938 229.578125 223.351562 229.257812 C 223.488281 228.933594 223.5625 228.597656 223.570312 228.25 Z M 223.570312 228.25 " fill-opacity="1" fill-rule="nonzero"/><path fill="#ffffff" d="M 216.910156 236.910156 C 216.5625 236.917969 216.226562 236.992188 215.902344 237.128906 C 215.582031 237.269531 215.296875 237.460938 215.054688 237.710938 C 214.808594 237.960938 214.617188 238.25 214.484375 238.574219 C 214.355469 238.898438 214.289062 239.234375 214.289062 239.585938 C 214.289062 239.9375 214.355469 240.273438 214.484375 240.597656 C 214.617188 240.921875 214.808594 241.207031 215.054688 241.457031 C 215.296875 241.707031 215.582031 241.902344 215.902344 242.042969 C 216.226562 242.179688 216.5625 242.253906 216.910156 242.257812 C 217.261719 242.253906 217.597656 242.179688 217.917969 242.042969 C 218.242188 241.902344 218.523438 241.707031 218.769531 241.457031 C 219.015625 241.207031 219.203125 240.921875 219.335938 240.597656 C 219.46875 240.273438 219.535156 239.9375 219.535156 239.585938 C 219.535156 239.234375 219.46875 238.898438 219.335938 238.574219 C 219.203125 238.25 219.015625 237.960938 218.769531 237.710938 C 218.523438 237.460938 218.242188 237.269531 217.917969 237.128906 C 217.597656 236.992188 217.261719 236.917969 216.910156 236.910156 Z M 216.910156 236.910156 " fill-opacity="1" fill-rule="nonzero"/><path fill="#ffffff" d="M 168.53125 240.78125 C 168.539062 241.128906 168.609375 241.464844 168.75 241.789062 C 168.886719 242.109375 169.082031 242.390625 169.332031 242.636719 C 169.582031 242.882812 169.867188 243.070312 170.191406 243.203125 C 170.515625 243.335938 170.855469 243.402344 171.203125 243.402344 C 171.554688 243.402344 171.890625 243.335938 172.214844 243.203125 C 172.539062 243.070312 172.828125 242.882812 173.078125 242.636719 C 173.328125 242.390625 173.519531 242.109375 173.660156 241.789062 C 173.796875 241.464844 173.871094 241.128906 173.878906 240.78125 C 173.871094 240.429688 173.796875 240.09375 173.660156 239.773438 C 173.519531 239.453125 173.328125 239.167969 173.078125 238.921875 C 172.828125 238.675781 172.539062 238.488281 172.214844 238.355469 C 171.890625 238.222656 171.554688 238.15625 171.203125 238.15625 C 170.855469 238.15625 170.515625 238.222656 170.191406 238.355469 C 169.867188 238.488281 169.582031 238.679688 169.332031 238.921875 C 169.082031 239.167969 168.886719 239.453125 168.75 239.773438 C 168.609375 240.09375 168.539062 240.429688 168.53125 240.78125 Z M 168.53125 240.78125 " fill-opacity="1" fill-rule="nonzero"/><path fill="#ffffff" d="M 161.9375 250.28125 C 161.945312 250.628906 162.019531 250.964844 162.15625 251.289062 C 162.296875 251.609375 162.488281 251.894531 162.738281 252.136719 C 162.988281 252.382812 163.277344 252.570312 163.601562 252.703125 C 163.925781 252.835938 164.261719 252.902344 164.613281 252.902344 C 164.960938 252.902344 165.300781 252.835938 165.625 252.703125 C 165.949219 252.570312 166.234375 252.382812 166.484375 252.136719 C 166.734375 251.894531 166.929688 251.609375 167.066406 251.289062 C 167.207031 250.964844 167.277344 250.628906 167.285156 250.28125 C 167.277344 249.929688 167.207031 249.59375 167.066406 249.273438 C 166.929688 248.953125 166.734375 248.667969 166.484375 248.421875 C 166.234375 248.179688 165.949219 247.988281 165.625 247.855469 C 165.300781 247.726562 164.960938 247.660156 164.613281 247.660156 C 164.261719 247.660156 163.925781 247.726562 163.601562 247.855469 C 163.277344 247.988281 162.988281 248.179688 162.738281 248.421875 C 162.488281 248.667969 162.296875 248.953125 162.15625 249.273438 C 162.019531 249.59375 161.945312 249.929688 161.9375 250.28125 Z M 161.9375 250.28125 " fill-opacity="1" fill-rule="nonzero"/><g fill="#ffffff" fill-opacity="1"><g transform="translate(53.868747, 301.24996)"><g><path d="M 3.71875 0 L 3.71875 -28.5625 L 9.359375 -28.5625 L 9.359375 -16.890625 L 9.984375 -16.890625 L 19.515625 -28.5625 L 25.296875 -28.5625 L 25.296875 -28.0625 L 14.78125 -15.078125 L 26.390625 -0.484375 L 26.390625 0 L 20 0 L 9.984375 -12.328125 L 9.359375 -12.328125 L 9.359375 0 Z M 3.71875 0 "/></g></g></g><g fill="#ffffff" fill-opacity="1"><g transform="translate(80.252894, 301.24996)"><g><path d="M 12.515625 0.40625 C 10.410156 0.40625 8.5625 -0.0234375 6.96875 -0.890625 C 5.375 -1.753906 4.132812 -3.019531 3.25 -4.6875 C 2.375 -6.363281 1.9375 -8.390625 1.9375 -10.765625 C 1.9375 -13.128906 2.375 -15.148438 3.25 -16.828125 C 4.132812 -18.515625 5.375 -19.789062 6.96875 -20.65625 C 8.5625 -21.519531 10.410156 -21.953125 12.515625 -21.953125 C 14.628906 -21.953125 16.484375 -21.519531 18.078125 -20.65625 C 19.671875 -19.789062 20.910156 -18.515625 21.796875 -16.828125 C 22.679688 -15.148438 23.125 -13.128906 23.125 -10.765625 C 23.125 -8.390625 22.679688 -6.363281 21.796875 -4.6875 C 20.910156 -3.019531 19.671875 -1.753906 18.078125 -0.890625 C 16.484375 -0.0234375 14.628906 0.40625 12.515625 0.40625 Z M 12.515625 -4.1875 C 15.867188 -4.1875 17.546875 -6.378906 17.546875 -10.765625 C 17.546875 -13.046875 17.113281 -14.710938 16.25 -15.765625 C 15.394531 -16.828125 14.148438 -17.359375 12.515625 -17.359375 C 9.171875 -17.359375 7.5 -15.160156 7.5 -10.765625 C 7.5 -6.378906 9.171875 -4.1875 12.515625 -4.1875 Z M 12.515625 -4.1875 "/></g></g></g><g fill="#ffffff" fill-opacity="1"><g transform="translate(105.289509, 301.24996)"><g><path d="M 3.109375 0 L 3.109375 -21.546875 L 8.296875 -21.546875 L 8.296875 -18.65625 L 8.71875 -18.578125 C 9.414062 -19.734375 10.234375 -20.582031 11.171875 -21.125 C 12.117188 -21.675781 13.332031 -21.953125 14.8125 -21.953125 C 16.4375 -21.953125 17.742188 -21.628906 18.734375 -20.984375 C 19.722656 -20.335938 20.445312 -19.398438 20.90625 -18.171875 L 21.3125 -18.171875 C 21.976562 -19.453125 22.832031 -20.398438 23.875 -21.015625 C 24.925781 -21.640625 26.234375 -21.953125 27.796875 -21.953125 C 32.265625 -21.953125 34.5 -19.46875 34.5 -14.5 L 34.5 0 L 29.078125 0 L 29.078125 -13.8125 C 29.078125 -15.070312 28.828125 -15.984375 28.328125 -16.546875 C 27.835938 -17.109375 27.046875 -17.390625 25.953125 -17.390625 C 22.984375 -17.390625 21.5 -15.398438 21.5 -11.421875 L 21.5 0 L 16.09375 0 L 16.09375 -13.8125 C 16.09375 -15.070312 15.84375 -15.984375 15.34375 -16.546875 C 14.84375 -17.109375 14.046875 -17.390625 12.953125 -17.390625 C 11.554688 -17.390625 10.46875 -16.921875 9.6875 -15.984375 C 8.90625 -15.054688 8.515625 -13.578125 8.515625 -11.546875 L 8.515625 0 Z M 3.109375 0 "/></g></g></g><g fill="#ffffff" fill-opacity="1"><g transform="translate(142.551493, 301.24996)"><g><path d="M 12.515625 0.40625 C 10.410156 0.40625 8.5625 -0.0234375 6.96875 -0.890625 C 5.375 -1.753906 4.132812 -3.019531 3.25 -4.6875 C 2.375 -6.363281 1.9375 -8.390625 1.9375 -10.765625 C 1.9375 -13.128906 2.375 -15.148438 3.25 -16.828125 C 4.132812 -18.515625 5.375 -19.789062 6.96875 -20.65625 C 8.5625 -21.519531 10.410156 -21.953125 12.515625 -21.953125 C 14.628906 -21.953125 16.484375 -21.519531 18.078125 -20.65625 C 19.671875 -19.789062 20.910156 -18.515625 21.796875 -16.828125 C 22.679688 -15.148438 23.125 -13.128906 23.125 -10.765625 C 23.125 -8.390625 22.679688 -6.363281 21.796875 -4.6875 C 20.910156 -3.019531 19.671875 -1.753906 18.078125 -0.890625 C 16.484375 -0.0234375 14.628906 0.40625 12.515625 0.40625 Z M 12.515625 -4.1875 C 15.867188 -4.1875 17.546875 -6.378906 17.546875 -10.765625 C 17.546875 -13.046875 17.113281 -14.710938 16.25 -15.765625 C 15.394531 -16.828125 14.148438 -17.359375 12.515625 -17.359375 C 9.171875 -17.359375 7.5 -15.160156 7.5 -10.765625 C 7.5 -6.378906 9.171875 -4.1875 12.515625 -4.1875 Z M 12.515625 -4.1875 "/></g></g></g><g fill="#ffffff" fill-opacity="1"><g transform="translate(167.588108, 301.24996)"><g><path d="M 10.640625 0.40625 C 8.941406 0.40625 7.4375 -0.00390625 6.125 -0.828125 C 4.8125 -1.660156 3.785156 -2.910156 3.046875 -4.578125 C 2.304688 -6.253906 1.9375 -8.316406 1.9375 -10.765625 C 1.9375 -13.222656 2.316406 -15.285156 3.078125 -16.953125 C 3.835938 -18.628906 4.890625 -19.878906 6.234375 -20.703125 C 7.585938 -21.535156 9.148438 -21.953125 10.921875 -21.953125 C 12.265625 -21.953125 13.425781 -21.71875 14.40625 -21.25 C 15.382812 -20.789062 16.210938 -20.078125 16.890625 -19.109375 L 17.3125 -19.203125 L 17.3125 -30.203125 L 22.71875 -30.203125 L 22.71875 0 L 17.3125 0 L 17.3125 -2.796875 L 16.890625 -2.875 C 16.296875 -1.851562 15.476562 -1.050781 14.4375 -0.46875 C 13.394531 0.113281 12.128906 0.40625 10.640625 0.40625 Z M 12.40625 -4.1875 C 13.925781 -4.1875 15.128906 -4.726562 16.015625 -5.8125 C 16.898438 -6.894531 17.34375 -8.546875 17.34375 -10.765625 C 17.34375 -12.972656 16.898438 -14.625 16.015625 -15.71875 C 15.128906 -16.8125 13.925781 -17.359375 12.40625 -17.359375 C 10.8125 -17.359375 9.59375 -16.828125 8.75 -15.765625 C 7.914062 -14.710938 7.5 -13.046875 7.5 -10.765625 C 7.5 -8.492188 7.914062 -6.828125 8.75 -5.765625 C 9.59375 -4.710938 10.8125 -4.1875 12.40625 -4.1875 Z M 12.40625 -4.1875 "/></g></g></g><g fill="#ffffff" fill-opacity="1"><g transform="translate(193.405897, 301.24996)"><g><path d="M 12.515625 0.40625 C 10.410156 0.40625 8.5625 -0.0234375 6.96875 -0.890625 C 5.375 -1.753906 4.132812 -3.019531 3.25 -4.6875 C 2.375 -6.363281 1.9375 -8.390625 1.9375 -10.765625 C 1.9375 -13.128906 2.375 -15.148438 3.25 -16.828125 C 4.132812 -18.515625 5.375 -19.789062 6.96875 -20.65625 C 8.5625 -21.519531 10.410156 -21.953125 12.515625 -21.953125 C 14.628906 -21.953125 16.484375 -21.519531 18.078125 -20.65625 C 19.671875 -19.789062 20.910156 -18.515625 21.796875 -16.828125 C 22.679688 -15.148438 23.125 -13.128906 23.125 -10.765625 C 23.125 -8.390625 22.679688 -6.363281 21.796875 -4.6875 C 20.910156 -3.019531 19.671875 -1.753906 18.078125 -0.890625 C 16.484375 -0.0234375 14.628906 0.40625 12.515625 0.40625 Z M 12.515625 -4.1875 C 15.867188 -4.1875 17.546875 -6.378906 17.546875 -10.765625 C 17.546875 -13.046875 17.113281 -14.710938 16.25 -15.765625 C 15.394531 -16.828125 14.148438 -17.359375 12.515625 -17.359375 C 9.171875 -17.359375 7.5 -15.160156 7.5 -10.765625 C 7.5 -6.378906 9.171875 -4.1875 12.515625 -4.1875 Z M 12.515625 -4.1875 "/></g></g></g><g fill="#ffffff" fill-opacity="1"><g transform="translate(218.442512, 301.24996)"><g/></g></g><g fill="#ffffff" fill-opacity="1"><g transform="translate(227.87519, 301.24996)"><g><path d="M 22.15625 -17.8125 L 22.15625 -28.5625 L 27.78125 -28.5625 L 27.78125 0 L 22.15625 0 L 22.15625 -13.015625 L 9.359375 -13.015625 L 9.359375 0 L 3.71875 0 L 3.71875 -28.5625 L 9.359375 -28.5625 L 9.359375 -17.8125 Z M 22.15625 -17.8125 "/></g></g></g><g fill="#ffffff" fill-opacity="1"><g transform="translate(259.376012, 301.24996)"><g><path d="M 9.859375 0.40625 C 7.441406 0.40625 5.65625 -0.253906 4.5 -1.578125 C 3.351562 -2.898438 2.78125 -4.796875 2.78125 -7.265625 L 2.78125 -21.546875 L 8.1875 -21.546875 L 8.1875 -7.953125 C 8.1875 -6.640625 8.46875 -5.675781 9.03125 -5.0625 C 9.601562 -4.457031 10.476562 -4.15625 11.65625 -4.15625 C 13.15625 -4.15625 14.320312 -4.644531 15.15625 -5.625 C 15.988281 -6.613281 16.40625 -8.164062 16.40625 -10.28125 L 16.40625 -21.546875 L 21.8125 -21.546875 L 21.8125 0 L 16.625 0 L 16.625 -3.171875 L 16.21875 -3.265625 C 15.519531 -2.023438 14.671875 -1.101562 13.671875 -0.5 C 12.679688 0.101562 11.410156 0.40625 9.859375 0.40625 Z M 9.859375 0.40625 "/></g></g></g><g fill="#ffffff" fill-opacity="1"><g transform="translate(284.295452, 301.24996)"><g><path d="M 15.0625 0.40625 C 12.3125 0.40625 10.265625 -0.617188 8.921875 -2.671875 L 8.515625 -2.59375 L 8.515625 0 L 3.109375 0 L 3.109375 -30.203125 L 8.515625 -30.203125 L 8.515625 -19 L 8.921875 -18.921875 C 9.671875 -19.953125 10.546875 -20.710938 11.546875 -21.203125 C 12.554688 -21.703125 13.765625 -21.953125 15.171875 -21.953125 C 16.921875 -21.953125 18.445312 -21.539062 19.75 -20.71875 C 21.050781 -19.90625 22.066406 -18.660156 22.796875 -16.984375 C 23.523438 -15.304688 23.890625 -13.234375 23.890625 -10.765625 C 23.890625 -8.316406 23.507812 -6.253906 22.75 -4.578125 C 22 -2.910156 20.957031 -1.660156 19.625 -0.828125 C 18.300781 -0.00390625 16.78125 0.40625 15.0625 0.40625 Z M 13.421875 -4.1875 C 15.003906 -4.1875 16.210938 -4.710938 17.046875 -5.765625 C 17.878906 -6.828125 18.296875 -8.492188 18.296875 -10.765625 C 18.296875 -13.046875 17.878906 -14.710938 17.046875 -15.765625 C 16.210938 -16.828125 15.003906 -17.359375 13.421875 -17.359375 C 11.898438 -17.359375 10.691406 -16.8125 9.796875 -15.71875 C 8.898438 -14.625 8.453125 -12.972656 8.453125 -10.765625 C 8.453125 -8.546875 8.898438 -6.894531 9.796875 -5.8125 C 10.691406 -4.726562 11.898438 -4.1875 13.421875 -4.1875 Z M 13.421875 -4.1875 "/></g></g></g><g fill="#ffffff" fill-opacity="1"><g transform="translate(310.093707, 301.24996)"><g><path d="M 5.515625 0.171875 C 4.816406 0.171875 4.203125 0.03125 3.671875 -0.25 C 3.148438 -0.53125 2.75 -0.914062 2.46875 -1.40625 C 2.1875 -1.90625 2.046875 -2.46875 2.046875 -3.09375 C 2.046875 -3.71875 2.1875 -4.273438 2.46875 -4.765625 C 2.75 -5.265625 3.148438 -5.65625 3.671875 -5.9375 C 4.203125 -6.226562 4.816406 -6.375 5.515625 -6.375 C 6.210938 -6.375 6.820312 -6.234375 7.34375 -5.953125 C 7.875 -5.671875 8.28125 -5.28125 8.5625 -4.78125 C 8.84375 -4.289062 8.984375 -3.734375 8.984375 -3.109375 C 8.984375 -2.160156 8.664062 -1.375 8.03125 -0.75 C 7.40625 -0.132812 6.566406 0.171875 5.515625 0.171875 Z M 5.515625 0.171875 "/></g></g></g></svg>